<svg version="1.2" xmlns="http://www.w3.org/2000/svg" viewBox="0 0 1187 174" width="1187" height="174">
	<title>amazonlex_light-svg</title>
	<defs>
		<clipPath clipPathUnits="userSpaceOnUse" id="cp1">
			<path d="m282.71 52.68q28.73 0 28.73 24.76v58.82q0 2.49-2.49 2.49h-3.48q-2.5 0-2.66-2.49l-0.66-7.15q-14.29 11.47-29.9 11.47q-11.46 0-18.18-6.57q-6.73-6.56-6.73-17.53q0-12.12 8.22-19.1q8.22-6.98 22.67-6.98q5.31 0 11.62 1q6.31 0.99 12.13 2.82v-13.95q0-10.14-4.82-14.55q-4.82-4.4-15.94-4.4q-10.3 0-21.76 3.32q-1.82 0.5-2.9 0.92q-1.09 0.41-1.75 0.41q-1.99 0-1.99-2.16v-2.65q0-2.5 2.16-3.33q6.31-2.49 13.53-3.82q7.23-1.33 14.2-1.33zm-2.32 45.69q-23.25 0-23.25 17.95q0 15.62 16.44 15.62q6.31 0 13.62-2.5q7.3-2.48 14.78-7.31v-20.77q-11.3-2.99-21.59-2.99z" />
		</clipPath>
		<clipPath clipPathUnits="userSpaceOnUse" id="cp2">
			<path d="m429.69 52.68q11.46 0 17.44 6.4q5.97 6.39 5.97 18.86v58.32q0 2.49-2.49 2.49h-4.48q-2.49 0-2.49-2.49v-54.34q0-10.96-3.74-15.78q-3.74-4.82-12.21-4.82q-15.94 0-30.06 10.47q0.5 3.99 0.5 7.81v56.66q0 2.49-2.49 2.49h-4.48q-2.49 0-2.49-2.49v-54.34q0-10.96-3.74-15.78q-3.74-4.82-12.2-4.82q-15.45 0-29.57 10.14v64.8q0 2.49-2.49 2.49h-4.48q-2.49 0-2.49-2.49v-78.59q0-2.5 2.49-2.5h3.32q2.49 0 2.82 2.5l0.67 6.64q7.47-5.48 15.61-8.55q8.14-3.08 16.11-3.08q15.6 0 20.92 12.79q7.97-6.31 16.69-9.55q8.72-3.24 17.36-3.24z" />
		</clipPath>
		<clipPath clipPathUnits="userSpaceOnUse" id="cp3">
			<path d="m505.41 52.68q28.73 0 28.73 24.76v58.82q0 2.49-2.49 2.49h-3.48q-2.5 0-2.66-2.49l-0.66-7.15q-14.29 11.47-29.9 11.47q-11.46 0-18.18-6.57q-6.73-6.56-6.73-17.53q0-12.12 8.22-19.1q8.22-6.98 22.67-6.98q5.32 0 11.62 1q6.31 0.99 12.13 2.82v-13.95q0-10.14-4.82-14.55q-4.82-4.4-15.94-4.4q-10.3 0-21.76 3.32q-1.82 0.5-2.9 0.92q-1.08 0.41-1.75 0.41q-1.99 0-1.99-2.16v-2.65q0-2.5 2.16-3.33q6.31-2.49 13.53-3.82q7.23-1.33 14.2-1.33zm-2.32 45.69q-23.25 0-23.25 17.95q0 15.62 16.44 15.62q6.31 0 13.62-2.5q7.3-2.48 14.78-7.31v-20.77q-11.3-2.99-21.59-2.99z" />
		</clipPath>
		<clipPath clipPathUnits="userSpaceOnUse" id="cp4">
			<path d="m613.53 132.93v3.33q0 2.49-2.5 2.49h-58.45q-2.49 0-2.49-2.49v-3.49q0-1.66 0.41-2.66q0.41-1 1.58-2.33l50.49-64.3h-48.33q-2.49 0-2.49-2.49v-3.32q0-2.5 2.49-2.5h56.46q2.5 0 2.49 2.5v3.49q0 1.33-0.41 2.49q-0.42 1.16-1.75 2.66l-50.65 64.13h50.65q2.5 0 2.5 2.49z" />
		</clipPath>
		<clipPath clipPathUnits="userSpaceOnUse" id="cp5">
			<path d="m662.35 141.24q-18.1 0-28.32-11.55q-10.21-11.54-10.21-32.81q0-21.27 10.21-32.73q10.22-11.47 28.32-11.47q18.1 0 28.32 11.47q10.21 11.46 10.21 32.73q0 21.27-10.21 32.81q-10.22 11.55-28.32 11.55zm0-8.64q28.73 0 28.73-35.72q0-35.56-28.73-35.56q-28.73 0-28.73 35.56q0 35.72 28.73 35.72z" />
		</clipPath>
		<clipPath clipPathUnits="userSpaceOnUse" id="cp6">
			<path d="m762.99 52.68q12.28 0 18.6 6.4q6.31 6.39 6.31 18.86v58.32q0 2.49-2.49 2.49h-4.49q-2.49 0-2.48-2.49v-54.34q-0.01-10.96-4.16-15.78q-4.15-4.82-13.29-4.82q-8.8 0-16.77 2.74q-7.97 2.75-15.61 7.9v64.3q0 2.49-2.49 2.49h-4.48q-2.49 0-2.49-2.49v-78.59q0-2.5 2.49-2.5h3.32q2.49 0 2.82 2.5l0.67 7.14q7.97-5.81 16.94-8.97q8.96-3.16 17.6-3.16z" />
		</clipPath>
		<clipPath clipPathUnits="userSpaceOnUse" id="cp7">
			<path d="m1157.76 52.68q28.73 0 28.73 24.76v58.82q0 2.49-2.49 2.49h-3.49q-2.49 0-2.65-2.49l-0.67-7.15q-14.28 11.47-29.89 11.47q-11.46 0-18.19-6.57q-6.73-6.56-6.72-17.53q0-12.12 8.22-19.1q8.22-6.98 22.67-6.98q5.31 0 11.62 1q6.31 0.99 12.13 2.82v-13.95q0-10.14-4.82-14.55q-4.82-4.4-15.94-4.4q-10.3 0-21.76 3.32q-1.83 0.5-2.9 0.92q-1.09 0.41-1.75 0.41q-1.99 0-1.99-2.16v-2.65q0-2.5 2.16-3.33q6.31-2.49 13.53-3.82q7.23-1.33 14.2-1.33zm-2.33 45.69q-23.25 0-23.25 17.95q0.01 15.62 16.45 15.62q6.3 0 13.61-2.5q7.31-2.48 14.79-7.31v-20.77q-11.3-2.99-21.6-2.99zm-78.33 3.49l-24.08 35.06q-1.33 1.83-3.49 1.83h-4.65q-2.16 0-2.16-1.83q0-0.66 1.16-2.16l28.4-39.54l-25.9-36.23q-1-1.49-1-1.99q0-1.83 2.16-1.83h5.15q2.15 0 3.48 1.83l21.76 30.91l21.76-30.91q1.32-1.83 3.32-1.83h4.48q2.16 0 2.16 1.83q0 0.67-1 2.16l-25.57 35.39l28.4 40.21q0.99 1.5 0.99 2.16q0 1.83-2.16 1.83h-5.14q-2 0-3.32-1.83zm-55.61 27.91q2.16-0.66 3.16-1.08q0.99-0.41 1.82-0.41q2 0 1.99 2.16v2.32q0 2.67-1.82 3.49q-11.96 4.99-25.41 4.99q-19.1 0-29.15-11.05q-10.04-11.05-10.04-32.32q0-10.47 2.65-18.86q2.66-8.39 7.72-14.29q5.07-5.89 12.38-8.97q7.31-3.07 16.44-3.07q14.45 0 22.33 6.64q7.89 6.65 7.89 18.61q0 11.8-8.38 17.37q-8.39 5.56-25.99 5.56q-6.32 0-12.71-0.74q-6.39-0.75-12.7-2.58q0 17.94 7.55 26.5q7.56 8.56 22.67 8.56q9.8 0 19.6-2.83zm-21.09-68.62q-12.46 0-19.68 7.31q-7.23 7.31-8.72 21.43q6.48 1.67 12.87 2.5q6.39 0.83 12.87 0.83q12.46 0 18.27-3.66q5.81-3.65 5.81-11.63q0-16.78-21.42-16.78zm-69.35-42.87q0-2.49 2.49-2.49h4.48q2.49 0 2.49 2.49v106.01q0 3.66 1.42 5.15q1.41 1.5 5.06 1.5q1 0 2.24-0.17q1.25-0.17 2.08-0.17q2.32 0.01 2.33 2.33v3.16q-0.01 1.99-2.16 2.49q-1 0.33-2.91 0.5q-1.91 0.16-3.41 0.16q-6.64 0.01-10.38-3.9q-3.73-3.9-3.73-10.88zm-50.65 34.39q28.73 0 28.72 24.76v58.82q0.01 2.49-2.48 2.49h-3.49q-2.49 0-2.66-2.49l-0.66-7.15q-14.29 11.47-29.89 11.47q-11.47 0-18.19-6.57q-6.73-6.56-6.73-17.53q0-12.12 8.22-19.1q8.23-6.98 22.67-6.98q5.31 0 11.63 1q6.31 0.99 12.12 2.82v-13.95q0-10.14-4.82-14.54q-4.81-4.41-15.94-4.41q-10.29 0-21.75 3.33q-1.83 0.49-2.91 0.91q-1.08 0.41-1.74 0.41q-2 0-2-2.16v-2.65q0-2.5 2.16-3.33q6.31-2.49 13.54-3.82q7.22-1.33 14.2-1.33zm-2.33 45.69q-23.25 0.01-23.25 17.95q0 15.62 16.44 15.62q6.31 0 13.62-2.5q7.31-2.48 14.78-7.31v-20.77q-11.29-2.99-21.59-2.99z" />
		</clipPath>
		<clipPath clipPathUnits="userSpaceOnUse" id="cp8">
			<path d="m173.25 86.67c0 47.86-38.79 86.66-86.63 86.66q-5.87 0-11.54-0.76c0.35-0.15 64.04-27.65 71.47-76.58q0.05-0.37 0.1-0.74q0.12-0.81 0.21-1.62q0.08-0.72 0.15-1.44q0.03-0.33 0.06-0.66q0.08-1.04 0.12-2.09q0.01-0.25 0.02-0.51q0.05-1.12 0.05-2.26c0-33.3-26.81-60.33-60.01-60.67c-33.32-0.33-60.46 25.87-61.25 59.2c-0.64 27.38 16.85 50.77 41.3 58.99c4.67 1.56 7.77 5.99 7.77 10.91v17.47c-42.38-5.66-75.07-41.96-75.07-85.9c0-47.87 38.78-86.67 86.62-86.67c47.84 0 86.63 38.8 86.63 86.67z" />
		</clipPath>
	</defs>
	<style>
		.s0 { fill: #3f3b3c } 
		.s1 { fill: #ffffff } 
		.s2 { fill: #5fcaf4 } 
	</style>
	<g id="g10">
		<g id="g12">
			<path id="path14" fill-rule="evenodd" class="s0" d="m282.7 52.7q28.7 0 28.7 24.7v58.9q0 2.5-2.4 2.4h-3.5q-2.5 0.1-2.7-2.4l-0.7-7.2q-14.2 11.5-29.8 11.5q-11.5 0-18.2-6.6q-6.8-6.5-6.8-17.5q0-12.1 8.3-19.1q8.2-7 22.6-7q5.3 0 11.7 1q6.3 1 12.1 2.8v-13.9q0-10.2-4.8-14.6q-4.9-4.4-16-4.4q-10.3 0-21.7 3.3q-1.9 0.5-2.9 1q-1.1 0.4-1.8 0.4q-2 0-2-2.2v-2.6q0-2.5 2.2-3.4q6.3-2.5 13.5-3.8q7.2-1.3 14.2-1.3zm-2.3 45.7q-23.3 0-23.3 17.9q0 15.6 16.5 15.6q6.3 0 13.6-2.5q7.3-2.4 14.8-7.3v-20.7q-11.3-3-21.6-3z" />
			<g id="g16">
				<g id="Clip-Path: g18" clip-path="url(#cp1)">
					<g id="g18">
						<path id="path24" class="s1" d="m234.2 39.5h90.4v114.2h-90.4z" />
					</g>
				</g>
			</g>
			<path id="path26" fill-rule="evenodd" class="s0" d="m429.7 52.7q11.4 0 17.4 6.4q6 6.4 6 18.8v58.4q0 2.5-2.5 2.4h-4.5q-2.5 0.1-2.5-2.4v-54.4q0-10.9-3.7-15.8q-3.7-4.8-12.2-4.8q-16 0-30.1 10.5q0.5 4 0.5 7.8v56.7q0 2.5-2.5 2.4h-4.4q-2.5 0.1-2.5-2.4v-54.4q0-10.9-3.8-15.8q-3.7-4.8-12.2-4.8q-15.4 0-29.5 10.2v64.8q0 2.5-2.5 2.4h-4.5q-2.5 0.1-2.5-2.4v-78.6q0-2.5 2.5-2.5h3.3q2.5 0 2.8 2.5l0.7 6.6q7.5-5.5 15.6-8.5q8.1-3.1 16.1-3.1q15.6 0 20.9 12.8q8-6.3 16.7-9.6q8.8-3.2 17.4-3.2z" />
			<g id="g28">
				<g id="Clip-Path: g30" clip-path="url(#cp2)">
					<g id="g30">
						<path id="path36" class="s1" d="m320.5 39.5h145.8v112.4h-145.8z" />
					</g>
				</g>
			</g>
			<path id="path38" fill-rule="evenodd" class="s0" d="m505.4 52.7q28.7 0 28.7 24.7v58.9q0 2.5-2.4 2.4h-3.5q-2.5 0.1-2.7-2.4l-0.7-7.2q-14.2 11.5-29.8 11.5q-11.5 0-18.2-6.6q-6.8-6.5-6.8-17.5q0-12.1 8.3-19.1q8.2-7 22.6-7q5.3 0 11.7 1q6.3 1 12.1 2.8v-13.9q0-10.2-4.8-14.6q-4.9-4.4-16-4.4q-10.3 0-21.7 3.3q-1.9 0.5-2.9 1q-1.1 0.4-1.8 0.4q-2 0-2-2.2v-2.6q0-2.5 2.2-3.4q6.3-2.5 13.5-3.8q7.2-1.3 14.2-1.3zm-2.3 45.7q-23.3 0-23.3 17.9q0 15.6 16.5 15.6q6.3 0 13.6-2.5q7.3-2.4 14.8-7.3v-20.7q-11.3-3-21.6-3z" />
			<g id="g40">
				<g id="Clip-Path: g42" clip-path="url(#cp3)">
					<g id="g42">
						<path id="path48" class="s1" d="m456.9 39.5h90.4v114.2h-90.4z" />
					</g>
				</g>
			</g>
			<path id="path50" fill-rule="evenodd" class="s0" d="m613.5 132.9v3.4q0 2.5-2.5 2.4h-58.4q-2.5 0.1-2.5-2.4v-3.5q0-1.7 0.4-2.7q0.4-1 1.6-2.3l50.5-64.3h-48.4q-2.5 0-2.5-2.5v-3.3q0-2.5 2.5-2.5h56.5q2.5 0 2.5 2.5v3.5q0 1.3-0.4 2.4q-0.4 1.2-1.8 2.7l-50.6 64.1h50.6q2.5 0 2.5 2.5z" />
			<g id="g52">
				<g id="Clip-Path: g54" clip-path="url(#cp4)">
					<g id="g54">
						<path id="path60" class="s1" d="m536.9 42h89.8v109.9h-89.8z" />
					</g>
				</g>
			</g>
			<path id="path62" fill-rule="evenodd" class="s0" d="m662.4 141.2q-18.2 0-28.4-11.5q-10.2-11.6-10.2-32.8q0-21.3 10.2-32.8q10.2-11.4 28.4-11.4q18.1 0 28.3 11.4q10.2 11.5 10.2 32.8q0 21.2-10.2 32.8q-10.2 11.5-28.3 11.5zm0-8.6q28.7 0 28.7-35.7q0-35.6-28.7-35.6q-28.8 0-28.8 35.6q0 35.7 28.8 35.7z" />
			<g id="g64">
				<g id="Clip-Path: g66" clip-path="url(#cp5)">
					<g id="g66">
						<path id="path72" class="s1" d="m607.7 39.5h103.3v114.9h-103.3z" />
					</g>
				</g>
			</g>
			<path id="path74" fill-rule="evenodd" class="s0" d="m763 52.7q12.3 0 18.6 6.4q6.3 6.4 6.3 18.8v58.4q0 2.5-2.5 2.4h-4.5q-2.5 0.1-2.5-2.4v-54.4q0-10.9-4.1-15.8q-4.2-4.8-13.3-4.8q-8.8 0-16.8 2.8q-7.9 2.7-15.6 7.9v64.3q0 2.5-2.5 2.4h-4.5q-2.5 0.1-2.5-2.4v-78.6q0-2.5 2.5-2.5h3.4q2.4 0 2.8 2.5l0.6 7.1q8-5.8 17-9q8.9-3.1 17.6-3.1z" />
			<g id="g76">
				<g id="Clip-Path: g78" clip-path="url(#cp6)">
					<g id="g78">
						<path id="path84" class="s1" d="m706 39.5h95.1v112.4h-95.1z" />
					</g>
				</g>
			</g>
			<path id="path86" fill-rule="evenodd" class="s0" d="m1157.8 52.7q28.7 0 28.7 24.7v58.9q0 2.5-2.5 2.4h-3.5q-2.5 0.1-2.6-2.4l-0.7-7.2q-14.3 11.5-29.9 11.5q-11.5 0-18.2-6.6q-6.7-6.5-6.7-17.5q0-12.1 8.2-19.1q8.2-7 22.7-7q5.3 0 11.6 1q6.3 1 12.1 2.8v-13.9q0-10.2-4.8-14.6q-4.8-4.4-15.9-4.4q-10.3 0-21.8 3.3q-1.8 0.5-2.9 1q-1.1 0.4-1.7 0.4q-2 0-2-2.2v-2.6q0-2.5 2.1-3.4q6.3-2.5 13.6-3.8q7.2-1.3 14.2-1.3zm-2.4 45.7q-23.2 0-23.2 17.9q0 15.6 16.4 15.6q6.3 0 13.6-2.5q7.4-2.4 14.8-7.3v-20.7q-11.3-3-21.6-3zm-78.3 3.5l-24.1 35q-1.3 1.9-3.5 1.8h-4.6q-2.2 0.1-2.2-1.8q0-0.6 1.2-2.1l28.4-39.6l-25.9-36.2q-1-1.5-1-2q0-1.8 2.1-1.8h5.2q2.1 0 3.5 1.8l21.7 30.9l21.8-30.9q1.3-1.8 3.3-1.8h4.5q2.1 0 2.1 1.8q0.1 0.7-0.9 2.2l-25.6 35.4l28.4 40.2q1 1.5 1 2.1q0 1.9-2.2 1.8h-5.1q-2 0.1-3.4-1.8zm-55.6 27.9q2.2-0.6 3.2-1q1-0.5 1.8-0.5q2 0 2 2.2v2.3q0 2.7-1.8 3.5q-12 5-25.4 5q-19.1 0-29.2-11.1q-10-11-10-32.3q0-10.4 2.6-18.8q2.7-8.4 7.8-14.3q5-5.9 12.3-9q7.3-3.1 16.5-3.1q14.4 0 22.3 6.7q7.9 6.6 7.9 18.6q0 11.8-8.4 17.4q-8.4 5.5-26 5.5q-6.3 0-12.7-0.7q-6.4-0.8-12.7-2.6q0 17.9 7.6 26.5q7.5 8.6 22.6 8.6q9.8 0 19.6-2.9zm-21.1-68.6q-12.4 0-19.6 7.3q-7.3 7.3-8.7 21.5q6.4 1.6 12.8 2.4q6.4 0.9 12.9 0.9q12.4 0 18.3-3.7q5.8-3.6 5.8-11.6q0-16.8-21.5-16.8zm-69.3-42.9q0-2.4 2.5-2.4h4.5q2.5 0 2.5 2.4v106.1q0 3.6 1.4 5.1q1.4 1.5 5 1.5q1 0 2.3-0.2q1.2-0.1 2.1-0.1q2.3 0 2.3 2.3v3.1q0 2-2.2 2.5q-1 0.4-2.9 0.5q-1.9 0.2-3.4 0.2q-6.6 0-10.4-3.9q-3.7-3.9-3.7-10.9zm-50.7 34.4q28.8 0 28.8 24.8v58.8q0 2.5-2.5 2.5h-3.5q-2.5 0-2.7-2.5l-0.6-7.2q-14.3 11.5-29.9 11.5q-11.5 0-18.2-6.6q-6.7-6.5-6.7-17.5q0-12.1 8.2-19.1q8.2-7 22.7-7q5.3 0 11.6 1q6.3 1 12.1 2.9v-14q0-10.1-4.8-14.5q-4.8-4.4-16-4.4q-10.2 0-21.7 3.3q-1.8 0.5-2.9 0.9q-1.1 0.4-1.8 0.4q-1.9 0-1.9-2.2v-2.6q0-2.5 2.1-3.3q6.3-2.5 13.5-3.9q7.3-1.3 14.2-1.3zm-2.3 45.7q-23.2 0-23.2 17.9q0 15.7 16.4 15.7q6.3 0 13.6-2.5q7.3-2.5 14.8-7.3v-20.8q-11.3-3-21.6-3z" />
			<g id="g88">
				<g id="Clip-Path: g90" clip-path="url(#cp7)">
					<g id="g90">
						<path id="path96" class="s1" d="m834.9-0.4h367.7v151.8h-367.7z" />
					</g>
				</g>
			</g>
			<path id="path98" fill-rule="evenodd" class="s2" d="m173.2 86.7c0 47.8-38.7 86.6-86.6 86.6q-5.9 0-11.5-0.7c0.3-0.2 64-27.7 71.4-76.6q0.1-0.4 0.2-0.7q0.1-0.9 0.2-1.7q0-0.7 0.1-1.4q0-0.3 0.1-0.7q0-1 0.1-2.1q0-0.2 0-0.5q0.1-1.1 0.1-2.2c0-33.3-26.9-60.4-60.1-60.7c-33.3-0.3-60.4 25.9-61.2 59.2c-0.6 27.4 16.9 50.8 41.3 59c4.7 1.6 7.8 6 7.8 10.9v17.5c-42.4-5.7-75.1-42-75.1-85.9c0-47.9 38.8-86.7 86.6-86.7c47.9 0 86.6 38.8 86.6 86.7z" />
			<g id="g100">
				<g id="Clip-Path: g102" clip-path="url(#cp8)">
					<g id="g102">
						<path id="path108" class="s2" d="m-13.2-13.2h199.6v199.7h-199.6z" />
					</g>
				</g>
			</g>
		</g>
	</g>
</svg>