<svg version="1.2" xmlns="http://www.w3.org/2000/svg" viewBox="0 0 120 60" width="120" height="60">
	<title>aws_light-svg</title>
	<style>
		.s0 { fill: #ff9900 } 
		.s1 { fill: #ffffff;stroke: #000000;stroke-width: .2 } 
		.s2 { fill: #ffffff } 
	</style>
	<path id="Layer" fill-rule="evenodd" class="s0" d="m15.9 42.6v-8.8l6 2v9zm7.1 2.2v-9l6.1-2.1v8.9zm-0.4-13.4l5.6 1.8l-5.6 1.9l-6.1-2zm-14-1.1v-8.9l6.1 2.1v8.9zm7.1 2.2v-9l6.1-2v8.8zm-0.4-13.4l5.6 1.9l-5.6 1.9l-6.1-2zm7.3 11.2v-8.9l6 2.1v9zm7.2 2.1v-9l6-2v8.9zm-0.4-13.4l5.7 1.8l-5.7 1.9l-6.1-2zm0.5-1.1v-8.9l6 2.1v8.9zm7.1 2.2v-9l6.1-2v8.8zm-0.4-13.4l5.6 1.9l-5.6 1.9l-6.1-2.1zm7.3 11.3v-8.9l6.1 2.1v8.9zm7.1 2.2v-9l6-2v8.8zm-0.4-13.4l5.7 1.9l-5.7 1.9l-6.1-2z" />
	<path id="Layer" fill-rule="evenodd" class="s1" d="m47 39l-2 7.1h-0.9l-1.6-5.3l-1.5 5.3h-0.9l-2.1-7.1h1.1l1.6 5.3l1.4-5.3h0.8l1.6 5.3l1.6-5.3zm5.6 5l1 0.2q0 0.2-0.1 0.4q-0.2 0.2-0.3 0.4q-0.1 0.2-0.3 0.4q-0.2 0.1-0.4 0.3q-0.8 0.5-1.9 0.5q-1.4 0-2.3-1q-0.9-1-0.9-2.6q0-1.7 0.9-2.8q0.3-0.2 0.5-0.4q0.3-0.2 0.6-0.3q0.3-0.2 0.6-0.2q0.3-0.1 0.7-0.1q1.3 0 2.2 1q0.8 0.9 0.8 2.8h-5.1q0 1.6 0.7 2.2q0.7 0.5 1.4 0.5q1.4 0 1.9-1.4zm-0.1-2.1q0-0.6-0.2-1q-0.1-0.5-0.6-0.8q-0.4-0.4-1-0.4q-0.2 0-0.4 0.1q-0.2 0-0.4 0.1q-0.1 0.1-0.3 0.2q-0.2 0.1-0.3 0.2q-0.6 0.6-0.6 1.6c0 0 3.8 0 3.8 0zm3.2 4.3zm-0.5-0.1v-9.5h1.1v3.7q0.7-1.4 2.1-1.4q1.2 0 2 1q0.8 0.9 0.8 2.7q0 1.6-0.8 2.7q-0.8 1-2.1 1q-1.4 0-2.2-1.3l-0.4 1.1zm1.1-2.7q0.1 1.1 0.7 1.6q0.6 0.4 1.2 0.5q0.9 0 1.4-0.8q0.5-0.7 0.5-2q0-1.3-0.5-2.1q-0.5-0.8-1.4-0.8q-0.7 0-1.2 0.6q-0.6 0.5-0.7 1.4c0 0 0 1.6 0 1.6zm7.7 0.9l1.1-0.2q0.3 1.3 2.2 1.3q0.7 0 1.1-0.3q0.1 0 0.2-0.1q0.1-0.1 0.2-0.2q0-0.2 0.1-0.3q0-0.1 0-0.2q0-0.9-1.2-1.1l-1.5-0.3q-0.9-0.1-1.4-0.6q-0.5-0.5-0.5-1.3q0-0.9 0.7-1.5q0.7-0.6 1.9-0.6q2.3 0 2.8 1.8l-1 0.2q-0.4-1.1-1.7-1.1q-0.7 0-1.1 0.3q-0.1 0-0.2 0.1q-0.1 0.1-0.2 0.2q0 0.1 0 0.2q-0.1 0.1-0.1 0.2q0 0.8 1.1 1l1.4 0.3q2.2 0.4 2.2 2.1q0 0.2-0.1 0.4q0 0.2-0.1 0.4q-0.2 0.3-0.3 0.4q-0.2 0.2-0.3 0.3q-0.8 0.6-2.2 0.6q-2.5 0-3.1-2zm11.9-0.3l1 0.2q-0.3 0.9-1.1 1.5q-0.8 0.6-1.9 0.6q-1.4 0-2.3-1q-0.9-1-0.9-2.7q0-1.6 0.9-2.7q0.2-0.2 0.5-0.4q0.3-0.2 0.6-0.4q0.3-0.1 0.6-0.2q0.3 0 0.6 0q1.4 0 2.3 0.9q0.8 1 0.8 2.9h-5.1q0 1.6 0.7 2.2q0.6 0.5 1.4 0.5q1.3 0 1.9-1.4zm-0.1-2.1q0-0.6-0.2-1.1q-0.2-0.4-0.6-0.8q-0.4-0.3-1-0.3q-0.2 0-0.4 0.1q-0.2 0-0.4 0.1q-0.2 0-0.3 0.2q-0.2 0.1-0.3 0.2q-0.6 0.6-0.6 1.6zm3.4 4.2q0 0 0 0zm-1.1 0v-7h1v1.6q0.5-1.1 1-1.5q0.5-0.3 1.1-0.3q0 0 0.1 0q0 0 0.1 0q0 0 0.1 0q0 0 0.1 0v1.1h-0.2q-0.9 0-1.5 0.6q-0.6 0.7-0.7 1.8c0 0 0 3.7 0 3.7zm10.3-7l-2.4 7h-1.2l-2.5-7h1.2l2 5.7l1.9-5.7zm2.1-2.5v1.2h-1.2v-1.2c0 0 1.2 0 1.2 0zm0 2.5v7h-1.1v-7zm5.7 4.6l1 0.1q-0.2 1.2-0.9 1.9q-0.7 0.6-1.8 0.6q-1.5 0-2.2-1q-0.8-1.1-0.8-2.7q0-1.6 0.8-2.6q0.8-1.1 2.2-1.1q1.1 0 1.8 0.7q0.7 0.7 0.9 1.8l-1 0.2q-0.3-1.8-1.7-1.8q-0.2 0-0.4 0.1q-0.2 0-0.4 0.1q-0.2 0.1-0.3 0.3q-0.2 0.1-0.3 0.3q-0.5 0.8-0.5 2q0 1.3 0.5 2.1q0.1 0.2 0.3 0.3q0.1 0.1 0.3 0.2q0.2 0.1 0.4 0.2q0.2 0 0.4 0q1.3 0 1.7-1.7zm7.2 0.3l1 0.2q-0.1 0.3-0.2 0.5q-0.1 0.2-0.2 0.4q-0.2 0.2-0.3 0.3q-0.2 0.2-0.4 0.3q-0.8 0.6-1.9 0.6q-1.4 0-2.3-1q-0.9-1-0.9-2.7q0-1.6 0.9-2.7q0.2-0.2 0.5-0.4q0.3-0.2 0.6-0.4q0.3-0.1 0.6-0.2q0.3 0 0.6 0q1.4 0 2.3 0.9q0.8 1 0.8 2.9h-5.1q0 1.6 0.7 2.2q0.6 0.5 1.4 0.5q1.3 0 1.9-1.4zm-0.1-2.1q0-0.6-0.2-1.1q0-0.1-0.1-0.2q-0.1-0.1-0.1-0.2q-0.1-0.1-0.2-0.2q-0.1-0.1-0.2-0.2q-0.4-0.3-1-0.3q-0.2 0-0.4 0.1q-0.2 0-0.4 0.1q-0.2 0-0.3 0.2q-0.2 0.1-0.3 0.2q-0.6 0.6-0.6 1.6c0 0 3.8 0 3.8 0zm1.8 2.4l1.1-0.2q0.3 1.3 2.2 1.3q0.7 0 1.1-0.3q0.2-0.1 0.2-0.2q0.1 0 0.2-0.2q0.1-0.1 0.1-0.2q0-0.1 0-0.3q0-0.8-1.2-1l-1.5-0.3q-0.8-0.2-1.4-0.6q-0.5-0.5-0.5-1.3q0-0.9 0.7-1.5q0.7-0.6 1.9-0.6q2.3 0 2.9 1.8l-1 0.2q-0.5-1.1-1.8-1.1q-0.7 0-1.1 0.3q-0.1 0-0.2 0.1q-0.1 0.1-0.1 0.2q-0.1 0.1-0.1 0.2q-0.1 0.1 0 0.2q0 0.8 1 1l1.4 0.3q2.2 0.4 2.2 2q0 0.3-0.1 0.5q0 0.2-0.1 0.4q-0.1 0.2-0.3 0.4q-0.1 0.2-0.3 0.3q-0.8 0.6-2.2 0.6q-2.5 0-3.1-2z" />
	<path id="Layer" fill-rule="evenodd" class="s2" d="m80.4 24v-1.7q0-0.1 0-0.2q0.1-0.1 0.1-0.1q0.1-0.1 0.2-0.1q0.1-0.1 0.2-0.1h7.5c0.3 0 0.5 0.2 0.5 0.5v1.4c0 0.3-0.2 0.6-0.6 1.1l-3.9 5.6c1.4 0 3 0.2 4.3 0.9c0.3 0.2 0.4 0.4 0.4 0.7v1.8c0 0.2-0.3 0.5-0.6 0.4c-2.3-1.2-5.4-1.4-8 0c-0.2 0.1-0.5-0.2-0.5-0.4v-1.7c0-0.3 0-0.8 0.3-1.2l4.5-6.5h-3.9q-0.1 0-0.2 0q-0.1-0.1-0.2-0.1q0-0.1 0-0.2q-0.1-0.1-0.1-0.1zm-27.1 10.5h-2.3c-0.2 0-0.4-0.1-0.4-0.4v-11.8c0-0.2 0.2-0.4 0.4-0.4h2.2c0.2 0 0.4 0.1 0.4 0.4v1.5c0.6-1.5 1.6-2.2 3.1-2.2c1.4 0 2.3 0.7 3 2.2c0.5-1.5 1.8-2.2 3.1-2.2c1 0 2.1 0.4 2.7 1.3c0.7 1 0.6 2.5 0.6 3.7v7.5c0 0.2-0.2 0.4-0.5 0.4h-2.3c-0.2 0-0.4-0.2-0.4-0.4v-6.3c0-0.5 0.1-1.7 0-2.2c-0.2-0.8-0.7-1-1.4-1c-0.6 0-1.1 0.4-1.4 1c-0.2 0.6-0.2 1.6-0.2 2.2v6.3c0 0.2-0.2 0.4-0.4 0.4h-2.3c-0.3 0-0.5-0.2-0.5-0.4v-6.3c0-1.3 0.3-3.2-1.4-3.2c-1.6 0-1.6 1.9-1.6 3.2v6.3c0 0.2-0.2 0.4-0.4 0.4zm41.1-12.9c3.4 0 5.3 3 5.3 6.7c0 3.6-2.1 6.5-5.3 6.5c-3.3 0-5.1-3-5.1-6.6c0-3.7 1.8-6.6 5.1-6.6zm0.1 2.7c-1.7 0-1.8 2.4-1.8 3.8c0 1.5-0.1 4.2 1.7 4.2c1.8 0 1.9-2.1 1.9-3.7c0-1 0-2.2-0.3-3.1c-0.3-0.8-0.8-1.2-1.5-1.2zm10.1 10.2h-2.3c-0.2 0-0.4-0.2-0.4-0.4v-11.8c0-0.3 0.2-0.4 0.4-0.4h2.2q0 0 0.1 0q0.1 0 0.1 0.1q0.1 0 0.1 0.1q0.1 0 0.1 0.1v1.8c0.7-1.6 1.6-2.4 3.2-2.4c1 0 2 0.4 2.6 1.4c0.7 1 0.7 2.6 0.7 3.7v7.4c-0.1 0.2-0.3 0.4-0.5 0.4h-2.3c-0.2 0-0.4-0.1-0.4-0.4v-6.4c0-1.3 0.1-3.2-1.4-3.2c-0.6 0-1.1 0.4-1.4 1c-0.3 0.7-0.3 1.4-0.3 2.2v6.4c-0.1 0.2-0.3 0.4-0.5 0.4zm-27.6 0c-0.2 0.1-0.4 0.1-0.6 0c-0.7-0.6-0.9-0.9-1.3-1.5c-1.3 1.3-2.2 1.7-3.8 1.7c-1.9 0-3.4-1.2-3.4-3.6c0-1.9 1-3.2 2.4-3.8c1.3-0.5 3-0.6 4.3-0.8v-0.3c0-0.5 0.1-1.2-0.2-1.7c-0.3-0.4-0.9-0.6-1.3-0.6c-0.9 0-1.7 0.5-1.9 1.4c0 0.2-0.2 0.4-0.4 0.4l-2.2-0.2c-0.2 0-0.4-0.2-0.4-0.5c0.6-2.7 3-3.5 5.2-3.5c1.1 0 2.6 0.3 3.5 1.1c1.1 1.1 1 2.5 1 4v3.6c0 1.1 0.4 1.6 0.9 2.1c0.1 0.2 0.1 0.5-0.1 0.7l-1.7 1.5q0 0 0 0zm-2.4-6.1c-1.6 0-3.4 0.3-3.4 2.3c0 1 0.5 1.7 1.4 1.7c0.7 0 1.2-0.4 1.6-1.1c0.5-0.8 0.4-1.5 0.4-2.4c0 0 0-0.5 0-0.5zm-27.6 6.1c-0.2 0.1-0.4 0.1-0.6 0c-0.7-0.6-0.9-0.9-1.3-1.5c-1.2 1.3-2.1 1.7-3.8 1.7c-1.9 0-3.4-1.2-3.4-3.6c0-1.9 1-3.2 2.4-3.8c1.3-0.5 3-0.6 4.4-0.8v-0.3c0-0.5 0-1.2-0.3-1.7c-0.3-0.4-0.8-0.6-1.3-0.6c-0.9 0-1.7 0.5-1.9 1.4c0 0.2-0.2 0.4-0.4 0.4l-2.2-0.2c-0.2 0-0.4-0.2-0.3-0.5c0.5-2.7 2.9-3.5 5.1-3.5c1.1 0 2.6 0.3 3.5 1.1c1.1 1.1 1 2.5 1 4v3.6c0 1.1 0.5 1.6 0.9 2.1c0.1 0.2 0.2 0.5 0 0.7l-1.8 1.5zm-2.3-6.1c-1.7 0-3.5 0.3-3.5 2.3c0 1 0.6 1.7 1.4 1.7c0.7 0 1.3-0.4 1.6-1.1c0.5-0.8 0.5-1.5 0.5-2.4c0 0 0-0.5 0-0.5z" />
</svg>