<svg version="1.2" xmlns="http://www.w3.org/2000/svg" viewBox="0 0 695 185" width="695" height="185">
	<title>dialogflow_light-svg</title>
	<defs>
		<clipPath clipPathUnits="userSpaceOnUse" id="cp1">
			<path d="m140.61 39.54q1.15 1.14 1.97 2.55q0.82 1.4 1.24 2.97q0.43 1.57 0.44 3.2v67.93q0 1.62-0.42 3.18q-0.42 1.57-1.23 2.97q-0.81 1.4-1.95 2.55q-1.15 1.15-2.55 1.96l-95 54.82c-0.56 0.32-1.2 0.49-1.85 0.49c-0.64 0-1.28-0.17-1.84-0.49c-0.57-0.32-1.03-0.79-1.36-1.35c-0.32-0.56-0.5-1.19-0.5-1.84v-34.66l-29.41-17q-1.4-0.82-2.55-1.96q-1.14-1.15-1.95-2.55q-0.81-1.4-1.23-2.97q-0.42-1.56-0.42-3.18v-67.89q0-1.63 0.42-3.19q0.42-1.57 1.23-2.98q0.81-1.41 1.95-2.56q1.15-1.15 2.55-1.96l58.79-33.92q1.41-0.82 2.97-1.24q1.57-0.42 3.2-0.42q1.62 0 3.19 0.42q1.56 0.42 2.97 1.24l58.78 33.92q1.41 0.81 2.56 1.96z" />
		</clipPath>
	</defs>
	<style>
		.s0 { fill: #ef6c00 } 
		.s1 { fill: #ff9800 } 
		.s2 { fill: #ffffff } 
	</style>
	<g id="Clip-Path" clip-path="url(#cp1)">
		<g id="Layer">
			<path id="Layer" class="s0" d="m144.2 123.3l-106.6 61.5v-41l-35.6-20.5v-82.1l71.1 41l71.1-41z" />
			<g id="Layer">
				<path id="Layer" class="s1" d="m73.1 82.2l-71.1-41l71.1-41.1l71.1 41.1z" />
				<path id="Layer" class="s1" d="m142.5 40.2l1.7 1l-71.1 41l-71.1-41l0.4-0.3l69.5 40.1z" />
				<path id="Layer" class="s1" d="m2 41.7l0.5-0.3l70.6 40.8v0.5z" />
			</g>
		</g>
	</g>
	<path id="Layer" fill-rule="evenodd" class="s2" d="m674.3 123.1h-10.6l-13.7-42.4l-13.7 42.4h-10.5l-17.8-55.3h10.8l12.3 41.8h0.1l13.7-41.8h10.7l13.6 41.8h0.2l12.2-41.8h10.6zm-116.6-48.6q8-8.4 20.4-8.4q12.4 0 20.4 8.4q8 8.4 8 21q0 12.6-8 21q-8 8.4-20.4 8.4q-12.4 0-20.4-8.4q-8-8.4-8-21q0-12.6 8-21zm7.7 35.5c1.6 1.7 3.6 3.1 5.8 4c2.2 1 4.5 1.5 6.9 1.5c2.4 0 4.7-0.5 6.9-1.5c2.2-0.9 4.1-2.3 5.8-4q5.3-5.5 5.3-14.5q0-9-5.3-14.5c-1.7-1.7-3.6-3.1-5.8-4c-2.2-1-4.5-1.5-6.9-1.5c-2.4 0-4.7 0.5-6.9 1.5c-2.2 0.9-4.2 2.3-5.8 4q-5.4 5.5-5.4 14.5q0 9 5.4 14.5zm-23.7 13.1h-10.3v-80.7h10.4zm-26.5-81.4q1-0.1 2.1 0q1 0.1 2.1 0.3q1 0.2 2 0.5q1.1 0.2 2.1 0.6l-3.6 8.9q-0.6-0.2-1.2-0.4q-0.6-0.2-1.2-0.3q-0.6-0.1-1.2-0.1q-0.6-0.1-1.2-0.1q-0.9 0-1.8 0.1q-0.9 0.2-1.8 0.5q-0.8 0.3-1.6 0.8q-0.8 0.5-1.4 1.1q-2.6 2.4-2.6 7v7h14.4v9.4h-14.4v45.9h-10.4v-45.8h-10.3v-9.5h10.3v-7.3q0-8.5 5.4-13.5q5.5-5.1 14.3-5.1zm-66.4 107.3q-9.8 0-16-4.9q-1.4-1.1-2.7-2.3q-1.3-1.3-2.4-2.7q-1.2-1.4-2.1-3q-1-1.5-1.7-3.2l9.5-3.9q0.4 1.1 1 2.2q0.6 1 1.3 2q0.7 1 1.6 1.8q0.9 0.8 1.9 1.5q1 0.8 2.2 1.3q1.1 0.6 2.4 1q1.2 0.4 2.5 0.6q1.2 0.1 2.5 0.1q8.6 0 13.5-5.1q4.9-5.1 4.9-13.9v-5.3h-0.4q-0.8 1-1.6 2q-0.9 1-1.8 1.8q-1 0.9-2.1 1.6q-1.1 0.7-2.2 1.3q-1.3 0.7-2.6 1.2q-1.4 0.6-2.8 0.9q-1.4 0.3-2.9 0.5q-1.4 0.2-2.9 0.1q-10.7 0-18.5-8.4q-7.7-8.5-7.7-21q0-12.5 7.7-21q7.8-8.5 18.5-8.5q1.5 0 2.9 0.2q1.5 0.1 2.9 0.5q1.4 0.3 2.8 0.8q1.3 0.5 2.6 1.2q1.1 0.6 2.2 1.4q1.1 0.7 2.1 1.5q0.9 0.9 1.8 1.9q0.8 0.9 1.6 2h0.4v-7.7h9.9v52.5q0 14.2-8.2 21.6q-2 1.8-4.4 3.2q-2.3 1.5-4.9 2.4q-2.6 1-5.3 1.4q-2.7 0.5-5.5 0.4zm0.8-33.8q1.8 0 3.5-0.3q1.7-0.4 3.3-1.1q1.6-0.7 3.1-1.7q1.4-1 2.6-2.3q5.1-5.4 5.1-14.5q0-9.2-5.1-14.6c-1.6-1.7-3.5-3.1-5.7-4c-2.1-0.9-4.4-1.4-6.8-1.4c-2.3 0-4.6 0.5-6.8 1.4c-2.1 1-4 2.3-5.6 4.1q-5.2 5.4-5.2 14.5q0 9 5.2 14.4q1.2 1.3 2.6 2.4q1.4 1 3 1.7q1.6 0.7 3.3 1.1q1.8 0.3 3.5 0.3zm-84.1-41q8-8.4 20.4-8.4q12.4 0 20.4 8.4q8 8.4 8 21q0 12.6-8 21q-8 8.4-20.4 8.4q-12.4 0-20.4-8.3q-8-8.4-8-21q0-12.6 8-21.1zm7.7 35.5c1.6 1.8 3.6 3.1 5.8 4.1c2.2 0.9 4.5 1.4 6.9 1.4c2.4 0 4.7-0.5 6.9-1.4c2.2-1 4.1-2.3 5.8-4.1q5.3-5.4 5.3-14.5q0-9-5.3-14.4c-1.7-1.8-3.6-3.2-5.8-4.1c-2.2-0.9-4.5-1.4-6.9-1.4c-2.4 0-4.7 0.5-6.9 1.4c-2.2 0.9-4.2 2.3-5.8 4.1q-5.4 5.4-5.4 14.4q0 9.1 5.4 14.5zm-24.6 13.2h-10.4v-80.8h10.4zm-47.6 1.8q-2 0.1-4-0.2q-2-0.3-3.9-1q-1.9-0.6-3.6-1.6q-1.7-1-3.3-2.3q-1.4-1.2-2.6-2.7q-1.1-1.5-1.9-3.3q-0.7-1.7-1.1-3.6q-0.3-1.9-0.3-3.8q-0.1-2 0.4-4.1q0.4-2 1.3-3.8q0.9-1.9 2.3-3.5q1.3-1.5 3-2.7q7-5.2 17.3-5.2q9.1 0 15 3.4v-1.6q0-1.3-0.2-2.7q-0.3-1.3-0.8-2.6q-0.6-1.3-1.4-2.4q-0.8-1.1-1.8-2q-1.1-0.9-2.3-1.6q-1.2-0.7-2.5-1.2q-1.3-0.5-2.7-0.7q-1.4-0.2-2.8-0.2q-1 0-2.1 0.1q-1.1 0.2-2.1 0.4q-1 0.3-2 0.7q-1 0.4-1.9 1q-0.9 0.4-1.7 1.1q-0.7 0.6-1.4 1.3q-0.6 0.8-1.1 1.6q-0.5 0.9-0.8 1.8l-9.5-4q1.9-5 7.6-9.2q5.6-4.2 14.8-4.3q10.6 0.1 17.6 6.2q7 6.3 7 17.5v33.4h-9.9v-7.7h-0.4q-6.3 9.5-18.2 9.5zm1.7-9.4q1.6-0.1 3.2-0.4q1.6-0.3 3.1-0.9q1.5-0.7 2.8-1.5q1.4-0.9 2.5-2.1q1.3-1 2.2-2.3q1-1.3 1.7-2.8q0.7-1.4 1-3q0.4-1.6 0.4-3.2q-4.4-3.6-13.2-3.6q-7.6 0-11.4 3.3q-0.9 0.6-1.6 1.5q-0.7 0.8-1.2 1.8q-0.5 1-0.8 2.1q-0.2 1.1-0.2 2.2q-0.1 1 0.2 1.9q0.2 1 0.6 1.8q0.5 0.8 1.2 1.5q0.6 0.7 1.5 1.3q0.8 0.5 1.8 1q1 0.5 2 0.8q1 0.3 2 0.4q1.1 0.2 2.2 0.2zm-32.2-61.5c-2.5 2.5-6.4 2.9-9.3 0.9c-2.9-1.9-4-5.7-2.7-8.9c1.3-3.2 4.8-5.1 8.2-4.4c3.5 0.7 5.9 3.7 5.9 7.2q0.1 0.7-0.1 1.4q-0.1 0.7-0.4 1.4q-0.3 0.7-0.7 1.3q-0.4 0.6-0.9 1.1zm0 69.1h-10.3v-55.2h10.3zm-84.4 0v-80.8h24.7q18.6 0 29.8 11.2q11.2 11.3 11.2 29.2q0 17.9-11.2 29.1q-11.2 11.3-29.8 11.3zm10.4-10h14.3q14 0 22.2-8q8.1-8 8.2-22.4q0-14.3-8.2-22.4q-8.2-8.1-22.2-8h-14.3z" />
</svg>