<svg version="1.2" xmlns="http://www.w3.org/2000/svg" viewBox="0 0 120 60" width="120" height="60">
	<title>flask_light-svg</title>
	<style>
		.s0 { fill: #ffffff } 
	</style>
	<path id="Layer" fill-rule="evenodd" class="s0" d="m20.6 47c-1.8-1.4-3.7-2.7-5-4.6c-2.7-3.4-4.8-7.2-6.3-11.3c-0.8-2.6-1.1-5.4-2.2-8c-1.2-1.8 0.2-3.8 2.2-4.4c0.9-0.2 2.5-1 0.5-0.4c-1.7 1.2-1.8-1.2-0.1-1.3c1.2-0.2 1.7-1.2 1.2-2c-1.2-0.9 3.2-1.8 0.9-3c-2.3-2.5 3.3-3 1.9-0.2c-0.3 2.2 3.9-0.4 2.9 2.1c1 1.2 3.7 0.3 3.6 2c1.5 0.1 2 1.3 3.3 1.4c1.4 0.6 4 1.1 4.4 2.7c-1.4 1.1-4.6-2.3-4.7 0.8c0.4 4.5 0.3 9.1 1.9 13.4c0.8 2.6 2.7 4.6 4.4 6.6c1.6 2 3.8 3.4 6.1 4.6c2 0.9 4.1 1.5 6.2 1.9c0.9-0.7 2.5-3.2 3.8-2.1c0.1 1.2-2.7 2.5-0.1 2.3c1.5-0.4 2.5 1.2 3.8-0.3c1.1 1.4 4.7-0.8 3.9 1.9c-1.1 0.7-2.7 0.3-3.8 1.3c-1.8-0.9-3.3 0.8-5.3 0.6c-2.2 0.4-4.5 0.5-6.7 0.6c-3.8-0.3-7.6-0.5-11.1-1.8c-2-0.5-4-1.7-5.7-2.8zm3.1 1.4c2 0.8 3.9 1.7 6 1.9c3.4 0.5 6.9 1.2 10.3 0.6c-1.5-0.7-3.1 0.3-4.7-0.5c-1.8 0.4-3.8-0.1-5.6-0.4c-2.2-0.9-4.5-1.6-6.4-2.8c-2.5-0.9 1.2 1.2 1.9 1.3c1.6 0.9-1.7-0.4-2.2-0.8c-1.3-0.7-1.4-0.6-0.1 0.2q0.4 0.2 0.8 0.5zm-3.7-2.7c1.9 0.7 0-1.3-0.8-1.2c-0.4-0.6-1.5-1.1-0.7-1.4c-1.4 0.5-1.5-1.8-2.1-1.5c-1.5-0.5-0.6-2.1-2.3-3.1c-0.2-1-1.7-1.9-2.2-3.5c-0.2-0.8-1.8-3.2-0.8-1c0.8 2.1 2.2 3.9 3.4 5.7c0.9 1.7 2 3.4 3.6 4.5c0.6 0.5 1.1 1.4 1.9 1.5zm9.8 1.2q0 0 0 0q0 0 0 0zm2.6 0.3c1.5-1.2-1.3 1.3 0.5 0.2c1.4-1 3.4 0.4 4.7 0.8c0.9 0 1.8 0.8 2.7 0.3c1.8-0.5-3.5-0.7-2.1-1.6c-1.7 0.5-2.9-0.5-3.7-1.6c-1.8-0.4-4-1.4-4.9-3c-0.4-0.6 0.6 0.1-0.3-0.9c-1.1-1-1.7-2.1-2.4-3.3c-0.9-0.5-1-1.9-1.1-0.1c0-1.1-1.1-1.9-1.4-1.6c0-1.1 1.2-0.5 0.4-1.4c-0.2-1.1-0.8-2.3-0.9-3.6c-0.3-0.6-0.1-2-1-0.6c-0.3 1.5-0.1-1.8 0.4-0.7c0.7-1.1-0.1-1-0.2-0.9c0.4-0.9 0.2-2.2-0.1-1.7c0.2-1 0.3-3.7-0.4-3.2c0.4-1.1 0.8-4.9-1-3.4c-0.8 0-2.1 0.3-2.7 0.6c1.9 1-0.2 0.3-1 0.2c-0.1 0.9-0.8 0.5-1.8 0.5c1.6 0.2-0.7 1.6-1.6 1.1c-1.2 0.5 1 1.9 0 2.3c0.1 0.7-1.8-0.2-1.6 1.3c-1.1-0.5-0.2 1.7 0.4 1c1.9 0.5 1.3 1.7 1.4 2.8c-0.3 0.6-1.6-1.6-0.3-1.5c-1-1.6-1.1-0.5-1.9 0.2c-0.2 0.1 2.1 1.1 0.6 1.6c1.3 0.2 1.3 1.3 1.6 2c0.8 0.8 0.6-0.9 1.5 0.1c-0.6-0.9-3-2.4-1-1.9c-0.1-0.9-0.4-1.6 0.2-1.6c0.6-1.1-0.6 2.7 0.7 1.3c0.4-0.1 0.5-1.1 1.2 0.1c1 1 0.3 1.7-1 0.8c0.2 0.9 1.8 1.2 1.5 2.5c0.3 1.1 0.8 0.7 1.2 0.6c0.3 1.2 0.5 0.3 0.5-0.2c1.4 0.3 1 1.1 1.5 1.7c0.9 0.4-1.4-3 0.3-1c1.6 1.4 0.8 2.1-0.6 2c0.7 0.2 1.1 1.3 2.2 1.3c1.1 0.5 1.9 2.6-0.1 1.7c-0.6-0.6-3-1.4-1.1-0.2c1.8 0.8 3.3 1.3 5 2.4c1.3 0.9 1.8 1.9 2.3 2.1c-1.1 0.5-3.2-0.4-1.6-0.7c-1-0.1-2.1-0.6-1.2 0.6c0.8 0.6 2.9 0.6 3.2 0.7c-0.3 0.6-0.8 0.7 0 0.7c-0.9 0.5 0.3 0.6 0.4 0.9c1.5-0.9 1 2.1 2.6 0.3zm-9.3-18q0 0.1 0 0.1q0 0 0-0.1zm-2.4 8.2q-0.2-0.1-0.4 0q0.2 0 0.4 0zm7.6 11.8c0.8 0.5 4.6 1.1 2.2 0.2c-0.4 0.1-4.3-1.1-2.2-0.2zm-8.5-6.9c0.9 0.7 3.7 0.1 1.4-0.4c-1-0.6-3.4-0.9-1.8 0.3l0.4 0.1zm4.4 2.3c2.2 0.7-1.9-1.4-0.5-0.2l0.2 0.1c0 0 0.3 0.1 0.3 0.1zm-5.2-4.9c0.7 0.5 2.5 1.4 1 0.2c0.5-0.6-1-0.9-0.5-1.3c-1.3-0.8-1-0.7-0.1-0.7c-1.6-0.7 0.2-0.6 0.1-1c-0.6-0.1-2.9-1-1.5 0.1c-1.5-0.7-0.4 0.3-0.8 0.2c-1.5-0.4 1.3 1.1-0.2 0.7c0.8 0.6 2.2 1.7 0.3 0.7c-0.2 0.3 1.4 0.9 1.7 1.1zm5.2 3.8c1.6 0.2-1.9-1.1-0.3-0.2zm3.6-2c-0.5-0.6-0.7-1.7-0.1-0.7c0.4 0.1 1.1 1.8 0.1 0.7zm-12.3-6.6q0 0 0 0q0 0 0-0.1zm2.2 0.2c-0.9-0.3-0.3-2.5-1.3-2.1c0.7 1 0.5 1.5-0.8 0.8c-1.6-0.8-0.9 0.4-0.6 0.7c-0.4 0.1 0.5 0.4 0.5 0.4c1 0.3 4 2.5 2.2 0.2zm6.5 0.4c-0.7-1.5 0.4-0.8 0.1 0.3zm-6.3-4.2c-0.3-0.5-0.8-2-0.7-2.5c0.2 0.8 1.6 3.2 0.7 1c-0.9-1.8 1.2 0.6 1.4 1.1c0.1 0.4-0.6-0.1-0.1 0.9c-0.9-1.2-0.5 0.7-1.3-0.5zm-3.2-2.7c-0.7-0.7-1.2-1.4 0-0.5c0.5 0.1-1.1-1.5 0.2-0.4c1.2 0.2 0.6 2.1-0.2 0.9zm0.4-1.1c-2.1-1.9 2.7 1 0.4 0.3zm6 3.5c-0.9-0.5-0.2-3.8 0.1-1.5c0.9-0.3 0 1.1 0.6 1.1c-0.1 0.9-0.4 1.3-0.7 0.4zm-5.6-4.1c-1.4-1.9 3.9 1.9 0.8 0.5c-0.3-0.1-0.7-0.1-0.8-0.5zm0.2-0.7c0.8-0.2 3.3 1.4 1 0.4c-0.3-0.2-0.8-0.1-1-0.4zm6.9 3.4c0.1-1.6 0.5-0.9 0 0.3zm-6.3-4c0.3-0.5-0.9-2.2 0.1-0.6c0.5 0.3 1.3 0.6 0.6 0.7c1.2 1.1-0.3 0.3-0.7-0.1zm5.2-0.9c-0.4-0.8 0.5-3.3 0.7-1.7c-0.5 1.2-0.2 1.9 0.1 0.2c0.6-1.2-0.1 2.6-0.8 1.5zm-13.3-1.2c-0.2-1.1-0.2-2.9 1.6-2.3c-2.3 0.5 1.6 2.9 1.1 1c0.9 0 1.9-0.6 1.4 0.3c1.9-0.2 3.2-1.8 5.1-1.6c1.4-0.2 3-0.3 4.6-0.9c1.2-0.1 2.5-1.5 1.8-2.3c-1.8-0.2-3.6 0.1-5.5 0.5c-2.2 0.4-4.1 1.2-6.3 1.6c-2.1 0.3 0.4 0.8-0.2 0.9c-1.1 0.4 1.3 0.6-0.1 1c-0.9-0.1-1.8-0.4-1.5-1.4c-2 0.3-3.7 1.1-2.1 3.2h0.1zm15 19.2c1.2 0.3 1.2-0.2 0.1-0.3c-0.5-0.6-2.4-1.2-0.7-0.1c0.1 0.3 0.4 0.3 0.6 0.4zm10.8 6c0.6-0.7 0 0.9 1-0.2c0-0.8 0-1.3-1.1-0.3c-0.4 0.2-0.5 0.9 0.1 0.5zm-10.4-6.7c0.7 0.6 3.3 0.5 0.9 0.1c-0.4-0.5-2.3-0.4-0.9-0.1zm-11.6-7.8c-1-1.4-0.6-2.1-1.6-3.3c-0.2-0.9-1.7-3-0.8-0.8c0.8 1.3 1.1 3.3 2.4 4.1zm24.8 14.9c1-0.7-0.3-0.6-0.2 0zm1.7 0.5c1.4-1-0.8-0.2-0.3 0.2zm-27.6-18.3c0.2-0.7-1.7-4.1-0.9-1.7c0.3 0.5 0.3 1.5 0.9 1.7zm31.5 17.4c1-0.2 3.2 0.5 3.6-0.3c-1.2 0-4.2-0.8-4.3 0.2l0.2 0.1c0 0 0.5 0 0.5 0zm-31.1-21.7c1-0.4-1.8-0.8-0.2 0zm1.7-6c0.5-1.8 2.6 1.4 0.8 0.2c-0.2-0.2-0.5-0.3-0.8-0.2zm1-0.9c0.1-0.8 2 0.5 0.3 0.3zm1.5-0.6c0.7-0.9 4.1-0.6 1.6-0.1c-0.6-0.5-1.1 0.3-1.6 0.1zm5.6-0.7c0.5-1.2 1.8-0.5 0.2-0.3c0.1 0.2 0 0.6-0.2 0.3zm29.3 29.8c1.1 0 3.3-0.3 0.9-0.3c-0.4 0-2.2 0-0.9 0.3zm-37.4-23.7c0.9-0.1 1.4-1-0.2-0.9c-2.4-0.3 2.1 0.8-0.3 0.5c-0.3 0.2 0.5 0.4 0.5 0.4zm-1.2-7c1.4-0.4 3.3-1 4.2 0c-0.4-0.8 0-1.3 0.6-0.2c0.9 1.2 1.4-0.2 1.1-0.8c0.6 0.8 1.3 1 0.3-0.2c1.2-1.4-2.4 0.2-3.2 0.2c-0.4 0.2-4 0.9-3 1zm4.2 0q0.1 0.2 0.2 0.3q-0.1-0.2-0.2-0.3zm1.7-1q-0.1-0.1-0.2-0.2q0.1 0.1 0.2 0.2zm-5-0.7c0.9-0.7 3.1 0.4 1.7-0.7c-0.2-0.1-3.1 0.8-1.7 0.7zm3.2 0.1c1.1 0-0.4-1.4 0.8-0.7c-0.2-0.7-1.4-0.8-2-1.1c-0.4 0.6 0.7 1.8 1.2 1.8zm-1.3-2.6c1.7-0.2-0.4-0.7-0.4 0zm-2.4-2c-1.2-1.5 2.2 0.3 1-1.3c-1-0.9-2 0.9-1 1.3zm15.2 8.2c0.5-0.9-2.3-1.3-0.4-0.3c0.2 0 0.2 0.4 0.4 0.3zm28 0.3q-0.3 1.1-0.3 3.7q0 0.5-0.5 0.5q-0.5 0-0.7-0.5q-0.4-1.2-0.9-1.6q-0.5-0.6-1.4-0.7q-0.9-0.2-4.7-0.2q-0.8 0-1.1 0.2q-0.2 0.1-0.2 0.5v7.5q0 0.4 0.5 0.3l4.3-0.2q0.5 0 0.7-0.3q0.2-0.3 0.4-1.5q0.1-0.7 0.7-0.5q0.6 0.1 0.5 0.5q-0.4 2.2-0.3 5.8q0 0.5-0.5 0.5q-0.5 0-0.6-0.5q-0.4-2-1.6-2.2q-1.2-0.1-3.8-0.1q-0.3 0-0.3 0.2v7.4q0 0.8 0.6 1.1q0.5 0.3 2.1 0.5q0.8 0.1 0.7 0.7q-0.1 0.5-1.5 0.4q-3.9-0.3-6.4 0q-0.7 0.1-0.7-0.5q0-0.5 0.7-0.5q1.6-0.2 1.6-2.9v-14.1q0-1.1-0.4-1.7q-0.4-0.6-1.4-1q-0.7-0.3-0.5-0.8q0.1-0.4 0.2-0.4q0.2 0 0.9 0.1q1.1 0.1 4.9 0.1l7.9-0.2q1.1 0 1.1 0.2q0 0.1 0 0.2zm10.7 20.9q0 0.7-0.8 0.6q-2.2-0.2-5.6 0q-0.7 0.1-0.8 0q-0.2-0.1-0.2-0.5q0-0.4 0.9-0.7q0.9-0.3 0.9-1.6v-15q0-1.3-0.4-1.9q-0.4-0.7-1.3-1q-0.6-0.2-0.6-0.5q0-0.5 0.8-0.8q1.1-0.3 2.3-1.1q1-0.6 1.3-0.6q0.6 0 0.6 0.9q0 0.2-0.1 0.4q0 0.2 0 0.4q0 0.2 0 0.4q0 0.2 0 0.4v3.2v14.8q0 1 0.5 1.4q0.5 0.5 1.7 0.6q0.8 0.1 0.8 0.6zm14.9-1q0 0.4-1.3 1.1q-1.2 0.7-2 0.7q-0.6 0-1.1-0.7q-0.5-0.6-0.7-0.6q-0.2 0-1.6 0.7q-1.4 0.7-2.8 0.7q-1.4 0-2.3-0.8q-1-0.9-1-2.4q0-2.9 6.5-4.1q1.2-0.2 1.2-0.9v-1.1q0.1-2.7-2.4-2.7q-0.7 0-1.3 1.3q-0.7 1.3-1.9 1.4q-1.3 0.1-1.3-1.2q0-0.8 2-1.8q2.1-1.1 4.1-1.1q3.3 0 3.3 3.2l-0.1 6.7q0 1.1 0.9 1.1q0.2 0 0.7-0.1h0.6q0.5 0 0.5 0.6zm-5.1-3.8q0-0.4-0.2-0.5q-0.2-0.1-0.6-0.1q-4 0.8-4 2.6q0 1.9 2 1.9q0.9 0 1.7-0.3q1.1-0.3 1.1-0.8v-2.7zm17.3 1.8q0 1.8-1.3 2.8q-1.3 1-3.7 1q-0.4 0-0.8 0q-0.3 0-0.7-0.1q-0.4 0-0.8-0.1q-0.4 0-0.8-0.1q-1.3-0.3-1.5-0.6q-0.2-0.2-0.2-2.2q0-0.9 0.4-0.9q0.4-0.1 0.7 0.4q1.2 2.2 4 2.2q2.3 0 2.3-1.6q0-0.8-0.5-1.2q-0.6-0.6-2.2-1.3q-2.5-1.1-3.3-1.9q-0.8-0.8-0.8-2.3q0-1.8 1.3-2.8q1.3-0.9 3.4-0.9q0.3 0 0.6 0q0.4 0 0.7 0q0.3 0.1 0.6 0.1q0.3 0 0.6 0.1q1.2 0.2 1.2 0.5q0.1 1 0.6 2.7q0 0.2-0.5 0.3q-0.5 0.2-0.7-0.1q-1.3-2.2-3.3-2.2q-2.3 0-2.3 1.5q0 0.8 0.6 1.3q0.6 0.4 2.6 1.3q2.1 0.9 2.8 1.6q1 0.9 1 2.5zm19.4 2.9q0 0.6-0.7 0.6l-3.1 0.2q-0.9 0.2-1.3-0.3q-2.6-2.8-4.4-5.8q-0.1-0.3-0.4-0.3q-0.2 0-0.9 0.5q-0.8 0.4-0.8 1.2v1.6q0 1.1 0.5 1.4q0.4 0.3 1.6 0.4q0.8 0.1 0.8 0.6q0 0.3-0.1 0.4q-0.1 0.1-0.7 0.1q-1.6-0.2-5.5 0.1q-1 0.1-1.1-0.2q0-0.1 0-0.3q0-0.5 1-0.8q0.9-0.2 0.9-2.1v-14.5q0-1.3-0.3-1.8q-0.4-0.7-1.5-1.1q-0.6-0.2-0.6-0.5q0-0.5 0.8-0.7q0.3-0.1 0.6-0.3q0.3-0.1 0.6-0.2q0.3-0.2 0.6-0.3q0.3-0.2 0.6-0.4q0.9-0.6 1.1-0.6q0.7 0 0.7 0.9q0-0.1 0 1.6l-0.1 3.3l0.1 10.3q0 0.4 0.2 0.4q0.3 0 0.8-0.4l3.3-2.8q0.4-0.4 0.4-0.7q0-0.4-1.3-0.6q-0.6-0.1-0.5-0.7q0-0.5 0.5-0.4q1.2 0.1 3.5 0.1h3.1q0.5 0.1 0.5 0.6q0 0.6-0.8 0.6q-1.2 0.1-2.4 0.6q-1.5 0.7-3.3 2.5q-0.1 0.1-0.1 0.3q0 0.2 0.5 1.1q2.1 3.1 3.9 4.7q1.2 1 2.2 1q0.8 0 0.9 0.1q0.2 0.1 0.2 0.6z" />
</svg>