<svg version="1.2" xmlns="http://www.w3.org/2000/svg" viewBox="0 0 120 60" width="120" height="60">
	<title>git_light-svg</title>
	<style>
		.s0 { fill: #f03c2e } 
	</style>
	<path id="Layer" fill-rule="evenodd" class="s0" d="m77.8 26.4c0.5 0.7 1.1 1.7 1.1 3.1c0 3.4-2.7 5.4-6.6 5.4c-1 0-1.8-0.1-2.4-0.3l-1 1.7l3 0.2c5.4 0.3 8.5 0.5 8.5 4.6c0 3.5-3.1 5.5-8.5 5.5c-5.6 0-7.7-1.4-7.7-3.9c0-1.3 0.6-2.1 1.7-3.1c-1-0.4-1.4-1.2-1.4-2c0-0.7 0.4-1.3 0.9-1.9l1.9-1.9c-1.5-0.7-2.6-2.3-2.6-4.6c0-3.6 2.3-6 7.1-6c1.3 0 2.1 0.1 2.8 0.3h6v2.6c0 0-2.8 0.3-2.8 0.3zm-9.2 14.1c-0.4 0.5-0.8 1-0.8 1.6c0 1.2 1.6 1.6 3.8 1.6c1.8 0 4.2-0.1 4.2-1.8c0-1-1.2-1.1-2.7-1.1l-4.5-0.4zm3.4-14.1c-1.7 0-2.9 0.8-2.9 2.8c0 1.5 0.8 2.6 2.8 2.6c1.8 0 3-1.1 3-2.7c0-1.8-1.1-2.7-2.9-2.7zm14.1-5.6c-1.8 0-2.8-1-2.8-2.8c0-1.7 1-2.7 2.8-2.7c1.8 0 2.8 1 2.8 2.7c0 1.8-1 2.8-2.8 2.8zm-4 18.6v-2.4l1.6-0.2c0.4-0.1 0.4-0.2 0.4-0.7v-9.1c0-0.3 0-0.5-0.4-0.6l-1.6-0.6l0.3-2.5h6.4v12.8c0 0.5 0 0.6 0.5 0.7l1.6 0.2v2.4c0 0-8.8 0-8.8 0zm21-1.2c-1.3 0.7-3.3 1.3-5 1.3c-3.7 0-5.1-1.5-5.1-5v-8.1c0-0.2 0-0.3-0.2-0.3h-2.2v-2.8c2.7-0.3 3.8-1.6 4.2-5h2.9v4.4c0 0.2 0 0.3 0.2 0.3h4.4v3.1h-4.6v7.3c0 1.9 0.4 2.6 2.1 2.6c0.8 0 1.7-0.2 2.5-0.5c0 0 0.8 2.7 0.8 2.7z" />
	<path id="Layer" class="s0" d="m51.3 29.1q0.2 0.5 0.2 1.1q0 0.5-0.2 1q-0.2 0.5-0.6 0.9l-18.5 18.5c-1 1-2.8 1-3.8 0l-18.6-18.6q-0.4-0.4-0.6-0.9q-0.2-0.5-0.2-1q0-0.5 0.2-1q0.2-0.6 0.6-0.9l12.7-12.7l4.9 4.8q-0.2 0.4-0.3 0.9q0 0.5 0.1 1q0.1 0.4 0.3 0.9q0.2 0.4 0.6 0.7q0.4 0.5 1 0.7v11.7q-0.1 0.1-0.3 0.1q-0.1 0.1-0.2 0.2q-0.2 0.1-0.3 0.2q-0.1 0.1-0.2 0.2c-1.3 1.3-1.3 3.3 0 4.6q0.4 0.5 1 0.7q0.6 0.3 1.3 0.3q0.6 0 1.2-0.3q0.6-0.2 1.1-0.7c1.2-1.3 1.2-3.3 0-4.6q-0.4-0.4-0.9-0.6v-11.6l4.4 4.4c-0.5 1.2-0.3 2.6 0.7 3.6q0.3 0.3 0.7 0.5q0.3 0.2 0.7 0.3q0.4 0.1 0.9 0.1q0.4 0 0.8-0.1q0.9-0.2 1.5-0.8q0.6-0.7 0.8-1.5q0.2-0.8 0-1.7q-0.2-0.8-0.8-1.4c-0.9-0.9-2.3-1.2-3.4-0.8l-4.7-4.7q0.2-0.4 0.2-0.9q0-0.5-0.1-0.9q-0.1-0.5-0.3-0.9q-0.2-0.4-0.6-0.7c-0.9-0.9-2.2-1.1-3.3-0.8l-4.9-4.8l3.9-3.9c1-1 2.8-1 3.8 0l18.6 18.6q0.4 0.3 0.6 0.8z" />
</svg>