<svg version="1.2" xmlns="http://www.w3.org/2000/svg" viewBox="0 0 120 60" width="120" height="60">
	<title>jenkins_light-svg</title>
	<style>
		.s0 { fill: #000000 } 
		.s1 { fill: #ef3d3a } 
		.s2 { fill: #231f20 } 
		.s3 { fill: #f0d6b7 } 
		.s4 { fill: #335061 } 
		.s5 { fill: #6d6b6d } 
		.s6 { fill: #dcd9d8 } 
		.s7 { fill: #f7e4cd } 
		.s8 { fill: #49728b } 
		.s9 { fill: #ffffff } 
		.s10 { fill: #d33833 } 
		.s11 { fill: none } 
		.s12 { fill: #81b0c4 } 
		.s13 { fill: #1d1919 } 
	</style>
	<g id="Layer">
		<path id="Layer" class="s0" d="m36.6 28.9c0 9.1-7.2 16.4-16 16.4c-8.9 0-16-7.3-16-16.4c0-9 7.1-16.3 16-16.3c8.8 0 16 7.3 16 16.3z" />
		<path id="Layer" class="s1" d="m4.7 31.3l-0.3-3.2l1.2-4.7l2.1-4.1l2.5-2.8l8.5-2.9l1.1 1.8c-15.7 0.5-14.6 17.6-14.6 17.6" />
		<path id="Layer" fill-rule="evenodd" class="s2" d="m8.9 40.9c-3-3-4.8-7.3-4.8-11.9c0-4.7 1.8-8.9 4.8-11.9c3-3.1 7.1-5 11.7-5c4.5 0 8.7 1.9 11.6 5c3 3 4.9 7.2 4.9 11.9c0 4.6-1.9 8.9-4.9 11.9c-2.9 3.1-7.1 5-11.6 5c-4.6 0-8.7-1.9-11.7-5zm0.7-23.1c-2.8 2.8-4.5 6.8-4.5 11.2c0 4.4 1.7 8.4 4.5 11.2c2.8 2.9 6.7 4.7 11 4.7c4.2 0 8.1-1.8 10.9-4.7c2.8-2.8 4.6-6.8 4.6-11.2c0-4.4-1.8-8.4-4.6-11.2c-2.8-2.9-6.7-4.7-10.9-4.7c-4.3 0-8.2 1.8-11 4.7z" />
		<g id="Layer">
			<path id="Layer" fill-rule="evenodd" class="s3" d="m27.3 29l-2.4 0.4l-3.3 0.4h-2.2h-2l-1.6-0.5l-1.4-1.6l-1.1-3.1l-0.3-0.6l-1.4-0.5l-0.9-1.5l-0.6-2l0.7-1.7l1.6-0.6l1.2 0.6l0.7 1.4l0.7-0.1l0.2-0.3l-0.2-1.4l-0.1-1.8l0.4-2.4v-1.4l1.1-1.8l2-1.4l3.4-1.5l3.7 0.6l3.3 2.4l1.6 2.4l0.9 1.8l0.3 4.4l-0.7 3.7l-1.4 3.4l-1.3 1.8" />
			<path id="Layer" fill-rule="evenodd" class="s4" d="m25.2 39.6l-8.7 0.3v1.5l0.7 5.1l-0.3 0.4l-6.1-2l-0.4-0.8l-0.7-6.8l-1.4-4.2l-0.3-1l4.9-3.3l1.5-0.6l1.4 1.6l1.1 1.1l1.4 0.4l0.6 0.2l0.7 3.1l0.6 0.7l1.4-0.5l-1 1.9l5.3 2.5c0 0-0.7 0.4-0.7 0.4z" />
			<path id="Layer" fill-rule="evenodd" class="s5" d="m10.5 16.2l0.4-1.9l1.2-1.7l0.8-1.7l1.4-1.1l3.4-1.6l0.6 0.9l-2.3 1.9l-1.1 1.3l0.3 1.8l-0.4 3.3l0.4 1.4l-0.2 0.8l-0.7 0.1l-0.7-1.3l-1.2-0.7l-1.6 0.6c0 0-0.3-2.1-0.3-2.1z" />
			<path id="Layer" fill-rule="evenodd" class="s6" d="m11.9 12.7l0.6-1.2l1.6-1.6l3.9-1.5c0 0 3.5-0.3-0.1 0.8c-3.7 1.1-4.6 3.4-4.6 3.4c0 0-1.4 0.1-1.4 0.1zm-1.1 5.6l-0.3-2.1l1-3.2l3.4-0.7l0.2 0.7c-4.9 0.6-3.7 4.9-3.7 4.9c0.1 0-0.6 0.4-0.6 0.4z" />
			<path id="Layer" fill-rule="evenodd" class="s7" d="m13.4 23.5l0.8-0.7c0 0 0.4 0 0.4 0.4c0.1 0.5 0.3 4.3 2.9 6.4c0.2 0.2-2-0.3-2-0.3l-1.9-3.1m11-3.9q0 0.1 0 0.1q0-0.1 0-0.1zm0.7-1.6c0.5 0.1 0.5 0.6 0.5 0.6c0 0-1.1 0.7-1.2 1c0.1-0.4 0.2-1.7 0.7-1.6z" />
		</g>
		<path id="Layer" class="s7" d="m29.9 16.8c-0.2 0.1-1.4 0.8-1.3-0.1c0.1-0.9 1.1-1.1 1.1-1.1m-6.8 1.5c-0.4 0.4-1.9 0.5-1.9-0.4c0-0.8 1.3-1 1.3-1" />
		<g id="Layer">
			<path id="Layer" fill-rule="evenodd" class="s7" d="m14 19.6c0 0-2.3-1.4-2.6 0c-0.2 1.3-0.8 2.3 0.4 3.7l-0.8-0.3l-0.7-1.9l-0.3-1.8l1.4-1.4l1.6 0.1l0.9 0.7c0 0 0.1 0.9 0.1 0.9zm1.1-3.8q0 0 0 0zm0 0v-2.8c-0.1-1.6 2.6-4.2 6.2-5.6c3.7-1.4 7.5 3.2 7.5 3.2c-0.8-1-3.1-2.1-7.4-1.2c-5.1 1-6.2 6.1-6.3 6.4zm14.7-3.3c-0.8-0.9-2.3 0.7-2.3 0.7c-0.1-0.3-0.1-0.5-0.1-0.5c0.1-1.6 1.9-1.5 1.9-1.5zm-8.3 0.9q0 0-0.1-0.1q0.1 0 0.1 0zm0 0c-0.5-0.5-1.6-0.2-2.2 0.1c-0.7 0.3-0.6 1.4-0.8 1.8c-0.2 0.3-0.1-0.2-0.4-0.4c-0.2-0.3-0.4-1.6 1-2.5c1.9-1.3 2.3 0.7 2.4 1z" />
			<path id="Layer" fill-rule="evenodd" class="s8" d="m15.8 29.8l-5.8 2.6c0 0 2.4 9.4 1.2 12.4l-0.8-0.4l-0.1-3.5l-1.6-6.9l-0.7-1.9l6-4c0 0 1.8 1.7 1.8 1.7zm0.6 5.2l0.8 1v3.7h-1l-0.1-2.9c0-0.3 0.1-1.4 0.1-1.4zm0 6.2l-1.9-0.3l-0.8-0.6l2.7-0.1z" />
			<g id="Layer">
				<path id="Layer" fill-rule="evenodd" class="s4" d="m25.8 39.6h2.2l0.6 5.6l-2.3 0.3c0 0-0.5-5.9-0.5-5.9z" />
				<path id="Layer" fill-rule="evenodd" class="s4" d="m27.7 34.4v-5.7l1.4-1.5l0.6 0.5l2.7 2.9c0 0-1.2 4.9-1.2 5.1l-1.4 3.8l-3.4 0.1z" />
			</g>
			<path id="Layer" fill-rule="evenodd" class="s8" d="m28.2 40.7c0 0-1.3 1-2.1 0.6l-0.3-1.7l2.1-0.4m0.1-10.7l4.2 3.2l0.2-1.5l-3.3-3c0 0-1.1 1.3-1.1 1.3z" />
			<path id="Layer" fill-rule="evenodd" class="s9" d="m18.5 51.6l-1.2-5.1l-0.7-3.8l-0.1-2.8l5.7-0.3h3.6l-0.3 6.4l0.5 5l-0.1 0.9l-4.6 0.4c0 0-2.8-0.7-2.8-0.7z" />
			<path id="Layer" fill-rule="evenodd" class="s6" d="m25.9 39.2l0.2 2.1l0.7 10l-0.6 0.4l-5.1 0.2c2.7-0.3 4.5-1.5 4.5-1.5c-0.9-4.5-0.6-10.8-0.6-10.8" />
			<path id="Layer" fill-rule="evenodd" class="s9" d="m28 39.6l0.8-0.3l1 0.1l1.9-0.9l1.9-0.6l1.4 0.2l1.2 3.6l-0.6 2.1l-4.5 0.2l-2.4 0.7" />
			<path id="Layer" fill-rule="evenodd" class="s6" d="m28.6 43.5c0 0 1.6-0.8 1.9-0.7l-0.7-3.3l0.8-0.4l0.5 3.6l3.8 0.2c0 0 0.7-1.4 0.5-2.9l0.7 2v1l-0.9 1.5l-1.1 0.3l-1.9-0.1l-0.6-0.8l-2.1 0.3l-0.7 0.2" />
		</g>
		<path id="Layer" class="s9" d="m26.3 39.1l-1.4-3.4l-1.4-2c0 0 0.3-0.8 0.7-0.8h1.4l1.4 0.5l-0.1 2.2z" />
		<path id="Layer" class="s0" d="m26.3 38.6l-0.5-0.1l-2.4-5.6l1.4-0.1l2.1 0.4v1.1c0 0-0.9-0.4-1.4-0.6c-0.4-0.2-0.7 0.5-0.7 0.5c0 0.5 1.7 3.8 1.7 3.8" />
		<path id="Layer" class="s9" d="m19 31.8l-2.4-1.1l-0.8-0.9v-0.5l1.6 0.5l1.7 0.1" />
		<g id="Layer">
			<path id="Layer" fill-rule="evenodd" class="s6" d="m16.3 30.1c0 0 1.9 0.8 2.5 0.6l0.1 0.8l-1.7-0.4l-1.1-0.7c0 0 0.2-0.3 0.2-0.3z" />
			<path id="Layer" fill-rule="evenodd" class="s10" d="m28.7 33.1q-1.6-0.1-2.8-0.4c0-0.3-0.1-0.7 0-0.9c0.3-0.2 0.6-0.2 1-0.2q-0.1-0.1-0.3-0.1q-0.1 0-0.2-0.1q-0.2 0-0.3 0q-0.1 0-0.3 0.1c0-0.3-0.1-0.4-0.2-0.6c0.6-0.2 2-1.6 2.8-1.1c0.3 0.2 0.5 1.4 0.5 2c0.1 0.5 0 1-0.2 1.3z" />
		</g>
		<path id="Layer" class="s11" d="m28.7 33.1q-1.6-0.1-2.8-0.4c0-0.3-0.1-0.7 0-0.9c0.3-0.2 0.6-0.2 1-0.2q-0.1-0.1-0.3-0.1q-0.1 0-0.2-0.1q-0.2 0-0.3 0q-0.1 0-0.3 0.1c0-0.3-0.1-0.4-0.2-0.6c0.6-0.2 2-1.6 2.8-1.1c0.3 0.2 0.5 1.4 0.5 2c0.1 0.5 0 1-0.2 1.3z" />
		<path id="Layer" class="s0" d="m23.7 31.4v0.2c-0.3 0.2-0.8 0.2-1.2 0.4q0.2 0 0.4 0q0.1 0 0.3 0.1q0.2 0 0.3 0.1q0.2 0 0.3 0.1v0.6c-0.6 0.4-1.1 1-1.8 1.4c-0.4 0.2-1.5 0.6-1.9 0.6c-0.2-0.1-0.2-0.3-0.3-0.6c-0.1-0.5-0.5-1.3-0.6-2c0-0.9-0.1-2.5 0.9-2.3c0.8 0.1 1.8 0.5 2.4 0.8c0.4 0.3 0.6 0.5 1.2 0.6" />
		<path id="Layer" class="s11" d="m23.7 31.4v0.2c-0.3 0.2-0.8 0.2-1.2 0.4q0.2 0 0.4 0q0.1 0 0.3 0.1q0.2 0 0.3 0.1q0.2 0 0.3 0.1v0.6c-0.6 0.4-1.1 1-1.8 1.4c-0.4 0.2-1.5 0.6-1.9 0.6c-0.2-0.1-0.2-0.3-0.3-0.6c-0.1-0.5-0.5-1.3-0.6-2c0-0.9-0.1-2.5 0.9-2.3c0.8 0.1 1.8 0.5 2.4 0.8c0.4 0.3 0.6 0.5 1.2 0.6z" />
		<path id="Layer" class="s0" d="m24.3 32.5c-0.1-0.5-0.2-0.7-0.1-1.1c1.3-0.9 1.6 1.6 0.1 1.1z" />
		<path id="Layer" class="s11" d="m24.3 32.5c-0.1-0.5-0.2-0.7-0.1-1.1c1.3-0.9 1.6 1.6 0.1 1.1z" />
		<path id="Layer" fill-rule="evenodd" class="s1" d="m25.5 32.6v-1.3l0.1-0.7l2.3-1.3l0.7 0.2l0.4 1.1c-0.1-0.3-1-0.2-1.3-0.1c-0.3 0-0.6 0.1-0.7 0.5c0 0.3 0.2 0.5 0 0.8c-0.2 0.3-0.5 0.2-0.8 0.3c-0.3 0.2 0.1 0.8 0.1 0.8m-6.2 2q-0.1-0.2-0.2-0.5v0.5zm-0.4-2.7c-0.2-1.5 0.3-1.2 1.5-1.2c0.2 0 1.2 0.2 1.3 0.4c0.3 0.6-0.6 0.5 0.3 1c0.8 0.4 2.2-0.3 1.9-1.2c-0.2-0.2-0.9-0.1-1.2-0.2l-1.4-0.8c-0.6-0.3-2-0.8-2.7-0.3c-1.4 1-0.2 3.2 0.5 4.6z" />
		<path id="Layer" fill-rule="evenodd" class="s0" d="m21.5 13.3c-1.7-0.3-2.5 0.7-3 1.9c-0.4-0.2-0.3-0.8-0.1-1.1c0.2-0.8 1.4-1.9 2.4-1.7c0.4 0 1 0.4 0.7 0.9zm8.1 1.9q0 0 0 0zm0.1 0c0.4 0.8 0.7 1.6 1.2 2.3c-0.4 0.8-2.5 1.4-2.4 0.1c0.4-0.2 1.2 0 1.6-0.3c-0.2-0.6-0.6-1.2-0.5-2.1zm-7.3 0.1q0 0 0 0q0 0 0-0.1zm1 1.9c0.2 0.2 0.6 0.5 0.4 1.1c0 0.1-0.4 0.5-0.6 0.5c-0.8 0.3-2.7 0.1-2-0.9c0.6 0 1.5 0.4 2-0.1c-0.4-0.6-1-1.7-0.8-2.4c0.3 0.6 0.5 1.3 1 1.8zm5.9 4.8c-1.2 0.7-2.5 1.6-4.5 1.4c-0.4-0.4-0.5-1.2-0.1-1.7c0.2 0.4 0.1 1 0.6 1.1c1.2 0.2 2.4-0.7 3.2-1c0.5-0.8 0-1.1-0.5-1.6c-0.9-1.1-2.1-2.5-2.1-4.2c0.4-0.2 0.4 0.5 0.5 0.6c0.5 1.1 1.7 2.5 2.6 3.5c0.2 0.2 0.5 0.4 0.6 0.6c0.1 0.4-0.3 1-0.3 1.3zm-15.7-0.8c-0.4-0.2-0.5-1.2-0.9-1.2c-0.6 0-0.5 1.2-0.5 1.9c-0.4-0.3-0.5-1.6-0.2-2.2c-0.4-0.2-0.5 0.2-0.7 0.4c0.2-1.9 2.7-0.9 2.3 1.1zm16.5 1.6c-0.6 1-1.4 2.2-3 2.2c0-0.3 0-0.9 0-1.1c1.3-0.1 2-0.7 3-1.1zm-7.8 0.6c1 0.6 2.9 0.6 4.3 0.6c0.1 0.3 0.1 0.7 0.1 1.1c-1.8 0.1-3.9-0.4-4.4-1.7zm-0.2 1.1c0.7 1.8 3.2 1.6 5.3 1.5c-0.1 0.2-0.3 0.5-0.6 0.6c-0.7 0.3-2.5 0.5-3.4 0c-0.6-0.3-1-1-1.3-1.4c-0.2-0.2-0.9-0.7 0-0.7z" />
		<path id="Layer" fill-rule="evenodd" class="s12" d="m29.2 34.3l-2.6 4.2c0.4-1.2 0.6-3.3 0.6-4.9c0.9-0.4 1.7 0.1 2 0.7z" />
		<path id="Layer" class="s0" d="m33.8 39.5c-1 0.2-1.6 1.1-2.6 1.1c0.5-0.8 1.4-1 2.6-1.1zm0.4 1.5c-0.8 0.1-1.7 0.2-2.5 0.1c0.4-0.5 1.8-0.3 2.5-0.1zm0.2 1.3c-0.8 0-1.9 0-2.7-0.1c0.5-0.5 2.2-0.2 2.7 0.1z" />
		<path id="Layer" class="s0" d="m27.6 45.7c0.1 1.1 0.6 2.2 0.5 3.4c-0.5 0.2-0.8 0.3-1.4 0.3l-0.1-3.5c0.3 0 0.7-0.2 1-0.2z" />
		<path id="Layer" fill-rule="evenodd" class="s3" d="m26.2 29.7c-0.4 0.3-0.8 0.7-1.2 1c-0.9 0-1.4-0.1-2.1-0.6c0-0.1 0.1 0 0.1-0.1c1 0.5 2.2-0.2 3.2-0.3z" />
		<path id="Layer" fill-rule="evenodd" class="s12" d="m21 36.5c0.3-1.2 1.3-1.8 2.3-2.4c1 1.2 1.6 2.9 2.3 4.4c-1.6-0.4-3.2-1.2-4.6-2z" />
		<path id="Layer" fill-rule="evenodd" class="s0" d="m30.5 38.5q0 0 0 0c1.5-0.8 4.2-2 5.2 0c0.3 0.7 0.7 1.9 0.9 2.7c0.2 1.1-0.3 3.3-1.4 3.7c-1 0.3-2.1 0.2-3.2 0q-0.1 0-0.2-0.1q0-0.1-0.1-0.1q0-0.1-0.1-0.2q0 0 0-0.1c-0.9 0-1.7 0-2.3 0.4c0.1 0.6-0.4 0.7-0.8 0.8c-0.2 1.2 0.6 2.7 0.4 3.7c-0.1 0.8-1 0.9-1.7 1c0 0.4 0 0.8 0.1 1.1c-0.2 0.6-0.9 0.9-1.5 1c-2.2 0.2-5.5 0.4-7.5-0.4c-0.6-1.4-1.1-3.1-1.5-4.7c-2 0.2-3.7-0.9-5.2-1.6c-0.5-0.3-1.3-0.4-1.5-0.8c-0.2-0.4-0.1-1.2-0.1-2c-0.2-1.9-0.3-3.7-0.8-5.6c-0.2-0.9-0.6-1.7-0.9-2.5c-0.2-0.8-0.7-1.8-0.8-2.5c-0.1-1.2 0.9-1.3 1.6-1.8c1.1-0.7 1.9-1.2 3.1-1.8c0.3-0.3 1.4-0.8 1.5-1c0.2-0.5-0.4-1.2-0.6-1.5c-0.2-0.6-0.4-1.1-0.4-1.7c-1-0.2-1.7-0.7-2.2-1.4c-0.7-1.1-1.2-3.1-0.6-4.6c0.1-0.1 0.3-0.4 0.3-0.5c0.1-0.4-0.1-0.9-0.1-1.3c-0.1-2 0.3-3.7 1.7-4.3c0.5-2.1 2.4-2.8 4.3-3.9c0.6-0.4 1.4-0.6 2.2-0.9c2.7-1.1 7-0.9 9.3 0.9c1 0.7 2.6 2.3 3.1 3.4c1.5 3 1.4 8 0.4 11.6c-0.2 0.5-0.4 1.2-0.7 1.8c-0.2 0.4-0.8 1.3-0.7 1.6c0.1 0.4 1.4 1.4 1.7 1.7c0.5 0.5 1.5 1.1 1.5 1.7c0.1 0.7-0.3 1.6-0.4 2.2c0 0-2 6-2 6q0 0 0 0zm-13.9 1.9c0.4 3.9 1 7.2 2.1 10.6c2.5 0.8 5.5 0.8 7.7 0.1c-0.4-1.9-0.2-4.3-0.4-6.3l-0.4-4.7c-2.6-0.6-6.4-0.2-9 0.3zm9.7-0.3c0 1.7 0.1 3.3 0.2 5l1.6-0.3c-0.1-1.6-0.1-3.4-0.5-4.9c-0.5 0-0.9 0-1.3 0.2zm3.2-0.3c-0.3-0.1-0.6 0-0.9 0l0.6 4.3c0.4 0 0.7-0.2 1-0.3c0.1-1.2-0.1-2.9-0.7-4zm4.9 4.5c1-0.2 1.6-1.4 1.3-2.6c-0.2-0.8-0.5-2.3-0.8-2.8c-0.3-0.4-0.9-0.9-1.5-0.6c-0.9 0.6-2.4 0.8-3.1 1.5c0.3 1 0.4 2.5 0.6 3.9c1.1 0.1 2.4-0.3 3.4 0.1c-0.7 0.2-1.5 0.2-2.1 0.5c0.5 0.2 1.5 0.2 2.2 0zm-8.8-5.8c-0.7-1.6-1.3-3.2-2.3-4.5c-1 0.7-2 1.3-2.3 2.5c1.4 0.8 3 1.5 4.6 2zm1.6-4.9c0 1.6-0.2 3.7-0.6 4.9c1-1.3 1.8-2.7 2.6-4.2c-0.3-0.6-1.1-1.1-2-0.7zm-1.8-0.6c-0.4-0.1-0.7 0.4-1.2 0.2l-0.4 0.4c1.1 1.3 1.6 3.2 2.5 4.7c0.4-1.5 0.4-3.1 0.5-4.7c-0.7 0-1-0.6-1.4-0.6zm-1.2-1.6c-0.1 0.4 0 0.6 0.1 1.1c1.5 0.5 1.2-2-0.1-1.1zm-8.6-1.1c-0.2-0.1-1.3-1.6-1.5-1.5c-2 0.8-3.9 2.1-5.6 3.5c1.6 3.4 2.3 7.7 2.4 11.8c1.8 0.8 3.5 2.1 6 2.2l-0.7-5.8c-0.7-0.3-1.6 0-2.2-0.1c0-0.7 0.9-0.3 1-0.8c0.1-0.4-0.5-0.4-0.3-1c0.5 0.2 0.7 0.6 1.2 0.7c0.4-1 0-2.7 0-3.5c0.1-0.2 0.1-0.9 0.5-0.8c0.3 0.2 0 1.9 0 2.7c0 0.7-0.1 1.4 0.2 1.9c2.4-0.4 4.9-0.6 7.5-0.7c-0.6-0.2-1.3-0.4-2-0.9c-0.4-0.2-1.7-0.7-1.8-1.1c-0.2-0.6 0.5-0.9 0.6-1.4c-1.2 0.6-1.5-0.7-1.8-1.6c-0.2-0.8-0.4-1.5-0.4-2c-1.1-0.5-2.2-1-3.1-1.6zm0.9-0.5c-0.6 0.5 1.4 1.2 2.1 1.3c0-0.4 0.2-0.7 0.1-0.9c-0.7-0.2-1.7-0.1-2.2-0.4zm6.5 0.2c0 0.1-0.1 0.1-0.1 0.1c0.7 0.5 1.2 0.6 2.1 0.6l1.2-0.9c-1 0-2.3 0.7-3.2 0.2zm5.9 1.8c0-0.6-0.2-1.8-0.5-2c-0.8-0.5-2.2 0.9-2.8 1.1c0.1 0.2 0.2 0.3 0.2 0.6q0.2-0.1 0.3-0.1q0.1 0 0.3 0q0.1 0.1 0.2 0.1q0.2 0 0.3 0.1c-0.4 0-0.7 0-1 0.2c-0.1 0.2 0.1 0.6 0 0.9q1.2 0.3 2.8 0.4c0.2-0.3 0.3-0.8 0.2-1.3zm-6.4-0.9c-0.6-0.4-1.6-0.8-2.4-0.9c-1-0.2-0.9 1.4-0.9 2.3c0.1 0.8 0.5 1.6 0.6 2.1c0.1 0.2 0.1 0.4 0.3 0.5c0.4 0.1 1.5-0.4 1.9-0.6c0.7-0.4 1.2-1 1.8-1.4v-0.6q-0.1 0-0.3-0.1q-0.1 0-0.3-0.1q-0.2 0-0.3 0q-0.2-0.1-0.4-0.1c0.4-0.2 0.9-0.2 1.2-0.4v-0.2c-0.6 0-0.8-0.3-1.2-0.5zm5.4-1.9c1.6-0.9 2 3 1.3 4.3c0.1 0.4 0.4 0.5 0.6 0.8l-3 5c0.8-0.5 1.8-0.1 2.6-0.4c0.3-0.2 0.5-0.9 0.8-1.4c0.6-1.6 1.3-3.5 1.6-5c0.1-0.4 0.2-1.1 0.2-1.4c-0.1-0.5-0.8-0.9-1.2-1.3l-1.8-1.7c-0.3 0.4-0.9 0.7-1.1 1.1zm-0.9-19.7c-1.9-1.1-5.1-1.9-7.2-0.9c-1.6 0.9-3.8 2.2-4.5 3.9c0.7 1.6-0.2 3.1-0.3 4.8c0 0.9 0.4 1.7 0.5 2.6c-0.3 0.4-1 0.5-1.5 0.4c-0.2-0.8-0.5-1.8-1.4-1.9c-1.2-0.1-2.1 0.9-2.2 2c0 1.3 1 3.4 2.5 3.2c0.5 0 0.7-0.6 1.3-0.6c0.3 0.7-0.5 0.9-0.6 1.4c0 0.1 0.1 0.6 0.1 0.8c0.3 1.1 0.9 2.5 1.5 3.4c0.7 1 2.2 1.2 3.7 1.3c0.3-0.6 1.4-0.6 2-0.4c-0.8-0.3-1.5-1.1-2.1-1.8c-0.8-0.8-1.5-1.6-1.5-2.7c1.3 1.9 2.4 3.6 4.9 4.4c1.9 0.6 4-0.3 5.5-1.3c0.6-0.4 0.9-1.1 1.3-1.7c1.6-2.3 2.3-5.5 2.2-8.6c-0.1-1.3-0.1-2.6-0.5-3.5c-0.5-0.9-2-1.7-2.9-0.9c-0.2-0.9 0.7-1.4 1.8-1.1c-0.8-1-1.6-2.2-2.6-2.8zm-9.5-0.5c-1.9 0.5-4.2 1.9-4.9 3.5c0.5-0.1 0.9-0.4 1.5-0.4c0.2 0 0.5 0.1 0.8 0c0.5-0.1 0.9-1.2 1.2-1.6c0.4-0.4 0.8-0.6 1.1-1c0.2-0.1 0.5-0.1 0.5-0.3c0-0.1-0.1-0.2-0.2-0.2zm-5.8 5.2c-0.8 0.9-0.6 2.5-0.5 3.7c1.4-0.9 3.3 0.1 3.3 1.6c0.7 0 0.3-0.8 0.2-1.4c-0.4-1.8 0.7-3.7 0-5.4c-1.2 0.1-2.3 0.7-3 1.5zm14.9 31.9c-0.1 1 0.1 2.5 0.1 3.5c0.6 0 0.9-0.1 1.4-0.3c0.1-1.1-0.4-2.2-0.5-3.3c-0.3-0.1-0.7 0.2-1 0.1z" />
		<path id="Layer" class="s0" d="m20.6 23.8c0.1-0.1 0.5-0.3 1.2 0c0 0-0.8 0.2-0.7 1.4l-0.3-0.1c0 0-0.3-1.1-0.2-1.3z" />
		<path id="Layer" fill-rule="evenodd" class="s13" d="m26 34.3c0 0.2-0.2 0.3-0.4 0.3c-0.2 0-0.3-0.1-0.3-0.3c0-0.2 0.1-0.3 0.3-0.3c0.2 0 0.4 0.1 0.4 0.3zm0 1.2c-0.2 0-0.4 0.2-0.4 0.4c0 0.1 0.2 0.3 0.4 0.3c0.1 0 0.3-0.2 0.3-0.3c0-0.2-0.2-0.4-0.3-0.4z" />
		<path id="Layer" fill-rule="evenodd" class="s9" d="m40.6 38.3v-2.1h1.1q0 0.8 0.4 1.2q0.3 0.4 1 0.4q0.8 0 1.1-0.6q0.4-0.7 0.4-2.5v-11.4h-1.9v-1h6.9v1h-1.7v11.5q0 2.1-1.1 3.1q-1 0.9-3.3 0.9q-0.7 0-1.4-0.1q-0.8-0.2-1.5-0.4zm20-7.3h-6.3v0.1q0 1.8 0.6 2.6q0.5 0.7 1.7 0.7q1 0 1.6-0.5q0.6-0.5 0.8-1.5h1.4q-0.3 1.6-1.4 2.3q-1.2 0.7-3.1 0.7q-2.4 0-3.7-1.2q-1.3-1.3-1.3-3.6q0-2.3 1.3-3.6q1.3-1.2 3.7-1.2q2.2 0 3.5 1.3q1.2 1.3 1.2 3.9zm-3.3-1q0-1.8-0.3-2.5q-0.4-0.8-1.2-0.8q-0.8 0-1.1 0.7q-0.4 0.8-0.4 2.4v0.2c0 0 3 0 3 0z" />
		<path id="B" class="s9" d="m62.1 35.2v-1.1h1.3v-7h-1.3v-1.1h4.3v1.3q0.6-0.8 1.3-1.2q0.7-0.4 1.8-0.4q1.5 0 2.3 1q0.8 0.9 0.8 2.6v4.8h1.3v1.1h-5.5v-1.1h1.1v-4.8q0-1.2-0.3-1.7q-0.3-0.4-1-0.4q-0.9 0-1.3 0.7q-0.5 0.6-0.5 2.1v4.1h1.1v1.1c0 0-5.4 0-5.4 0z" />
		<path id="Layer" class="s9" d="m80.4 35.2h-5.5v-1.1h1.3v-11.3h-1.3v-1h4.3v8.6l3.7-3.3h-1.1v-1.1h4.2v1.1h-1.7l-2.4 2.1l3.9 4.9h1v1.1h-5.2v-1.1h1l-2.5-3.2l-0.9 0.7v2.5h1.2c0 0 0 1.1 0 1.1zm7.7-11.8q0-0.7 0.5-1.2q0.5-0.4 1.2-0.4q0.7 0 1.2 0.4q0.4 0.5 0.4 1.2q0 0.7-0.4 1.2q-0.5 0.4-1.2 0.4q-0.7 0-1.2-0.4q-0.5-0.5-0.5-1.2zm3.4 10.7h1.3v1.1h-5.7v-1.1h1.3v-7.1h-1.3v-1h4.4c0 0 0 8.1 0 8.1z" />
		<path id="B" class="s9" d="m93.8 35.2v-1.1h1.4v-7h-1.4v-1.1h4.4v1.3q0.6-0.8 1.3-1.2q0.7-0.4 1.7-0.4q1.6 0 2.4 1q0.8 0.9 0.8 2.6v4.8h1.3v1.1h-5.5v-1.1h1.1v-4.8q0-1.2-0.3-1.7q-0.3-0.4-1-0.4q-0.9 0-1.4 0.7q-0.4 0.6-0.4 2.1v4.1h1.1v1.1c0 0-5.4 0-5.5 0z" />
		<path id="Layer" class="s9" d="m106.9 34.9v-2.6h1q0.1 1.1 0.7 1.6q0.7 0.5 1.8 0.5q0.9 0 1.4-0.3q0.5-0.3 0.5-0.9q0-0.6-0.3-0.9q-0.3-0.3-1.2-0.5l-1.3-0.3q-1.4-0.4-2-1q-0.7-0.7-0.7-1.8q0-1.5 1.1-2.2q1-0.7 3.2-0.7q0.8 0 1.7 0.1q0.9 0.1 2 0.4v2.3h-0.9q-0.1-0.9-0.7-1.4q-0.6-0.5-1.7-0.5q-0.9 0-1.4 0.3q-0.5 0.3-0.5 0.9q0 0.5 0.3 0.7q0.3 0.3 1 0.5l1.2 0.3q1.8 0.5 2.5 1.1q0.7 0.7 0.7 1.9q0 1.5-1.1 2.3q-1.1 0.7-3.5 0.7q-0.8 0-1.8-0.1q-0.9-0.1-2-0.4z" />
	</g>
</svg>