<svg version="1.2" xmlns="http://www.w3.org/2000/svg" viewBox="0 0 120 60" width="120" height="60">
	<title>kuber_light-svg</title>
	<style>
		.s0 { fill: #326ce5 } 
		.s1 { fill: #ffffff;stroke: #ffffff;stroke-width: .1 } 
		.s2 { fill: #ffffff } 
	</style>
	<g id="Layer">
		<path id="Layer" class="s0" d="m20.5 14.7q0.1 0 0.2 0q0.2 0 0.3 0.1q0.1 0 0.2 0.1l11 5.2q0.3 0.1 0.4 0.3q0.2 0.1 0.4 0.3q0.1 0.2 0.2 0.4q0.1 0.2 0.2 0.4l2.7 11.8q0 0.3 0 0.5q0 0.2 0 0.5q-0.1 0.2-0.2 0.4q-0.1 0.2-0.2 0.4l-7.6 9.5q-0.2 0.2-0.4 0.3q-0.1 0.1-0.4 0.3q-0.2 0.1-0.4 0.1q-0.2 0.1-0.5 0.1h-12.2q-0.2 0-0.4-0.1q-0.3 0-0.5-0.1q-0.2-0.1-0.4-0.3q-0.2-0.1-0.3-0.3l-7.6-9.5q-0.1-0.1-0.2-0.2q-0.1-0.1-0.2-0.3q0-0.2-0.1-0.4q0-0.2 0-0.4q0-0.3 0.1-0.5l2.6-11.8q0.1-0.2 0.2-0.4q0.1-0.2 0.3-0.4q0.1-0.2 0.3-0.3q0.2-0.2 0.4-0.3l11-5.2q0.1-0.1 0.2-0.1q0.1-0.1 0.2-0.1q0.1 0 0.2 0q0.1 0 0.2-0.1q0.1 0 0.3 0.1z" />
		<path id="Layer" fill-rule="evenodd" class="s1" d="m20.3 18.7q0.2 0 0.3 0q0.1 0.1 0.2 0.2q0.1 0.1 0.1 0.2q0.1 0.2 0.1 0.3v0.2q0 0.1 0 0.1q0 0.1-0.1 0.2q0 0.1 0 0.2q0 0 0 0.1q0 0.2 0 0.3q-0.1 0.2-0.1 0.3q0 0.2 0 0.3q0 0.2 0 0.3q0 0.1 0 0.1q0.1 0.1 0.1 0.1q0 0 0.1 0.1q0 0 0 0c0 0.1 0 0.2 0 0.3q0.8 0.1 1.6 0.3q0.7 0.2 1.4 0.6q0.7 0.3 1.4 0.8q0.6 0.4 1.1 1l0.3-0.2q0 0 0.1 0q0 0 0.1 0q0 0 0.1 0q0 0 0.1 0q0.1-0.1 0.2-0.2q0.1-0.1 0.2-0.2q0.1-0.1 0.2-0.2q0.1-0.2 0.2-0.3q0.1 0 0.1-0.1q0.1 0 0.1-0.1q0.1-0.1 0.2-0.1q0-0.1 0.1-0.1l0.1-0.1q0.1-0.1 0.2-0.2q0 0 0.1 0q0.1 0 0.2 0q0.1 0 0.2 0q0.2 0.1 0.3 0.2q0.1 0.2 0.1 0.4q0.1 0.1 0 0.3q-0.1 0.2-0.3 0.3l-0.1 0.1q-0.1 0.1-0.1 0.1q-0.1 0-0.2 0.1q0 0-0.1 0.1q-0.1 0-0.2 0q-0.1 0.1-0.2 0.2q-0.1 0.1-0.3 0.1q-0.1 0.1-0.2 0.2q-0.1 0.1-0.2 0.2q-0.1 0.1-0.1 0.1q0 0 0 0.1q-0.1 0-0.1 0.1q0 0 0 0.1l-0.2 0.2q0.4 0.7 0.8 1.4q0.3 0.7 0.4 1.4q0.2 0.8 0.2 1.6q0.1 0.8 0 1.5l0.2 0.1q0.1 0.1 0.1 0.1q0 0 0.1 0.1q0 0 0 0q0.1 0.1 0.1 0.1q0.2 0 0.3 0.1q0.2 0 0.3 0q0.2 0 0.3 0.1q0.2 0 0.3 0q0.1 0 0.2 0q0 0 0.1 0q0.1 0 0.2 0q0.1 0 0.1 0l0.2 0.1q0.1 0 0.2 0q0.1 0.1 0.2 0.1q0 0.1 0.1 0.2q0 0 0.1 0.1q0 0.2 0 0.4q0 0.2-0.2 0.3q-0.1 0.1-0.3 0.2q-0.2 0-0.4 0q-0.1-0.1-0.1-0.1q-0.1 0-0.2 0q-0.1 0-0.1-0.1q-0.1 0-0.2 0q-0.1-0.1-0.1-0.1q-0.2-0.1-0.3-0.1q-0.2-0.1-0.3-0.1q-0.1 0-0.3-0.1q-0.1 0-0.3 0q0 0-0.1 0q0 0-0.1 0q0 0-0.1 0q0 0.1-0.1 0.1h-0.2q-0.3 0.7-0.6 1.4q-0.4 0.7-0.9 1.3q-0.5 0.6-1.1 1.1q-0.5 0.5-1.2 0.9q0 0.1 0 0.1q0 0 0 0.1q0.1 0 0.1 0q0 0.1 0 0.1q0 0-0.1 0.1q0 0 0 0.1q0 0 0 0.1q0 0 0 0.1q0.1 0.1 0.2 0.3q0 0.1 0.1 0.2q0.1 0.1 0.1 0.3q0.1 0.1 0.2 0.2q0.1 0.1 0.1 0.2q0.1 0 0.1 0.1q0 0 0.1 0.1q0 0.1 0.1 0.1l0.1 0.2q0 0.1 0 0.2q0 0.1 0 0.2q0 0.1 0 0.2q0 0-0.1 0.1q-0.1 0.2-0.2 0.3q-0.2 0-0.4 0q-0.2 0-0.3-0.1q-0.2-0.1-0.2-0.3l-0.1-0.2q0-0.1-0.1-0.1q0-0.1 0-0.2q0-0.1-0.1-0.1q0-0.1 0-0.2q-0.1-0.1-0.1-0.3q-0.1-0.1-0.1-0.2q-0.1-0.2-0.1-0.3q-0.1-0.2-0.2-0.3q0 0 0-0.1q-0.1 0-0.1 0q-0.1-0.1-0.1-0.1q0 0-0.1 0l-0.1-0.2q-0.8 0.2-1.5 0.4q-0.8 0.1-1.6 0.1q-0.7 0-1.5-0.1q-0.8-0.2-1.5-0.5l-0.2 0.3q0 0 0 0q-0.1 0-0.1 0.1q0 0-0.1 0q0 0 0 0c-0.3 0.3-0.4 0.8-0.6 1.2q0 0.1 0 0.2q0 0.1 0 0.1q-0.1 0.1-0.1 0.2q0 0.1 0 0.1l-0.1 0.2q-0.1 0.1-0.1 0.2q-0.1 0-0.1 0.1q-0.1 0.1-0.2 0.1q-0.1 0-0.2 0q-0.2 0-0.3 0q-0.2-0.1-0.3-0.3q-0.1-0.1-0.1-0.3q0-0.2 0.1-0.4l0.1-0.1q0-0.1 0.1-0.2q0 0 0-0.1q0.1-0.1 0.1-0.1q0.1-0.1 0.1-0.2q0.1-0.1 0.2-0.2q0.1-0.2 0.2-0.3q0-0.1 0.1-0.3q0.1-0.1 0.1-0.2q0-0.1 0-0.1q0-0.1 0-0.1q0-0.1 0-0.1q0-0.1 0-0.1l0.1-0.3q-0.7-0.4-1.3-0.9q-0.6-0.5-1-1.1q-0.5-0.6-0.9-1.3q-0.4-0.7-0.6-1.4h-0.3q0 0-0.1 0q0 0-0.1-0.1q0 0-0.1 0q0 0-0.1 0q-0.1 0-0.3 0.1q-0.1 0-0.3 0q-0.1 0.1-0.2 0.1q-0.2 0.1-0.3 0.1q-0.1 0.1-0.2 0.1q0 0-0.1 0q-0.1 0.1-0.2 0.1q0 0-0.1 0l-0.2 0.1q-0.1 0-0.2 0q-0.1 0-0.2 0q-0.1 0-0.1-0.1q-0.1 0-0.2-0.1q-0.1-0.1-0.2-0.3q0-0.2 0.1-0.4q0-0.1 0.2-0.3q0.1-0.1 0.3-0.1l0.2-0.1q0.1 0 0.1 0q0.1 0 0.2 0q0.1 0 0.2 0q0 0 0.1 0q0.2 0 0.3 0q0.2 0 0.3-0.1q0.2 0 0.3 0q0.2-0.1 0.3-0.1q0 0 0.1-0.1q0 0 0.1 0q0-0.1 0-0.1q0.1 0 0.1-0.1l0.3-0.1q-0.1-0.7-0.1-1.5q0-0.8 0.2-1.6q0.2-0.7 0.5-1.4q0.3-0.8 0.7-1.4l-0.2-0.2q0 0 0-0.1q0 0 0-0.1q-0.1 0-0.1-0.1q0 0 0-0.1q-0.2-0.1-0.3-0.2q-0.1-0.1-0.2-0.1q-0.1-0.1-0.3-0.2q-0.1-0.1-0.2-0.2q-0.1 0-0.2 0q0-0.1-0.1-0.1q-0.1 0-0.1-0.1q-0.1 0-0.2-0.1l-0.1-0.1q-0.1-0.1-0.2-0.2q-0.1-0.1-0.1-0.2q0-0.2 0-0.3q0-0.1 0.1-0.3q0.1 0 0.1-0.1q0.1 0 0.2 0q0-0.1 0.1-0.1q0.1 0 0.2 0q0 0 0.1 0q0 0 0.1 0.1q0.1 0 0.1 0q0.1 0 0.1 0.1l0.2 0.1q0 0.1 0.1 0.1q0 0.1 0.1 0.1q0 0.1 0.1 0.1q0 0.1 0.1 0.2q0.1 0.1 0.2 0.2q0.1 0.1 0.2 0.2q0.1 0.1 0.2 0.2q0.2 0.1 0.3 0.2q0 0 0.1 0q0 0 0.1 0q0 0 0.1 0q0 0 0.1 0l0.2 0.2q0.4-0.5 0.9-0.9q0.5-0.4 1.1-0.7q0.5-0.3 1.1-0.5q0.6-0.3 1.2-0.4q0.2 0 0.3-0.1q0.2 0 0.3 0q0.2 0 0.3 0q0.2-0.1 0.3-0.1v-0.3q0.1 0 0.1 0q0-0.1 0-0.1q0.1-0.1 0.1-0.1q0 0 0-0.1q0-0.1 0-0.3q0-0.1 0-0.3q0-0.1 0-0.3q0-0.1 0-0.3q0-0.1-0.1-0.1q0-0.1 0-0.2q0-0.1 0-0.2q0 0 0-0.1v-0.2q0-0.1 0-0.3q0.1-0.1 0.1-0.2q0.1-0.1 0.3-0.2q0.1 0 0.2 0zm-1 5.1q-0.1 0-0.2 0q0 0-0.1 0q-0.1 0.1-0.2 0.1q-0.5 0.1-0.9 0.2q-0.5 0.2-0.9 0.4q-0.4 0.3-0.8 0.5q-0.3 0.3-0.7 0.7l2.9 2q0.1 0.1 0.2 0.1q0.2 0 0.4-0.1q0.1 0 0.2-0.2q0.1-0.1 0.1-0.3l0.2-3.4q-0.1 0-0.2 0zm2 3.4q0 0.2 0.1 0.3q0.1 0.2 0.3 0.2q0.1 0.1 0.3 0.1q0.1 0 0.3-0.1l2.8-2q-0.4-0.4-0.9-0.7q-0.4-0.4-0.9-0.6q-0.5-0.2-1.1-0.4q-0.5-0.2-1.1-0.2zm-7.3 0.7q-0.2 0.5-0.3 1.1q-0.2 0.5-0.2 1.1q0 0.5 0 1.1l3.4-1q0.1 0 0.2-0.1q0.1-0.1 0.2-0.3q0-0.2 0-0.3q-0.1-0.2-0.2-0.3l-2.6-2.3q-0.3 0.5-0.5 1zm12.1-1l-2.5 2.3q-0.2 0.1-0.2 0.3q-0.1 0.1 0 0.3q0 0.1 0.1 0.3q0.1 0.1 0.3 0.1l3.3 1q0.1-0.6 0-1.1q0-0.6-0.1-1.1q-0.2-0.6-0.4-1.1q-0.2-0.5-0.5-1zm-7 3.3l0.2 1l1 0.5l1-0.5l0.2-1l-0.7-0.8h-1zm4 2q-0.1 0-0.2 0.1q-0.1 0-0.2 0.2q-0.1 0.1-0.1 0.2q0 0.2 0 0.3l1.4 3.2q0.4-0.3 0.9-0.7q0.4-0.3 0.7-0.8q0.4-0.4 0.6-0.9q0.3-0.5 0.5-1l-3.4-0.6q0 0-0.1 0q0 0 0 0q0 0 0 0q0 0-0.1 0zm-5.7 0q0 0 0 0q-0.1 0-0.1 0q0 0 0 0q0 0 0 0l-3.4 0.6q0.2 0.5 0.4 1q0.3 0.5 0.6 0.9q0.4 0.4 0.8 0.8q0.4 0.4 0.9 0.7l1.3-3.2q0.1-0.1 0.1-0.3q-0.1-0.1-0.1-0.2q-0.1-0.2-0.2-0.2q-0.2-0.1-0.3-0.1zm2.9 1.4q-0.1 0-0.2 0q-0.1 0-0.1 0.1q-0.1 0-0.1 0.1q-0.1 0-0.1 0.1l-1.7 3q0.4 0.2 0.9 0.2q0.5 0.1 0.9 0.2q0.5 0 1-0.1q0.5 0 0.9-0.1q0.1 0 0.2 0q0.1-0.1 0.2-0.1q0 0 0.1 0q0.1-0.1 0.2-0.1l-1.7-3q0-0.1-0.1-0.1q-0.1-0.1-0.1-0.1q-0.1-0.1-0.2-0.1q-0.1 0-0.1 0z" />
		<path id="Layer" fill-rule="evenodd" class="s2" d="m43 30.6l0.7-0.7q0.3-0.3 0.6-0.7l0.6-0.7q0.3-0.3 0.5-0.5h2.5q-0.8 0.8-1.5 1.6q-0.7 0.8-1.5 1.6q0.1 0.1 0.2 0.2q0.1 0.1 0.2 0.2q0.1 0.1 0.2 0.3q0.1 0.1 0.2 0.2q0.5 0.5 0.9 1.1q0.4 0.5 0.8 1.1q0.3 0.6 0.5 1h-2.4q-0.2-0.3-0.5-0.8q-0.3-0.4-0.6-0.8q-0.3-0.5-0.6-0.9q-0.1-0.1-0.2-0.2q-0.1-0.1-0.2-0.2q-0.1 0-0.2-0.1q-0.1-0.1-0.2-0.2v3.2h-2v-10.5l2-0.3c0 0 0 6.1 0 6.1zm12.2 4.5q-0.2 0-0.3 0.1q-0.2 0-0.4 0q-0.1 0.1-0.3 0.1q-0.2 0-0.4 0.1q-0.2 0-0.4 0q-0.2 0.1-0.4 0.1q-0.3 0-0.5 0q-0.2 0-0.4 0q-0.2 0-0.4 0q-0.2 0-0.4 0q-0.2-0.1-0.4-0.1q-0.2-0.1-0.4-0.2q-0.1 0-0.3-0.1q-0.1-0.1-0.2-0.1q-0.2-0.1-0.3-0.2q-0.1-0.1-0.2-0.3q-0.1-0.1-0.1-0.2q-0.1-0.1-0.2-0.3q-0.1-0.1-0.1-0.2q-0.1-0.2-0.1-0.3q0-0.2-0.1-0.4q0-0.2 0-0.3q0-0.2 0-0.4q0-0.1 0-0.3v-4.1h2v3.8q0 1 0.3 1.5q0.3 0.4 1 0.4q0.2 0 0.5 0q0.2 0 0.4-0.1v-5.6h2.1zm8.8-3.5q0 0.2 0 0.4q0 0.2 0 0.4q-0.1 0.3-0.1 0.4q-0.1 0.2-0.1 0.4q-0.1 0.2-0.2 0.4q-0.1 0.1-0.2 0.3q0 0.1-0.2 0.3q-0.1 0.1-0.2 0.3q-0.1 0.1-0.3 0.2q-0.1 0.1-0.3 0.2q-0.1 0.1-0.3 0.2q-0.1 0.1-0.3 0.1q-0.2 0.1-0.4 0.2q-0.2 0-0.4 0q-0.2 0.1-0.4 0.1q-0.2 0-0.4 0q-0.4 0-0.8 0q-0.4-0.1-0.8-0.1q-0.4-0.1-0.8-0.2q-0.3 0-0.6-0.1v-10.3l2.1-0.3v3.6q0 0 0.1 0q0.1-0.1 0.2-0.1q0.1 0 0.2-0.1q0.1 0 0.2 0q0.1 0 0.2 0q0.1-0.1 0.2-0.1q0.1 0 0.2 0q0.1 0 0.2 0q0.2 0 0.3 0q0.2 0 0.4 0.1q0.2 0 0.3 0.1q0.2 0 0.4 0.1q0.1 0 0.3 0.1q0.1 0.1 0.2 0.2q0.2 0.1 0.3 0.2q0.1 0.1 0.2 0.3q0.1 0.1 0.2 0.2q0.1 0.2 0.2 0.3q0 0.2 0.1 0.3q0.1 0.2 0.1 0.4q0.1 0.2 0.1 0.4q0 0.2 0.1 0.3q0 0.2 0 0.4q0 0.2 0 0.4zm-2.1 0q0-2-1.5-2q-0.1 0-0.2 0q0 0-0.1 0q-0.1 0-0.2 0q-0.1 0-0.1 0.1q-0.1 0-0.2 0q0 0-0.1 0q-0.1 0.1-0.1 0.1q-0.1 0-0.1 0.1v3.8q0.1 0 0.3 0q0.3 0 0.6 0q0.1 0 0.3 0q0.2 0 0.4-0.1q0.2-0.1 0.3-0.2q0.1-0.1 0.3-0.3q0.1-0.1 0.2-0.3q0-0.2 0.1-0.4q0.1-0.2 0.1-0.4q0-0.2 0-0.4zm3.4 0.1q0-0.2 0-0.4q0-0.3 0-0.5q0.1-0.2 0.1-0.4q0.1-0.2 0.2-0.4q0-0.2 0.1-0.4q0.1-0.1 0.2-0.3q0.1-0.1 0.2-0.3q0.1-0.1 0.3-0.2q0.1-0.2 0.2-0.3q0.1-0.1 0.3-0.2q0.1-0.1 0.3-0.1q0.1-0.1 0.3-0.2q0.1 0 0.3-0.1q0.2 0 0.3-0.1q0.2 0 0.4 0q0.1 0 0.3 0q1.6 0 2.5 0.9q0.9 1 0.9 2.9q0 0.1 0 0.4q0 0.2-0.1 0.3h-4.7q0 0.2 0.1 0.3q0 0.2 0.1 0.3q0.1 0.1 0.2 0.3q0.1 0.1 0.2 0.2q0.2 0.1 0.3 0.1q0.2 0.1 0.4 0.2q0.2 0 0.4 0q0.2 0 0.3 0q0.2 0 0.3 0q0.2 0 0.3 0q0.1 0 0.3 0q0.1 0 0.3-0.1q0.1 0 0.2 0q0.1 0 0.2-0.1q0.1 0 0.3 0q0.1-0.1 0.2-0.1l0.3 1.7q-0.1 0-0.2 0q0 0-0.1 0.1q0 0-0.1 0q0 0-0.1 0q-0.1 0.1-0.1 0.1q-0.1 0-0.2 0q-0.1 0-0.2 0q0 0.1-0.1 0.1q-0.4 0-0.8 0.1q0 0-0.1 0q-0.1 0-0.2 0q-0.1 0-0.2 0q-0.1 0-0.2 0q-0.3 0-0.5 0q-0.2 0-0.4 0q-0.2-0.1-0.4-0.1q-0.3-0.1-0.5-0.2q-0.1 0-0.3-0.1q-0.2-0.1-0.3-0.2q-0.2-0.1-0.3-0.2q-0.2-0.1-0.3-0.3q-0.1-0.1-0.2-0.2q-0.1-0.2-0.2-0.3q-0.1-0.2-0.2-0.4q0-0.1-0.1-0.3q-0.1-0.2-0.1-0.4q0-0.1-0.1-0.3q0-0.2 0-0.4q0-0.2 0-0.4zm4.9-0.8q0-0.1 0-0.1q-0.1-0.1-0.1-0.2q0 0 0-0.1q0-0.1 0-0.1q0-0.1-0.1-0.1q0-0.1 0-0.2q-0.1 0-0.1-0.1q0 0-0.1-0.1q0 0-0.1-0.1q0 0 0 0q-0.1-0.1-0.2-0.1q0-0.1-0.1-0.1q0 0-0.1 0q-0.1-0.1-0.2-0.1q0 0-0.1 0q-0.1 0-0.2 0q-0.1 0-0.1 0q-0.1 0-0.2 0q-0.1 0-0.1 0.1q-0.1 0-0.2 0q0 0-0.1 0.1q-0.1 0-0.1 0q-0.1 0.1-0.1 0.1q-0.1 0.1-0.1 0.1q0 0.1-0.1 0.1q0 0.1 0 0.1q-0.1 0.1-0.1 0.2q0 0-0.1 0.1q0 0 0 0.1q0 0.1 0 0.1q-0.1 0.1-0.1 0.2q0 0 0 0.1c0 0 2.8 0 2.8 0zm8-1.1q-0.3-0.1-0.6-0.1q-0.1-0.1-0.2-0.1q-0.1 0-0.2 0q-0.1 0-0.2 0q-0.1 0-0.2 0q-0.1 0-0.2 0q0 0-0.1 0q0 0-0.1 0q0 0-0.1 0q-0.1 0-0.1 0q-0.1 0-0.1 0.1q-0.1 0-0.1 0q-0.1 0-0.1 0v5.6h-2.1v-6.9q0.2-0.1 0.3-0.2q0.2 0 0.4 0q0.1-0.1 0.3-0.1q0.1-0.1 0.3-0.1q0.2-0.1 0.4-0.1q0.2 0 0.5-0.1q0.2 0 0.4 0q0.2 0 0.4 0q0.2 0 0.4 0q0.3 0.1 0.5 0.1q0.2 0 0.5 0.1q0 0 0.1 0q0 0 0.1 0q0 0 0.1 0.1q0 0 0.1 0zm1.4-1.6q0.2 0 0.4-0.1q0.2 0 0.3-0.1q0.2 0 0.4 0q0.1-0.1 0.3-0.1q0.2 0 0.5 0q0.2-0.1 0.4-0.1q0.2 0 0.4 0q0.3 0 0.5 0q0.2 0 0.4 0q0.2 0 0.4 0q0.2 0.1 0.4 0.1q0.2 0.1 0.3 0.1q0.2 0.1 0.3 0.1q0.2 0.1 0.3 0.2q0.1 0.1 0.2 0.2q0.1 0.1 0.2 0.2q0.1 0.1 0.2 0.3q0.1 0.1 0.1 0.2q0.1 0.2 0.2 0.3q0 0.1 0 0.3q0.1 0.1 0.1 0.3q0 0.2 0.1 0.4q0 0.1 0 0.3q0 0.2 0 0.4v4.1h-2.1v-3.9q0-1-0.3-1.4q-0.2-0.4-0.9-0.4q-0.3 0-0.5 0q-0.3 0-0.5 0v5.7h-2.1v-7.1zm7.9 3.5q0-0.2 0.1-0.5q0-0.2 0-0.4q0-0.2 0.1-0.4q0.1-0.2 0.1-0.4q0.1-0.2 0.2-0.4q0.1-0.1 0.2-0.3q0.1-0.1 0.2-0.3q0.1-0.1 0.2-0.3q0.1-0.1 0.3-0.2q0.1-0.1 0.3-0.2q0.1-0.1 0.2-0.1q0.2-0.1 0.3-0.2q0.2-0.1 0.4-0.1q0.1 0 0.3-0.1q0.2 0 0.3 0q0.2 0 0.4 0q1.5 0 2.4 0.9q0.9 1 0.9 2.8q0 0.2 0 0.4q0 0.3 0 0.4h-4.7q0 0.2 0 0.3q0.1 0.2 0.2 0.3q0 0.1 0.1 0.2q0.1 0.2 0.3 0.2q0.1 0.1 0.3 0.2q0.2 0.1 0.4 0.1q0.1 0.1 0.3 0.1q0.2 0 0.4 0q0.1 0 0.3 0q0.1 0 0.3 0q0.1 0 0.2 0q0.2-0.1 0.3-0.1q0.1 0 0.3 0q0.1-0.1 0.2-0.1q0.1 0 0.2-0.1q0.1 0 0.2 0l0.3 1.6q0 0.1-0.1 0.1q-0.1 0-0.1 0q-0.1 0.1-0.1 0.1q-0.1 0-0.1 0q-0.1 0-0.2 0.1q-0.1 0-0.1 0q-0.1 0-0.2 0q-0.1 0-0.2 0.1q-0.3 0-0.7 0.1q-0.1 0-0.2 0q-0.1 0-0.2 0q-0.1 0-0.2 0q-0.1 0-0.2 0q-0.2 0-0.4 0q-0.2 0-0.5-0.1q-0.2 0-0.4 0q-0.2-0.1-0.4-0.2q-0.2 0-0.3-0.1q-0.2-0.1-0.4-0.2q-0.1-0.1-0.3-0.2q-0.1-0.2-0.2-0.3q-0.1-0.1-0.3-0.3q-0.1-0.1-0.1-0.3q-0.1-0.1-0.2-0.3q-0.1-0.1-0.1-0.3q-0.1-0.2-0.1-0.4q-0.1-0.2-0.1-0.4q0-0.1-0.1-0.3q0-0.2 0-0.4zm4.9-0.8q0-0.1 0-0.1q0-0.1 0-0.2q0 0 0-0.1q0-0.1-0.1-0.1q0-0.1 0-0.2q0 0-0.1-0.1q0 0 0-0.1q-0.1 0-0.1-0.1q0 0-0.1-0.1q0 0-0.1-0.1q0 0-0.1 0q0-0.1-0.1-0.1q-0.1 0-0.1-0.1q-0.1 0-0.2 0q-0.1 0-0.2 0q0 0-0.1 0q-0.1 0-0.2 0q0 0-0.1 0q-0.1 0-0.2 0q0 0.1-0.1 0.1q-0.1 0-0.1 0.1q-0.1 0-0.1 0q-0.1 0.1-0.1 0.1q-0.1 0.1-0.1 0.1q-0.1 0.1-0.1 0.1q0 0.1-0.1 0.1q0 0.1 0 0.1q-0.1 0.1-0.1 0.2q0 0 0 0.1q-0.1 0.1-0.1 0.1q0 0.1 0 0.2q0 0 0 0.1c0 0 2.7 0 2.7 0zm3.6-4.8l2.1-0.3v2.1h2.5v1.8h-2.5v2.6q0 0.1 0 0.2q0 0.2 0 0.3q0 0.1 0.1 0.3q0 0.1 0.1 0.2q0.2 0.4 0.9 0.4q0.1 0 0.2 0q0.1 0 0.2 0q0.1 0 0.2 0q0-0.1 0.1-0.1q0.1 0 0.2 0q0.1 0 0.2 0q0-0.1 0.1-0.1q0.1 0 0.2 0l0.3 1.6q-0.1 0-0.2 0.1q-0.1 0-0.2 0q-0.2 0.1-0.3 0.1q-0.1 0-0.2 0q-0.1 0.1-0.3 0.1q-0.1 0-0.2 0q-0.2 0-0.3 0.1q-0.2 0-0.3 0q-0.2 0-0.4 0q-0.1-0.1-0.3-0.1q-0.2 0-0.4-0.1q-0.1 0-0.3-0.1q-0.1 0-0.3-0.1q-0.1-0.1-0.2-0.1q-0.1-0.1-0.2-0.2q-0.1-0.1-0.2-0.2q-0.1-0.1-0.2-0.2q0-0.2-0.1-0.3q-0.1-0.1-0.1-0.3q-0.1-0.1-0.1-0.2q0-0.2 0-0.3q-0.1-0.2-0.1-0.4q0-0.1 0-0.3q0-0.2 0-0.3v-6.2zm5.7 5.6q0-0.2 0-0.5q0-0.2 0.1-0.4q0-0.2 0-0.4q0.1-0.2 0.2-0.4q0.1-0.2 0.1-0.4q0.1-0.1 0.2-0.3q0.1-0.1 0.2-0.3q0.1-0.1 0.3-0.3q0.1-0.1 0.2-0.2q0.2-0.1 0.3-0.2q0.1-0.1 0.3-0.1q0.1-0.1 0.3-0.2q0.2 0 0.3-0.1q0.2 0 0.3-0.1q0.2 0 0.4 0q0.1 0 0.3 0q1.6 0 2.5 0.9q0.9 1 0.9 2.8q0 0.2 0 0.4q0 0.2 0 0.4h-4.8q0 0.2 0.1 0.3q0 0.2 0.1 0.3q0.1 0.1 0.2 0.2q0.1 0.2 0.2 0.2q0.2 0.1 0.4 0.2q0.1 0.1 0.3 0.1q0.2 0.1 0.4 0.1q0.2 0 0.4 0q0.1 0 0.2 0q0.2 0 0.3 0q0.2 0 0.3 0q0.1-0.1 0.3-0.1q0.1 0 0.2 0q0.1-0.1 0.2-0.1q0.2 0 0.3-0.1q0.1 0 0.2 0l0.3 1.6q-0.1 0.1-0.1 0.1q-0.1 0-0.2 0q0 0.1-0.1 0.1q0 0-0.1 0q-0.1 0-0.1 0.1q-0.1 0-0.2 0q-0.1 0-0.1 0q-0.1 0-0.2 0.1q-0.4 0-0.7 0.1q-0.1 0-0.2 0q-0.1 0-0.2 0q-0.1 0-0.2 0q-0.1 0-0.2 0q-0.2 0-0.5 0q-0.2 0-0.4-0.1q-0.2 0-0.4-0.1q-0.2 0-0.5-0.1q-0.1-0.1-0.3-0.1q-0.1-0.1-0.3-0.2q-0.2-0.1-0.3-0.2q-0.1-0.2-0.3-0.3q-0.1-0.1-0.2-0.3q-0.1-0.1-0.2-0.3q-0.1-0.1-0.2-0.3q0-0.1-0.1-0.3q0-0.2-0.1-0.4q0-0.2-0.1-0.3q0-0.2 0-0.4q0-0.2 0-0.4zm4.9-0.8q0-0.1 0-0.1q0-0.1 0-0.2q-0.1 0-0.1-0.1q0-0.1 0-0.1q0-0.1 0-0.2q-0.1 0-0.1-0.1q0 0-0.1-0.1q0 0 0-0.1q-0.1 0-0.1-0.1q-0.1 0-0.1-0.1q-0.1 0-0.1 0q-0.1-0.1-0.2-0.1q0 0-0.1-0.1q-0.1 0-0.1 0q-0.1 0-0.2 0q-0.1 0-0.2 0q0 0-0.1 0q-0.1 0-0.2 0q0 0-0.1 0q-0.1 0.1-0.2 0.1q0 0-0.1 0.1q0 0-0.1 0q0 0.1-0.1 0.1q0 0.1-0.1 0.1q0 0.1-0.1 0.1q0 0.1 0 0.1q-0.1 0.1-0.1 0.1q0 0.1-0.1 0.2q0 0 0 0.1q0 0.1 0 0.1q0 0.1-0.1 0.2q0 0 0 0.1zm5.7 2.9q0.1 0 0.3 0q0.1 0 0.2 0q0.1 0 0.2 0q0.1-0.1 0.2-0.1q0 0 0.1-0.1q0 0 0-0.1q0.1 0 0.1-0.1q0-0.1 0-0.1q0-0.1 0-0.2q-0.1 0-0.1-0.1q0 0-0.1-0.1q-0.1 0-0.1-0.1q-0.1 0-0.2-0.1q-0.2 0-0.3-0.1q-0.1-0.1-0.2-0.1q-0.1-0.1-0.3-0.1q-0.1 0-0.2-0.1q-0.1 0-0.2-0.1q-0.1 0-0.2-0.1q-0.1 0-0.2-0.1q-0.1 0-0.2-0.1q-0.1 0-0.2-0.1q-0.1 0-0.2-0.1q0-0.1-0.1-0.1q-0.1-0.1-0.2-0.2q0-0.1-0.1-0.1q0-0.1-0.1-0.2q0-0.1-0.1-0.2q0-0.1 0-0.2q-0.1-0.1-0.1-0.2q0-0.2 0-0.3q0-0.1 0-0.2q0-0.2 0-0.5q0.1-0.2 0.2-0.4q0.1-0.2 0.2-0.4q0.2-0.2 0.4-0.3q0.7-0.6 2.1-0.6q0.1 0 0.3 0q0.2 0 0.3 0q0.2 0 0.3 0q0.2 0 0.4 0.1q0.1 0 0.2 0q0.1 0.1 0.3 0.1q0.1 0 0.2 0.1q0.1 0 0.3 0l-0.4 1.7q-0.1-0.1-0.2-0.1q-0.1 0-0.2-0.1q-0.1 0-0.2 0q-0.1 0-0.2-0.1q-0.1 0-0.2 0q-0.2 0-0.3 0q-0.1 0-0.2 0q-0.1-0.1-0.3-0.1q-0.9 0-0.9 0.6q0 0 0 0.1q0 0 0 0q0 0 0 0.1q0 0 0 0q0 0 0 0.1q0.1 0 0.1 0q0 0 0 0.1q0 0 0.1 0q0 0 0.1 0.1q0 0 0 0q0.1 0 0.1 0.1q0.1 0 0.1 0q0.2 0.1 0.6 0.2q0.1 0.1 0.3 0.1q0.1 0.1 0.2 0.2q0.2 0 0.3 0.1q0.2 0.1 0.3 0.1q0.1 0.1 0.2 0.1q0.1 0.1 0.2 0.2q0.1 0 0.1 0.1q0.1 0.1 0.2 0.2q0.1 0 0.1 0.1q0.1 0.1 0.1 0.2q0.1 0 0.1 0.1q0 0.1 0.1 0.2q0 0.1 0 0.2q0 0.1 0 0.2q0.1 0.1 0.1 0.2q0 0.1 0 0.2q0 0.2-0.1 0.5q0 0.2-0.1 0.4q-0.1 0.3-0.3 0.4q-0.1 0.2-0.3 0.4q-0.9 0.5-2.4 0.5q-0.2 0-0.4 0q-0.2 0-0.4 0q-0.2 0-0.4-0.1q-0.2 0-0.4-0.1q-0.1 0-0.2 0q-0.1 0-0.2-0.1q-0.2 0-0.3 0q-0.1-0.1-0.2-0.1l0.4-1.7q0.1 0 0.2 0.1q0.2 0 0.3 0.1q0.1 0 0.3 0q0.1 0.1 0.2 0.1q0.2 0 0.3 0.1q0.2 0 0.3 0q0.1 0 0.3 0q0.1 0 0.2 0z" />
	</g>
</svg>