<svg version="1.2" xmlns="http://www.w3.org/2000/svg" viewBox="0 0 120 60" width="120" height="60">
	<title>linux_light-svg</title>
	<defs>
		<filter x="-50%" y="-50%" width="200%" height="200%" id="f1"> <feGaussianBlur stdDeviation=".3" /> </filter>
		<filter x="-50%" y="-50%" width="200%" height="200%" id="f2"> <feGaussianBlur stdDeviation=".1" /> </filter>
		<radialGradient id="g1" cx="22.5" cy="18.4" r="1.5" gradientUnits="userSpaceOnUse">
			<stop offset="0" stop-color="#000000"/>
			<stop offset=".8" stop-color="#000000"/>
			<stop offset="1" stop-color="#000000"/>
		</radialGradient>
		<radialGradient id="g2" cx="27.1" cy="18.4" r="2" gradientUnits="userSpaceOnUse">
			<stop offset="0" stop-color="#000000"/>
			<stop offset=".8" stop-color="#000000"/>
			<stop offset="1" stop-color="#000000"/>
		</radialGradient>
		<filter x="-50%" y="-50%" width="200%" height="200%" id="f3"> <feGaussianBlur stdDeviation=".2" /> </filter>
		<radialGradient id="g3" cx="24.1" cy="19.7" r="1.7" gradientUnits="userSpaceOnUse">
			<stop offset="0" stop-color="#020204"/>
			<stop offset=".7" stop-color="#020204"/>
			<stop offset="1" stop-color="#5c5c5c"/>
		</radialGradient>
		<filter x="-50%" y="-50%" width="200%" height="200%" id="f4"> <feGaussianBlur stdDeviation="0" /> </filter>
		<linearGradient id="g4" x1="27.1" y1="17.8" x2="27.9" y2="18.8" gradientUnits="userSpaceOnUse">
			<stop offset="0" stop-color="#949494" stop-opacity=".4"/>
			<stop offset=".5" stop-color="#949494"/>
			<stop offset="1" stop-color="#949494" stop-opacity=".4"/>
		</linearGradient>
		<clipPath clipPathUnits="userSpaceOnUse" id="cp1">
			<path d="m26.52 16.33c0.83 0.01 1.68 0.56 2.13 1.25c0.23 0.35 0.23 0.84 0.16 1.25c-0.11 0.63-0.27 1.52-0.88 1.69c-0.92 0.26-1.98-0.65-2.47-1.47c-0.27-0.45-0.23-1.07-0.06-1.57c0.13-0.39 0.46-0.7 0.78-0.97c0.1-0.08 0.21-0.19 0.34-0.18z" />
		</clipPath>
		<linearGradient id="g5" x1="26.4" y1="16.2" x2="29" y2="17.8" gradientUnits="userSpaceOnUse">
			<stop offset="0" stop-color="#747474"/>
			<stop offset=".1" stop-color="#8c8c8c"/>
			<stop offset=".3" stop-color="#a4a4a4"/>
			<stop offset=".5" stop-color="#d4d4d4"/>
			<stop offset=".6" stop-color="#d4d4d4"/>
			<stop offset="1" stop-color="#7c7c7c"/>
		</linearGradient>
		<linearGradient id="g6" x1="27.3" y1="15.5" x2="29.1" y2="17.2" gradientUnits="userSpaceOnUse">
			<stop offset="0" stop-color="#646464" stop-opacity="0"/>
			<stop offset=".3" stop-color="#646464" stop-opacity=".6"/>
			<stop offset=".5" stop-color="#646464"/>
			<stop offset=".7" stop-color="#646464" stop-opacity=".3"/>
			<stop offset="1" stop-color="#646464" stop-opacity="0"/>
		</linearGradient>
		<linearGradient id="g7" x1="22.1" y1="15.7" x2="23.8" y2="17.3" gradientUnits="userSpaceOnUse">
			<stop offset="0" stop-color="#646464" stop-opacity="0"/>
			<stop offset=".3" stop-color="#646464" stop-opacity=".6"/>
			<stop offset=".5" stop-color="#646464"/>
			<stop offset=".7" stop-color="#646464" stop-opacity=".3"/>
			<stop offset="1" stop-color="#646464" stop-opacity="0"/>
		</linearGradient>
		<linearGradient id="g8" x1="22.2" y1="17.7" x2="22.9" y2="19" gradientUnits="userSpaceOnUse">
			<stop offset="0" stop-color="#757574" stop-opacity="0"/>
			<stop offset=".3" stop-color="#757574"/>
			<stop offset=".5" stop-color="#757574"/>
			<stop offset="1" stop-color="#757574" stop-opacity="0"/>
		</linearGradient>
		<radialGradient id="g9" cx="25.9" cy="21.2" r="3.9" gradientUnits="userSpaceOnUse">
			<stop offset="0" stop-color="#d2940a"/>
			<stop offset=".8" stop-color="#d89c08"/>
			<stop offset=".9" stop-color="#b67e07"/>
			<stop offset="1" stop-color="#946106"/>
		</radialGradient>
		<linearGradient id="g10" x1="21.3" y1="21" x2="28.4" y2="21" gradientUnits="userSpaceOnUse">
			<stop offset="0" stop-color="#ad780a"/>
			<stop offset=".1" stop-color="#d89e08"/>
			<stop offset=".3" stop-color="#edb80b"/>
			<stop offset=".4" stop-color="#ebc80d"/>
			<stop offset=".5" stop-color="#f5d838"/>
			<stop offset=".8" stop-color="#f6d811"/>
			<stop offset="1" stop-color="#f5cd31"/>
		</linearGradient>
		<radialGradient id="g11" cx="25.2" cy="19.6" r=".4" gradientUnits="userSpaceOnUse">
			<stop offset="0" stop-color="#3a2903"/>
			<stop offset=".6" stop-color="#735208"/>
			<stop offset="1" stop-color="#ac8c04"/>
		</radialGradient>
		<radialGradient id="g12" cx="23.3" cy="19.7" r=".2" gradientUnits="userSpaceOnUse">
			<stop offset="0" stop-color="#3a2903"/>
			<stop offset=".6" stop-color="#735208"/>
			<stop offset="1" stop-color="#ac8c04"/>
		</radialGradient>
		<linearGradient id="g13" x1="28.4" y1="20.8" x2="28.4" y2="21.3" gradientUnits="userSpaceOnUse">
			<stop offset="0" stop-color="#f5ce2d"/>
			<stop offset="1" stop-color="#d79b08"/>
		</linearGradient>
		<clipPath clipPathUnits="userSpaceOnUse" id="cp2">
			<path d="m23.12 16.92c0.3 0.42 0.7 1.3 0.68 1.91c-0.02 0.61-0.18 1.22-0.5 1.54c-0.33 0.31-0.48 0.57-1.05 0.31c-0.56-0.26-1.01-1.31-1.05-2.01c-0.04-0.69 0.56-1.56 1.03-2.16c0.48-0.6 0.59-0.01 0.89 0.41z" />
		</clipPath>
		<radialGradient id="g14" cx="22.3" cy="17.3" r=".9" gradientUnits="userSpaceOnUse">
			<stop offset="0" stop-color="#c8c8c8"/>
			<stop offset="1" stop-color="#797978"/>
		</radialGradient>
		<clipPath clipPathUnits="userSpaceOnUse" id="cp3">
			<path d="m33.61 29.43c-0.46-0.38-1.02-0.63-1.48-1.01c-0.44-0.37-0.78-0.85-1.07-1.34c-0.26-0.44-0.48-0.9-0.57-1.4c-0.06-0.39-0.04-0.79 0.12-1.15q0.13-0.27 0.35-0.48q0.22-0.2 0.51-0.29c0.29-0.08 0.61-0.04 0.89 0.06q0.42 0.18 0.73 0.51c0.42 0.42 0.7 0.96 1.05 1.44c0.5 0.69 1.15 1.27 1.67 1.96c0.53 0.7 0.9 1.5 1.23 2.32q0.66 1.66 0.98 3.43c0.15 0.86 0.23 1.74 0.07 2.6c-0.16 0.86-0.57 1.7-1.27 2.24q-0.41 0.32-0.92 0.45q-0.51 0.14-1.02-0.01c-0.34-0.1-0.65-0.31-0.81-0.61c-0.15-0.27-0.18-0.59-0.13-0.89c0.04-0.3 0.14-0.59 0.25-0.88c0.52-1.43 1.05-2.94 0.82-4.45c-0.15-0.96-0.63-1.89-1.4-2.5" />
		</clipPath>
		<radialGradient id="g15" cx="18.8" cy="28.6" r="2.8" gradientUnits="userSpaceOnUse">
			<stop offset="0" stop-color="#000000"/>
			<stop offset="1" stop-color="#000000" stop-opacity=".3"/>
		</radialGradient>
		<radialGradient id="g16" cx="28.2" cy="30.1" r="3.4" gradientUnits="userSpaceOnUse">
			<stop offset="0" stop-color="#000000"/>
			<stop offset="1" stop-color="#000000" stop-opacity=".3"/>
		</radialGradient>
		<radialGradient id="g17" cx="23.6" cy="29.5" r="1.4" gradientUnits="userSpaceOnUse">
			<stop offset="0" stop-color="#000000"/>
			<stop offset="1" stop-color="#000000" stop-opacity=".3"/>
		</radialGradient>
		<linearGradient id="g18" x1="31.3" y1="41.8" x2="31.8" y2="45.2" gradientUnits="userSpaceOnUse">
			<stop offset="0" stop-color="#000000"/>
			<stop offset="1" stop-color="#000000" stop-opacity="0"/>
		</linearGradient>
		<clipPath clipPathUnits="userSpaceOnUse" id="cp4">
			<path d="m41.24 42.76c0.12 0.2-0.2 0.42-0.35 0.59c-0.34 0.37-0.81 0.61-1.24 0.88c-0.74 0.46-1.58 0.74-2.31 1.22c-0.48 0.32-0.92 0.71-1.36 1.09c-0.38 0.33-0.69 0.74-1.1 1.01c-0.42 0.26-0.89 0.52-1.38 0.58c-0.6 0.07-1.24-0.03-1.79-0.27c-0.39-0.17-0.77-0.43-1-0.78c-0.23-0.36-0.26-0.82-0.28-1.25c-0.04-0.75 0.17-1.51 0.27-2.26c0.09-0.63 0.24-1.24 0.29-1.88c0.09-1.14-0.1-2.3 0.04-3.44c0.04-0.37-0.03-0.84 0.25-1.08c0.25-0.24 0.68-0.14 1.02-0.14c0.42 0.01 0.83 0.12 1.24 0.22c0.26 0.06 0.5 0.17 0.76 0.22q0.65 0.14 1.31 0.12c0.48-0.01 0.94-0.22 1.41-0.22q0.3 0.01 0.57 0.1q0.29 0.09 0.52 0.29q0.16 0.17 0.24 0.38c0.08 0.21 0.11 0.44 0.14 0.66c0.03 0.2-0.02 0.41 0.05 0.6c0.23 0.6 0.7 1.09 1.16 1.54c0.22 0.25 0.5 0.45 0.77 0.61c0.29 0.17 0.55 0.31 0.69 0.6c0.08 0.19-0.07 0.47 0.08 0.61z" />
		</clipPath>
		<linearGradient id="g19" x1="32" y1="47.7" x2="38" y2="38" gradientUnits="userSpaceOnUse">
			<stop offset="0" stop-color="#3e2a06"/>
			<stop offset="1" stop-color="#ad780a"/>
		</linearGradient>
		<clipPath clipPathUnits="userSpaceOnUse" id="cp5">
			<path d="m41.24 42.76c0.12 0.2-0.2 0.42-0.35 0.59c-0.34 0.37-0.81 0.61-1.24 0.88c-0.74 0.46-1.58 0.74-2.31 1.22c-0.48 0.32-0.92 0.71-1.36 1.09c-0.38 0.33-0.69 0.74-1.1 1.01c-0.42 0.26-0.89 0.52-1.38 0.58c-0.6 0.07-1.24-0.03-1.79-0.27c-0.39-0.17-0.77-0.43-1-0.78c-0.23-0.36-0.26-0.82-0.28-1.25c-0.04-0.75 0.17-1.51 0.27-2.26c0.09-0.63 0.24-1.24 0.29-1.88c0.09-1.14-0.1-2.3 0.04-3.44c0.04-0.37-0.03-0.84 0.25-1.08c0.25-0.24 0.68-0.14 1.02-0.14c0.42 0.01 0.83 0.12 1.24 0.22c0.26 0.06 0.5 0.17 0.76 0.22q0.65 0.14 1.31 0.12c0.48-0.01 0.94-0.22 1.41-0.22q0.3 0.01 0.57 0.1q0.29 0.09 0.52 0.29q0.16 0.17 0.24 0.38c0.08 0.21 0.11 0.44 0.14 0.66c0.03 0.2-0.02 0.41 0.05 0.6c0.23 0.6 0.7 1.09 1.16 1.54c0.22 0.25 0.5 0.45 0.77 0.61c0.29 0.17 0.55 0.31 0.69 0.6c0.08 0.19-0.07 0.47 0.08 0.61z" />
		</clipPath>
		<filter x="-50%" y="-50%" width="200%" height="200%" id="f5"> <feGaussianBlur stdDeviation=".6" /> </filter>
		<clipPath clipPathUnits="userSpaceOnUse" id="cp6">
			<path d="m41.24 42.76c0.12 0.2-0.2 0.42-0.35 0.59c-0.34 0.37-0.81 0.61-1.24 0.88c-0.74 0.46-1.58 0.74-2.31 1.22c-0.48 0.32-0.92 0.71-1.36 1.09c-0.38 0.33-0.69 0.74-1.11 1.01c-0.41 0.26-0.88 0.52-1.37 0.58c-0.6 0.07-1.24-0.03-1.79-0.27c-0.39-0.17-0.77-0.43-1-0.78c-0.23-0.36-0.26-0.82-0.28-1.25c-0.04-0.75 0.17-1.51 0.27-2.26c0.09-0.63 0.24-1.24 0.29-1.87c0.09-1.15-0.1-2.31 0.04-3.45c0.04-0.37-0.03-0.84 0.25-1.08c0.25-0.24 0.68-0.14 1.02-0.14c0.42 0.01 0.83 0.12 1.24 0.22c0.26 0.06 0.5 0.17 0.76 0.22q0.65 0.14 1.31 0.12c0.48-0.01 0.94-0.22 1.41-0.22q0.3 0.01 0.57 0.1q0.3 0.09 0.52 0.29q0.16 0.17 0.24 0.39c0.08 0.21 0.11 0.43 0.14 0.65c0.03 0.2-0.02 0.41 0.05 0.6c0.23 0.6 0.7 1.09 1.16 1.55c0.22 0.24 0.5 0.44 0.77 0.6c0.29 0.17 0.55 0.31 0.69 0.6c0.08 0.19-0.07 0.48 0.08 0.61z" />
		</clipPath>
		<filter x="-50%" y="-50%" width="200%" height="200%" id="f6"> <feGaussianBlur stdDeviation=".5" /> </filter>
		<linearGradient id="g20" x1="33.6" y1="37.5" x2="33.4" y2="39.1" gradientUnits="userSpaceOnUse">
			<stop offset="0" stop-color="#f3cd0c"/>
			<stop offset="1" stop-color="#f3cd0c" stop-opacity="0"/>
		</linearGradient>
		<filter x="-50%" y="-50%" width="200%" height="200%" id="f7"> <feGaussianBlur stdDeviation=".4" /> </filter>
		<radialGradient id="g21" cx="34.6" cy="39.2" r="2.9" gradientUnits="userSpaceOnUse">
			<stop offset="0" stop-color="#110800"/>
			<stop offset=".6" stop-color="#a65a00" stop-opacity=".8"/>
			<stop offset="1" stop-color="#ff921e" stop-opacity="0"/>
		</radialGradient>
		<radialGradient id="g22" cx="34.6" cy="38.8" r="2.8" gradientUnits="userSpaceOnUse">
			<stop offset="0" stop-color="#110800"/>
			<stop offset=".6" stop-color="#a65a00" stop-opacity=".8"/>
			<stop offset="1" stop-color="#ff921e" stop-opacity="0"/>
		</radialGradient>
		<clipPath clipPathUnits="userSpaceOnUse" id="cp7">
			<path d="m37.51 36.93q0.09 0.27 0.02 0.56q-0.1 0.37-0.32 0.68q-0.16 0.24-0.36 0.44q-0.2 0.21-0.43 0.38q-0.23 0.17-0.48 0.31q-0.25 0.13-0.53 0.22c-0.43 0.14-0.91 0.15-1.36 0.02c-0.25-0.08-0.5-0.2-0.68-0.4c-0.21-0.25-0.3-0.59-0.32-0.92c-0.04-0.45 0.02-0.9 0.2-1.31q0.16-0.35 0.44-0.61q0.29-0.26 0.66-0.35c0.28-0.07 0.58-0.04 0.86 0.01l0.82 0.16c0.29 0.06 0.58 0.1 0.85 0.22q0.21 0.08 0.38 0.23q0.17 0.15 0.25 0.36" />
		</clipPath>
		<radialGradient id="g23" cx="36.8" cy="36.6" r="1" gradientUnits="userSpaceOnUse">
			<stop offset="0" stop-color="#7c7c7c"/>
			<stop offset="1" stop-color="#7c7c7c" stop-opacity=".3"/>
		</radialGradient>
		<clipPath clipPathUnits="userSpaceOnUse" id="cp8">
			<path d="m37.51 36.93q0.09 0.27 0.02 0.56q-0.1 0.37-0.32 0.68q-0.16 0.24-0.36 0.44q-0.2 0.21-0.43 0.38q-0.23 0.17-0.48 0.31q-0.25 0.13-0.53 0.22c-0.43 0.14-0.91 0.15-1.36 0.02c-0.25-0.08-0.5-0.2-0.68-0.4c-0.21-0.25-0.3-0.59-0.32-0.92c-0.04-0.45 0.02-0.9 0.2-1.31q0.16-0.35 0.44-0.61q0.29-0.26 0.66-0.35c0.28-0.07 0.58-0.04 0.86 0.01l0.82 0.16c0.29 0.06 0.58 0.1 0.85 0.22q0.21 0.08 0.38 0.23q0.17 0.15 0.25 0.36" />
		</clipPath>
		<linearGradient id="g24" x1="34" y1="36.2" x2="34.4" y2="36.2" gradientUnits="userSpaceOnUse">
			<stop offset="0" stop-color="#7c7c7c"/>
			<stop offset="1" stop-color="#7c7c7c" stop-opacity=".3"/>
		</linearGradient>
		<clipPath clipPathUnits="userSpaceOnUse" id="cp9">
			<path d="m19.99 25.83c-0.11 0.58-0.23 1.27-0.55 1.92c-0.32 0.64-1.03 1.31-1.4 1.91c-0.36 0.61-0.59 1.05-0.88 1.69c-0.29 0.64-0.38 0.58-0.44 1.01c-0.07 0.43-0.28 1.99-0.18 2.77c0.05 0.46 0.53 0.6 0.33 0.96c-0.2 0.36 0.18 0.24 0.69 0.79c0.51 0.55 2.22 1.87 2.84 2.41c0.63 0.53 0.85 0.61 1.23 1.2c0.38 0.59 0.45 0.8 0.09 1.34c-0.36 0.53-1.44 0.32-2.09 0.15c-0.65-0.16-0.95-0.32-1.83-1.06c-0.88-0.75-2.49-2.44-3.04-3.5c-0.54-1.06-0.51-1.54-0.47-2.1c0.04-0.57 0.32-0.8 0.51-1.28c0.2-0.49 0.59-1.11 0.87-1.7c0.29-0.59 0.51-1.32 0.75-1.92c0.25-0.6 0.27-1.17 0.54-1.73c0.26-0.57 0.82-1.24 1.18-1.75c0.36-0.51 0.73-0.86 1.08-1.35c0.34-0.48 0.98-1.28 0.98-1.28c0 0-0.11 0.94-0.21 1.52z" />
		</clipPath>
		<clipPath clipPathUnits="userSpaceOnUse" id="cp10">
			<path d="m15.13 36.39c0.8-0.17 1.51 0.61 2.12 1.14c0.8 0.7-1.07 3.26 1.66 2.48c0.73-0.2 0.86 1.42 1.27 2.07c0.51 0.8 1.45 1.71 1.71 2.63c0.2 0.71 0.17 1.37-0.21 2c-0.44 0.76-1.47 1.31-2.35 1.4c-0.72 0.08-1.49-0.48-2.18-0.69c-1.54-0.48-2.98-0.73-4.52-1.21l-1.37-0.43c-0.57-0.17-0.81-0.12-1.09-0.6c-0.34-0.56 0.08-1.22 0.39-1.85c0.51-1.04 0.24-2.23 0.06-3.2c-0.12-0.61-0.08-0.99 0.34-1.35c0.63-0.52 1.82-0.19 2.55-0.51c0.73-0.32 0.84-1.71 1.62-1.88z" />
		</clipPath>
		<linearGradient id="g25" x1="13.3" y1="39" x2="19.3" y2="49" gradientUnits="userSpaceOnUse">
			<stop offset="0" stop-color="#b98309"/>
			<stop offset="1" stop-color="#382605"/>
		</linearGradient>
		<linearGradient id="g26" x1="19.3" y1="41.5" x2="21.2" y2="45.1" gradientUnits="userSpaceOnUse">
			<stop offset="0" stop-color="#ebc40c"/>
			<stop offset="1" stop-color="#ebc40c" stop-opacity="0"/>
		</linearGradient>
	</defs>
	<style>
		.s0 { fill: #020204 } 
		.s1 { fill: #ffffff } 
		.s2 { fill: #000000 } 
		.s3 { opacity: .3;filter: url(#f1);fill: #ffffff } 
		.s4 { opacity: .3;filter: url(#f2);fill: #ffffff } 
		.s5 { fill: url(#g1) } 
		.s6 { fill: url(#g2) } 
		.s7 { opacity: .3;filter: url(#f3);fill: #000000 } 
		.s8 { fill: url(#g3) } 
		.s9 { filter: url(#f1);fill: #7c7c7c } 
		.s10 { filter: url(#f4);fill: #141413 } 
		.s11 { filter: url(#f2);fill: url(#g4) } 
		.s12 { fill: url(#g5) } 
		.s13 { filter: url(#f4);fill: url(#g6) } 
		.s14 { filter: url(#f4);fill: url(#g7) } 
		.s15 { filter: url(#f2);fill: url(#g8) } 
		.s16 { fill: url(#g9) } 
		.s17 { filter: url(#f2);fill: #d9b30d } 
		.s18 { filter: url(#f2);fill: #604405 } 
		.s19 { fill: url(#g10) } 
		.s20 { filter: url(#f2);fill: #f6da4a } 
		.s21 { opacity: .8;filter: url(#f4);fill: url(#g11) } 
		.s22 { opacity: .8;filter: url(#f4);fill: url(#g12) } 
		.s23 { filter: url(#f4);fill: url(#g13) } 
		.s24 { fill: url(#g14) } 
		.s25 { filter: url(#f3);fill: #838384 } 
		.s26 { opacity: .3;filter: url(#f2);fill: url(#g15) } 
		.s27 { opacity: .4;filter: url(#f2);fill: url(#g16) } 
		.s28 { opacity: .2;filter: url(#f2);fill: url(#g17) } 
		.s29 { opacity: .1;filter: url(#f3);fill: #000000 } 
		.s30 { filter: url(#f2);fill: #838384 } 
		.s31 { opacity: .2;filter: url(#f1);fill: url(#g18) } 
		.s32 { fill: url(#g19) } 
		.s33 { filter: url(#f5);fill: #cd8907 } 
		.s34 { filter: url(#f6);fill: #f5c021 } 
		.s35 { filter: url(#f2);fill: url(#g20) } 
		.s36 { opacity: .7;filter: url(#f1);fill: #7c7c7c } 
		.s37 { opacity: .3;filter: url(#f2);fill: #7c7c7c } 
		.s38 { filter: url(#f7);fill: url(#g21) } 
		.s39 { filter: url(#f2);fill: url(#g22) } 
		.s40 { filter: url(#f2);fill: url(#g23) } 
		.s41 { filter: url(#f2);fill: url(#g24) } 
		.s42 { opacity: .9;filter: url(#f2);fill: #ffffff } 
		.s43 { fill: url(#g25) } 
		.s44 { filter: url(#f6);fill: #d99a03 } 
		.s45 { filter: url(#f1);fill: #f5bd0c } 
		.s46 { filter: url(#f4);fill: url(#g26) } 
		.s47 { fill: #2a0dff } 
	</style>
	<g id="Layer">
		<g id="Layer">
			<path id="Layer" class="s0" d="m33 23.9l1.3 2.7c0.8 1.7 1.4 3.5 1.6 5.4c0.3 1.8 0.2 3.8-0.4 5.6c-0.7 2-1.9 3.8-3.5 5.2c-1.8 1.8-4.1 3.1-6.6 3.2c-1.6 0.1-3.3-0.4-4.7-1.1c-1.2-0.7-2.3-1.5-3.2-2.6c-0.9-1-1.6-2.3-1.9-3.6c-0.4-1.7-0.2-3.4 0.4-5c0.4-1.2 1-2.2 1.4-3.4c0.5-1.2 0.7-2.5 1.4-3.7c0.5-1.1 1.4-2 1.8-3.1c0.3-0.6 0.4-1.4 0.6-2.1c0.2-0.6 0.4-1.3 0.9-1.9c0.5-0.6 1.4-1 2.2-1.1c0.9-0.1 1.8 0 2.6 0.2q1 0.3 2 0.6c0.5 0.2 1.1 0.4 1.6 0.8c0.6 0.4 1.1 1.1 1.5 1.8c0.4 0.7 0.7 1.4 1 2.1z" />
			<path id="Layer" class="s1" d="m25.2 45.9q-0.1 0-0.1 0q0 0-0.1 0q0-0.1 0-0.1q-0.1 0-0.1 0q0-0.1-0.1-0.1q0 0 0 0q0-0.1-0.1-0.1q0-0.1 0-0.1q-0.1-0.2 0-0.5q0.1-0.2 0.3-0.4c0.2-0.2 0.5-0.3 0.8-0.6c0.2-0.2 0.3-0.4 0.4-0.7c0.1-0.3 0.2-0.5 0.4-0.8c0.4-0.7 1.1-1.2 1.8-1.6c0.5-0.3 1.1-0.5 1.7-0.6c0.6 0 1.2 0.1 1.7 0.4c0.3 0.2 0.6 0.6 0.9 0.9l0.6 1.1c0.4 0.7 0.9 1.3 1.1 2c0.1 0.4 0.1 0.7 0 1.1c0 0.4-0.2 0.7-0.5 1q-0.1 0-0.2 0.1q0 0-0.1 0q-0.1 0.1-0.2 0.1q-0.1 0-0.2 0.1q-0.3 0-0.7 0c-1 0-1.9-0.3-2.8-0.5l-1.8-0.4l-2.1-0.2c-0.2 0-0.4 0-0.6-0.1z" />
			<path id="Layer" class="s1" d="m23.8 46c-0.6 0-1.1 0.1-1.7 0.2l-1.6 0.4c-0.9 0.2-1.8 0.5-2.7 0.5q-0.1 0-0.2 0q-0.1 0-0.2 0q-0.1 0-0.2 0q-0.1 0-0.2 0q-0.3-0.1-0.6-0.3c-0.3-0.3-0.5-0.6-0.6-1q-0.1-0.5 0.1-1.1c0.2-0.7 0.7-1.3 1.1-2l0.6-1.1c0.2-0.3 0.5-0.7 0.9-0.9c0.4-0.3 1-0.4 1.6-0.4c0.6 0.1 1.1 0.3 1.6 0.6c0.8 0.4 1.4 0.9 1.8 1.6c0.3 0.5 0.5 1.1 0.8 1.5c0.2 0.3 0.4 0.5 0.6 0.8q0 0 0 0.1q0.1 0 0.1 0.1q0 0 0 0.1q0 0 0 0.1q0 0.2-0.1 0.4q0 0.1 0 0.1q-0.1 0-0.1 0.1q0 0 0 0q-0.1 0-0.1 0q0 0.1-0.1 0.1q0 0 0 0q-0.1 0-0.1 0q-0.1 0-0.1 0.1q-0.3 0-0.6 0zm-3.2-23.9l-0.2-5.7c0-1 0.2-2 0.6-2.8q0.2-0.3 0.4-0.6q0.2-0.3 0.4-0.6q0.3-0.2 0.6-0.5q0.2-0.2 0.6-0.3c0.8-0.5 1.7-0.7 2.6-0.6c1.2 0 2.4 0.3 3.4 1.1q0.9 0.6 1.5 1.6q0.6 0.9 0.8 1.8c0.4 1.3 0.3 2.7 0.4 4c0 1.2 0.2 2.5 0.2 3.8c-0.1 0.3-0.1 0.5-0.2 0.8q-0.1 0.1-0.1 0.2q-0.1 0-0.1 0.1q-0.1 0.1-0.2 0.1q-0.1 0.1-0.2 0.2q-0.1 0-0.1 0q-0.1 0.1-0.2 0.1q-0.1 0-0.2 0.1q-0.1 0-0.2 0c-0.6 0.1-1.1 0-1.6 0.1c-0.8 0.1-1.5 0.3-2.3 0.5c-0.9 0.1-1.9 0-2.8 0l-1.1-0.1q-0.5-0.1-1-0.3q-0.4-0.2-0.6-0.4q-0.2-0.3-0.3-0.6c-0.1-0.4-0.1-0.7 0-1q0-0.2 0-0.3q0-0.1-0.1-0.2q0-0.1 0-0.3q0-0.1 0-0.2z" />
		</g>
		<path id="Layer" class="s2" d="m22.1 21.7l2.6-0.5c0.7-0.1 1.2-0.2 1.9-0.1c0.6 0 1.2 0.3 1.6 0.7c0.4 0.4 0.6 1 0.8 1.5l0.9 1.9q0.7 1.4 0.9 2.9q0.2 0.2 0.4 0.4q0.2 0.2 0.3 0.5q0.2 0.2 0.3 0.4q0.2 0.3 0.3 0.6c1 2 1 4.3 0.7 6.6c-0.1 1.3-0.4 2.6-1.1 3.6c-0.4 0.6-0.8 1.1-1.3 1.5c-0.8 0.8-1.6 1.6-2.6 2.1c-1.9 1-4.2 1-6.1 0.1q-0.9-0.5-1.6-1.1c-0.9-0.7-1.6-1.8-2.1-2.9c-0.6-1.5-0.8-3.2-0.7-4.9c0.2-1.3 0.5-2.6 1.1-3.9q0.1-0.3 0.3-0.6q0.1-0.3 0.3-0.6q0.1-0.3 0.3-0.6q0.2-0.3 0.4-0.5q-0.1-0.8 0.1-1.4c0.2-0.8 0.7-1.4 1.1-2.1q0.4-0.5 0.7-1.2c0.3-0.7 0.5-1.6 0.4-2.4z" />
		<path id="Layer" class="s3" d="m21.7 23.9c-0.1-0.4-0.1-0.9-0.3-1.4q-0.1-0.1-0.2-0.3q0-0.1 0-0.2q0-0.1 0.1-0.2q0.1-0.2 0.2-0.2q0.2-0.1 0.4-0.1c0.2 0 0.4 0.1 0.6 0.1q0.4 0 0.6-0.1q0.3-0.1 0.6-0.2c0.5 0 1 0.1 1.4 0.1c0.5 0 0.9-0.1 1.3-0.1c0.3 0 0.7 0 1 0c0.2 0 0.5-0.1 0.7-0.1q0.2 0.1 0.4 0.1q0.2 0.1 0.3 0.3c0 0.1 0 0.3 0 0.5c0 0.1 0 0.3 0.1 0.5c0 0.1 0.2 0.3 0.2 0.5q0.1 0.1 0.1 0.2q0 0.2-0.1 0.3q0 0.1-0.2 0.1q-0.1 0-0.2 0c-0.1-0.1-0.3-0.1-0.4-0.1c-0.2-0.1-0.4 0-0.6 0.1q-0.2 0.2-0.4 0.4q-0.5 0.5-1.1 0.8c-0.3 0.2-0.7 0.3-1 0.5q-0.2 0.2-0.5 0.4q-0.3 0.1-0.6 0.2q-0.4 0-0.7-0.2q-0.3-0.1-0.5-0.3c-0.5-0.4-0.9-0.9-1.2-1.6z" />
		<path id="Layer" class="s4" d="m21.2 22.1q0-0.1 0-0.2q0 0 0.1 0q0.1-0.1 0.1-0.1q0.1 0 0.2 0q0.1 0 0.3-0.1q0.1 0 0.2-0.1c0.1-0.1 0.3-0.3 0.4-0.4q0.3-0.1 0.6-0.2q0.3 0 0.6 0c0.5 0 1 0.1 1.4 0.1c0.5 0 0.9-0.1 1.3-0.1c0.3-0.1 0.7 0 1 0c0.2-0.1 0.5-0.1 0.7-0.1q0.2 0 0.4 0.1q0.2 0 0.3 0.2q0 0.2 0 0.4q-0.1 0.2-0.1 0.4c0 0.2 0 0.3-0.1 0.4q-0.1 0.2-0.3 0.3q-0.2 0.1-0.4 0.1c-0.7 0.2-1.1 0.7-1.7 1q-0.5 0.3-1 0.4q-0.5 0.2-1.1 0.2q-0.5-0.1-0.9-0.3c-0.4-0.3-0.7-0.7-1-1q-0.4-0.5-1-0.9q-0.1-0.1 0-0.1z" />
		<path id="Layer" class="s5" d="m22.2 16.5q0.3 0 0.5 0.1q0.2 0.1 0.4 0.3q0.4 0.4 0.5 0.9q0.2 0.5 0.2 1q0 0.1 0 0.2q0 0.2 0 0.3q0 0.1-0.1 0.2q0 0.1 0 0.2q-0.1 0.4-0.4 0.7q-0.2 0.2-0.5 0.3q-0.1 0-0.1 0q-0.1 0-0.2 0q0 0-0.1 0q-0.1 0-0.2 0q0 0-0.1-0.1q-0.1 0-0.1 0q-0.1-0.1-0.2-0.1q0-0.1-0.1-0.1q0-0.1-0.1-0.1q0-0.1-0.1-0.2q0 0 0-0.1q-0.1-0.1-0.1-0.1c-0.1-0.4-0.2-0.8-0.2-1.2c0-0.5-0.1-0.9 0.1-1.4q0.1-0.3 0.3-0.5q0.1-0.1 0.2-0.1q0-0.1 0.1-0.1q0.1 0 0.2-0.1q0 0 0.1 0z" />
		<path id="Layer" class="s6" d="m26.5 16.3q0.4-0.1 0.7 0q0.3 0 0.6 0.2c0.4 0.2 0.7 0.6 0.9 1.1q0.2 0.6 0.1 1.2q0 0.5-0.2 1c-0.1 0.3-0.4 0.6-0.7 0.7q-0.1 0.1-0.2 0.1q-0.1 0-0.2 0.1q-0.1 0-0.2 0q-0.1 0-0.2 0q-0.1-0.1-0.2-0.1q-0.1 0-0.2 0q-0.1-0.1-0.1-0.1q-0.1-0.1-0.2-0.1c-0.5-0.3-0.8-0.8-0.9-1.4c-0.2-0.5-0.3-1-0.1-1.5c0.1-0.4 0.4-0.8 0.8-1q0.1-0.1 0.3-0.2z" />
		<path id="Layer" class="s7" d="m23.7 19.1c0.5-0.2 1.1-0.2 1.6-0.1q0.3 0.1 0.7 0.3q0.3 0.2 0.6 0.4q0.6 0.3 1.3 0.5q0.3 0 0.5 0.1q0.2 0.1 0.3 0.2q0 0.1 0 0.2q0 0 0 0q0 0 0 0q0 0.1 0 0.1q0 0 0 0q-0.1 0.1-0.2 0.1q0 0-0.1 0q-0.1 0-0.2 0q-0.2 0-0.4 0q-0.1 0-0.2 0.1q-0.1 0.1-0.1 0.2q-0.3 0.2-0.6 0.4c-0.4 0.3-0.8 0.6-1.2 0.8q-0.5 0.1-1 0.2q-0.6 0.1-1.2 0.1c-0.4 0-0.8-0.1-1.1-0.3l-0.5-0.3q-0.2-0.2-0.5-0.2q0 0-0.1 0q-0.1-0.1-0.1-0.1q0 0 0-0.1q0 0 0 0q0 0 0 0q0 0 0 0q0 0 0 0q0-0.1 0-0.2c0-0.1 0-0.3 0-0.4c0.1-0.2 0.2-0.3 0.3-0.4l0.7-0.6c0.4-0.4 0.9-0.8 1.5-1z" />
		<path id="Layer" class="s8" d="m23.3 19.5c0.2-0.3 0.4-0.6 0.6-0.9q0.1-0.1 0.3-0.3q0.1 0 0.1 0q0.1-0.1 0.2-0.1q0 0 0.1 0q0.1 0 0.1 0q0.3 0 0.5 0.2q0.2 0.2 0.3 0.5c0.1 0.2 0.2 0.3 0.3 0.5c0.1 0.1 0.3 0.2 0.4 0.3q0 0.1 0.1 0.1q0 0 0 0q0 0 0.1 0.1q0 0 0 0q0.1 0.1 0.1 0.3q0.1 0.1 0 0.3q0 0.1-0.2 0.2q-0.2 0.2-0.5 0.2c-0.3 0.1-0.7 0-1.1 0c-0.4 0-0.8 0.1-1.2 0.1q0 0-0.1 0q-0.1 0-0.2 0q0 0-0.1-0.1q-0.1 0-0.1 0q-0.1-0.1-0.1-0.1q0 0 0 0q-0.1-0.1-0.1-0.1q0 0 0-0.1q-0.1-0.1-0.1-0.2q0-0.1 0-0.1q0 0 0-0.1q0 0 0 0q0-0.1 0-0.1q0.1-0.1 0.2-0.2q0.2-0.2 0.4-0.4z" />
		<path id="Layer" class="s9" d="m29.3 14.1c0.1 0.2-0.6-0.7-0.9-0.3c-0.3 0.3-1.1 0.7-1.1 0.7c0 0 0.4-0.9 0.3-1.1c-0.2-0.3-0.3-0.6 0-0.8c0.3-0.3 1.7 1.3 1.7 1.5z" />
		<g id="Layer">
			<path id="Layer" class="s1" d="m27.3 17.6c0.3 0.1 0.5 0.3 0.7 0.6q0.2 0.4 0.1 0.8q0 0.2-0.1 0.5q-0.2 0.2-0.4 0.3q-0.2 0.2-0.5 0.2q-0.3 0-0.6-0.2q-0.2-0.2-0.3-0.5q-0.1-0.3-0.1-0.6q0-0.4 0.2-0.7q0.1-0.2 0.3-0.3q0.2-0.1 0.4-0.1q0.2 0 0.3 0z" />
			<path id="Layer" class="s10" d="m27.4 18.4c0 0 0 0.1 0 0.2c0 0.1-0.2 0.2-0.4 0.1c0 0-0.1-0.1 0-0.2c0-0.1 0.2 0 0.3-0.1q0 0 0.1 0z" />
			<path id="Layer" class="s11" d="m27.3 18.3c-0.1-0.1-0.3-0.3-0.3-0.4c-0.1-0.1 0.4 0 0.5 0.1c0.2 0.2 0.4 0.6 0.3 0.7c-0.1 0.1-0.4-0.2-0.5-0.4z" />
		</g>
		<g id="Clip-Path" clip-path="url(#cp1)">
			<path id="Layer" class="s12" d="m24.9 17.7q-0.1-0.1-0.1-0.2c0-0.3 0.1-0.5 0.1-0.8c0-0.3-0.1-0.7-0.2-1.1q0-0.2 0-0.5q0.1-0.3 0.3-0.5q0.2-0.1 0.3-0.1q0.2-0.1 0.4-0.1c0.3-0.1 0.5-0.2 0.8-0.2q0.3 0 0.7 0c0.5 0.1 1 0.1 1.5 0.3c0.5 0.2 0.9 0.4 1.2 0.9q0.2 0.2 0.3 0.4c0.2 0.5 0.5 1 0.6 1.5c0 0.3 0 0.5-0.2 0.8q-0.1 0.1-0.2 0.3q-0.2 0.1-0.4 0.1q-0.2 0-0.5-0.1q-0.3-0.1-0.7-0.4q-0.3-0.3-0.6-0.5c-0.7-0.4-1.6-0.5-2.3-0.3q-0.2 0.1-0.3 0.1q-0.1 0.1-0.3 0.2q-0.1 0-0.2 0.1q-0.1 0.1-0.2 0.2" />
		</g>
		<g id="Layer">
			<path id="Layer" class="s13" d="m28.1 15.8c0.5 0.3 0.8 0.8 1.1 1.3q-0.1 0.1-0.2 0.2c-0.2-0.5-0.6-1-1-1.3q-0.4-0.2-0.8-0.3q0.1-0.1 0.2-0.2q0.4 0.1 0.7 0.3z" />
			<path id="Layer" class="s14" d="m22.8 15.9q0.3 0.1 0.6 0.4q0.1 0.1 0.2 0.2q0 0.1 0.1 0.2q0 0.1 0.1 0.2q0 0.1 0 0.2q0 0.1 0.1 0.2q-0.3-0.6-0.8-1q-0.2-0.3-0.5-0.4q-0.3-0.1-0.5-0.2q0.1 0 0.1 0q0.3 0 0.6 0.2z" />
		</g>
		<path id="Layer" class="s1" d="m21.7 18.4q0-0.2 0.1-0.4q0-0.1 0.1-0.1q0 0 0-0.1q0.1 0 0.1 0q0-0.1 0.1-0.1q0.1 0 0.3 0q0.2 0 0.3 0.2c0.2 0.1 0.3 0.3 0.4 0.6c0.1 0.3 0.1 0.6 0 1q0 0.1-0.1 0.3q-0.1 0-0.1 0q0 0.1 0 0.1q-0.1 0-0.1 0q-0.1 0-0.1 0.1q0 0-0.1 0q0 0-0.1 0q0 0-0.1-0.1q0 0-0.1 0q-0.1-0.1-0.3-0.2q0-0.1-0.1-0.1q0-0.1 0-0.1q-0.1-0.1-0.1-0.2q0 0-0.1-0.1c-0.1-0.3-0.1-0.6 0-0.8z" />
		<path id="Layer" class="s15" d="m22.3 18c0.1-0.1 0.2 0 0.2 0c0.2 0.1 0.3 0.3 0.4 0.4c0 0.2 0.1 0.5-0.1 0.6c0 0-0.1 0-0.1 0c-0.1-0.1 0-0.3-0.1-0.5q0-0.1-0.1-0.2c-0.1 0-0.2-0.1-0.2-0.1c0-0.1 0-0.2 0-0.2z" />
		<g id="Layer">
			<path id="Layer" class="s16" d="m21.2 21.8q0 0 0 0q0-0.1 0-0.1q0.1 0 0.1 0q0-0.1 0-0.1q0.1 0 0.1-0.1q0.1 0 0.2 0q0.1 0 0.3 0q0.1-0.1 0.2-0.2c0.2-0.1 0.3-0.3 0.4-0.4q0.3-0.2 0.6-0.2q0.3-0.1 0.6-0.1c0.5 0.1 1 0.1 1.4 0.1c0.5 0 0.9-0.1 1.3-0.1c0.3 0 0.7 0 1 0c0.2 0 0.5-0.1 0.7-0.1q0.2 0 0.4 0.1q0.2 0.1 0.3 0.3q0 0.2 0 0.4q-0.1 0.2-0.1 0.5c0 0.1 0 0.2-0.1 0.4q-0.1 0.2-0.3 0.3q-0.2 0.1-0.4 0.1c-0.7 0.3-1.1 0.8-1.7 1.1q-0.5 0.3-1 0.5q-0.5 0.1-1.1 0.1q-0.5-0.1-0.9-0.3c-0.4-0.3-0.7-0.7-1-1.1c-0.2-0.3-0.4-0.5-0.7-0.7q-0.1 0-0.2-0.1q0-0.1-0.1-0.1q0-0.1 0-0.1q0-0.1 0-0.1z" />
			<path id="Layer" class="s17" d="m23.1 22.3q0.1-0.1 0.2-0.1q0.1 0 0.2 0q0.1 0 0.2 0q0.1 0 0.2 0q0.2 0 0.5 0q0.1 0.1 0.2 0.1q0.1 0.1 0.1 0.2q0.1 0.1 0 0.3q0 0 0 0q0 0 0 0.1q0 0 0 0q0 0 0 0.1q-0.2 0.2-0.4 0.3c-0.2 0.1-0.5 0.1-0.7 0.1q-0.2-0.1-0.3-0.2q-0.1-0.1-0.2-0.2q-0.1-0.2-0.1-0.3q0-0.2 0-0.3" />
			<path id="Layer" class="s18" d="m22.2 20.8q0.7-0.4 1.5-0.5q0.8-0.2 1.6-0.1q0.1 0 0.2 0q0 0.1 0.1 0.1q0.1 0 0.2 0q0.1 0 0.2 0.1q0.3 0.1 0.6 0.2c0.2 0 0.5 0 0.7 0c0.2 0 0.5 0.1 0.6 0.2q0.1 0.1 0.1 0.1q0.1 0 0.1 0.1q0 0 0 0.1q-0.1 0-0.1 0q0 0 0 0c-0.2 0.1-0.4 0.2-0.5 0.3c-0.2 0.1-0.4 0.3-0.6 0.4q-0.5 0.5-1.2 0.8l-1 0.3c-0.4 0-0.8 0.1-1.2 0.1c-0.4 0-0.8-0.1-1.1-0.3l-0.4-0.4q-0.1-0.1-0.3-0.2q-0.1 0-0.1 0q-0.1 0-0.1-0.1q0 0 0 0q0 0 0 0q0 0 0 0q0 0 0 0q-0.1-0.1-0.1-0.1q0.1-0.1 0.1-0.1q0-0.1 0-0.2q0-0.2 0-0.3q0.1-0.1 0.2-0.2l0.5-0.3z" />
			<path id="Layer" class="s19" d="m23.7 19.2c0.5-0.2 1.1-0.2 1.6-0.1q0.3 0.2 0.7 0.3q0.3 0.2 0.6 0.4q0.6 0.3 1.3 0.5q0.3 0 0.5 0.1q0.2 0.1 0.3 0.2q0 0.1 0 0.2q0 0 0 0q0 0.1 0 0.1q0 0 0 0q0 0 0 0q-0.1 0.1-0.2 0.1q0 0-0.1 0q-0.1 0-0.2 0q-0.2 0-0.4 0q-0.1 0.1-0.2 0.1q-0.1 0.1-0.1 0.2q-0.3 0.2-0.6 0.4c-0.4 0.3-0.8 0.6-1.2 0.8q-0.5 0.1-1 0.2q-0.6 0.2-1.2 0.2c-0.4-0.1-0.8-0.2-1.1-0.4l-0.5-0.3q-0.2-0.2-0.5-0.2q0 0-0.1 0q-0.1 0-0.1-0.1q0 0 0 0q0-0.1 0-0.1q0-0.1 0-0.2q0-0.2 0.1-0.3q0-0.3 0.2-0.5q0.3-0.3 0.7-0.6c0.4-0.4 0.9-0.8 1.5-1z" />
			<path id="Layer" class="s20" d="m25.9 20.5q0 0.1 0 0.2c-0.2 0.5-0.5 1-1 1.3q-0.1 0.2-0.2 0.2q-0.1 0-0.2 0q0 0-0.1 0q-0.1-0.1-0.1-0.2q0-0.1 0-0.2c0.1-0.3 0.3-0.6 0.5-0.9q0.2-0.3 0.6-0.5q0.1-0.1 0.2-0.1q0.1 0 0.2 0q0 0 0.1 0.1q0 0 0 0.1z" />
			<path id="Layer" class="s21" d="m24.9 19.5c0.1-0.1 0.3 0 0.4 0c0.1 0.1 0.3 0.1 0.3 0.2c0 0.1-0.2 0.1-0.2 0.1c-0.1 0-0.2-0.1-0.3-0.1c-0.1 0-0.2 0-0.2-0.1q0-0.1 0-0.1z" />
			<path id="Layer" class="s22" d="m23.4 19.7c0 0-0.1 0.1-0.1 0.1c0 0.1-0.1 0-0.1 0c-0.1-0.1 0.1-0.3 0.2-0.3c0.1 0 0.1 0.1 0 0.2z" />
			<path id="Layer" class="s23" d="m28.3 21.4c-0.2 0-0.3-0.2-0.3-0.4c0.1-0.2 0.2-0.4 0.4-0.4c0.2 0 0.4 0.2 0.3 0.4c0 0.2-0.2 0.4-0.4 0.4z" />
			<g id="Clip-Path" clip-path="url(#cp2)">
				<path id="Layer" class="s24" d="m21 18.2q-0.2 0.2-0.4 0.4q-0.3 0.2-0.5 0.2q-0.3 0.1-0.6 0q-0.2-0.1-0.4-0.2c-0.3-0.2-0.6-0.5-0.8-0.7c-0.3-0.3-0.6-0.5-0.8-0.8q-0.2-0.2-0.3-0.4q-0.1-0.3-0.1-0.6q0.1-0.2 0.3-0.5q0.1-0.2 0.4-0.3c0.3-0.2 0.7-0.3 1-0.3c0.9-0.2 1.7-0.3 2.6-0.2c0.7 0 1.5 0.2 2.1 0.5c0.7 0.3 1.3 0.8 1.6 1.5l0.3 0.6c0.2 0.3 0.4 0.6 0.5 0.9q0 0 0 0q0 0 0 0.1q0 0 0 0q0 0 0 0q0 0 0 0.1q0 0-0.1 0q0 0 0 0q-0.1 0-0.2 0q0 0 0-0.1l-0.1-0.1c-0.2-0.3-0.4-0.5-0.7-0.6q-0.3-0.1-0.8-0.2c-0.3-0.1-0.7-0.3-1.1-0.3c-0.4 0-0.8 0-1.2 0.2c-0.3 0.2-0.5 0.5-0.7 0.8z" />
			</g>
		</g>
		<path id="Layer" class="s1" d="m32.1 28.4c-0.4-0.3-0.7-0.8-1-1.3c-0.3-0.5-0.5-0.9-0.6-1.4c-0.1-0.4 0-0.8 0.1-1.2c0.2-0.3 0.5-0.6 0.9-0.7q0.1-0.1 0.2-0.1q0.1 0 0.2 0q0.1 0 0.2 0.1q0.2 0 0.3 0q0.1 0.1 0.2 0.1q0.1 0.1 0.1 0.1q0.1 0.1 0.2 0.2q0.1 0 0.2 0.1c0.4 0.4 0.7 1 1 1.5c0.5 0.7 1.2 1.2 1.7 1.9c0.5 0.7 0.9 1.5 1.2 2.3q0.7 1.7 1 3.5c0.2 0.8 0.2 1.7 0.1 2.6c-0.2 0.8-0.6 1.7-1.3 2.2q-0.4 0.3-0.9 0.5q-0.1 0-0.3 0q-0.1 0-0.2 0q-0.1 0-0.3 0q-0.1 0-0.2 0c-0.4-0.1-0.7-0.3-0.8-0.7c-0.2-0.2-0.2-0.5-0.2-0.8q0.1-0.5 0.3-0.9c0.2-0.7 0.5-1.5 0.7-2.2c0.1-0.7 0.2-1.5 0.1-2.3c-0.1-0.9-0.6-1.9-1.4-2.5c-0.5-0.3-1-0.6-1.5-1z" />
		<g id="Clip-Path" clip-path="url(#cp3)">
			<path id="Layer" class="s25" d="m33.7 29.3c0.8 0.6 1.4 1.5 1.5 2.5c0.2 0.8 0.2 1.5 0 2.4c-0.3 0.9-0.7 1.8-1 2.7c-0.1 0.4-0.3 0.9-0.3 1.4l-0.1 0.1q0-0.1 0-0.1q0-0.1 0-0.2q0 0 0-0.1q0-0.1 0-0.1c0.1-0.4-0.3-0.3-0.1-0.6c0.3-0.9 0.8-2.1 1-3c0.2-0.9 0.3-1.3 0.2-2.1c-0.1-0.9-0.9-2-1.7-2.6c-0.5-0.4-0.7-0.8-1.2-1.2l-0.2-0.2c0.6 0.4 1.3 0.7 1.9 1.1z" />
		</g>
		<path id="Layer" class="s26" d="m19.9 27.7c0.2 0.2 0 0.8 2.9 0.4c0 0-0.5 0.1-1 0.2c-0.8 0.3-1.5 0.6-2 1c-0.6 0.3-1 0.9-1.5 1.3c0 0 0.8-1.4 1-1.9c0.2-0.4 0-0.4 0.2-1c0.1-0.7 0.5-1.3 0.5-1.3c0 0-0.3 0.9-0.1 1.3z" />
		<g id="Layer">
			<path id="Layer" class="s27" d="m30.2 26.1c0 0 0.1 1.2 0.3 1.9c0.2 0.6 0.8 1.3 1.1 1.7c0.2 0.5 0.2 1.1 0.2 1.1c-0.6-0.5-1.1-1.1-1.7-1.5c-0.4-0.3-0.7-0.4-1.4-0.7c-0.8-0.2-2.1-0.3-2.7-0.5c-0.6-0.1-0.9-0.1-0.9-0.1c0 0 1.9 0.1 2.7 0c0.7-0.1 1.1-0.1 1.7-0.5c0.6-0.4 0.7-1.4 0.7-1.4z" />
			<path id="Layer" class="s28" d="m23.8 26.6q0 0.1 0 0.2q0 0.1 0 0.2q0 0.1 0 0.2q0 0.1 0.1 0.2q0.1 0.2 0.3 0.3q0.1 0.1 0.2 0.1q0.1 0.1 0.2 0.1q0.1 0.1 0.3 0.1q0.1 0 0.2 0q-0.1 0-0.2 0q-0.2 0-0.3 0q-0.1 0-0.2 0.1q-0.1 0-0.2 0.1q-0.1 0.1-0.2 0.2q-0.3 0.3-0.4 0.7q-0.1 0.2-0.1 0.4q0-0.3 0-0.6q0-0.3-0.1-0.5q-0.1-0.1-0.2-0.2q-0.1-0.1-0.2-0.1q-0.1 0-0.2 0l-0.4-0.1q0.5 0 0.9-0.2q0.1-0.1 0.2-0.1q0.1-0.1 0.1-0.3q0.1-0.1 0.1-0.2l0.1-0.6z" />
			<path id="Layer" class="s29" d="m23 31.5q0.1 0.3 0.1 0.6q0 0.3 0 0.5q-0.1 0.3-0.1 0.6c0 1.1-0.2 2.1-0.1 3.1c0 0.6 0.1 1.2 0.1 1.7q0 0.1 0 0.1q0 0.1-0.1 0.1q0 0.1 0 0.1q0 0.1 0 0.1q-0.2-0.5-0.3-1c-0.1-0.7 0-1.4 0-2.2c0-0.8 0-1.7 0.1-2.5q0-0.3 0.1-0.5q0-0.2 0-0.4q0.1-0.3 0.1-0.5q0.1-0.2 0.1-0.4q0 0.3 0 0.6z" />
			<path id="Layer" class="s30" d="m30.8 22.4c0.3 0.1 0.6 0.2 0.7 0.7c0 0.2-0.1 0.6-0.4 0.6c-0.3 0.1-0.6-0.3-0.7-0.6c-0.2-0.4-0.6-0.8-0.3-1c0.1-0.2 0.4 0.2 0.7 0.3z" />
		</g>
		<g id="Layer">
			<path id="Layer" class="s31" d="m94 42.8c0.2 0.2-0.2 0.4-0.3 0.6c-0.4 0.3-0.8 0.6-1.3 0.8c-0.7 0.5-1.6 0.8-2.4 1.2c-0.5 0.4-0.9 0.8-1.4 1.1c-0.3 0.4-0.7 0.8-1.1 1c-0.4 0.3-0.9 0.6-1.4 0.6c-0.6 0.1-1.3 0-1.8-0.2c-0.4-0.2-0.8-0.5-1.1-0.8c-0.2-0.4-0.2-0.8-0.3-1.3c0-0.7 0.2-1.5 0.3-2.2c0.1-0.7 0.3-1.3 0.3-1.9c0.1-1.2-0.1-2.3 0.1-3.5c0-0.3-0.1-0.8 0.2-1c0.3-0.3 0.7-0.2 1.1-0.2c0.4 0 0.8 0.2 1.2 0.2c0.3 0.1 0.6 0.2 0.8 0.3q0.7 0.1 1.4 0.1c0.5 0 0.9-0.2 1.4-0.2q0.3 0 0.6 0.1q0.3 0.1 0.5 0.3q0.2 0.1 0.3 0.3c0.1 0.3 0.1 0.5 0.1 0.7c0.1 0.2 0 0.4 0.1 0.6c0.2 0.6 0.7 1.1 1.2 1.5c0.2 0.3 0.5 0.5 0.8 0.6c0.2 0.2 0.5 0.4 0.7 0.7c0 0.1-0.1 0.4 0 0.6z" />
			<g id="Layer">
				<g id="Clip-Path" clip-path="url(#cp4)">
					<path id="Layer" class="s32" d="m41.2 42.8q-0.1 0.3-0.3 0.6c-0.3 0.3-0.8 0.6-1.3 0.8c-0.7 0.4-1.5 0.8-2.3 1.2q-0.7 0.5-1.3 1.1c-0.4 0.4-0.7 0.8-1.1 1c-0.4 0.3-0.9 0.6-1.4 0.6c-0.6 0.1-1.2 0-1.8-0.2c-0.4-0.2-0.8-0.5-1-0.8c-0.2-0.4-0.3-0.8-0.3-1.3c0-0.7 0.2-1.5 0.3-2.2q0.2-1 0.3-1.9q0.2-1.7 0-3.5q0-0.2 0-0.5c0.1-0.2 0.1-0.4 0.3-0.5q0.2-0.2 0.5-0.2q0.2 0 0.5 0c0.4 0.1 0.8 0.1 1.2 0.2q0.4 0.2 0.8 0.3q0.6 0.2 1.3 0.1c0.5-0.1 0.9-0.2 1.4-0.2q0.3 0 0.6 0.1q0.3 0.1 0.5 0.3q0.2 0.1 0.2 0.3q0.2 0.4 0.2 0.7q0 0.3 0 0.6c0.1 0.3 0.3 0.6 0.5 0.9q0.3 0.3 0.7 0.6q0.4 0.4 0.8 0.6q0.2 0.2 0.3 0.3q0.2 0.2 0.4 0.4q0.1 0.2 0 0.6z" />
				</g>
				<g id="Clip-Path" clip-path="url(#cp5)">
					<path id="Layer" class="s33" d="m40.9 42.4q-0.1 0-0.1 0.1q0 0.1-0.1 0.1q0 0.1-0.1 0.2q0 0-0.1 0.1c-0.3 0.3-0.7 0.6-1.1 0.8c-0.7 0.3-1.4 0.7-2.1 1.1q-0.7 0.4-1.3 1c-0.3 0.3-0.6 0.6-1 0.9q-0.5 0.4-1.2 0.5c-0.6 0.1-1.1 0-1.7-0.3c-0.3-0.1-0.7-0.3-0.9-0.7c-0.2-0.3-0.2-0.7-0.2-1.1c0-0.7 0.1-1.3 0.2-2q0.2-0.8 0.3-1.7q0.1-1.5 0-3.1q0-0.3 0-0.5q0.1-0.3 0.3-0.5q0.1-0.1 0.4-0.1q0.2 0 0.5 0c0.4 0.1 0.7 0.1 1.1 0.2q0.4 0.1 0.7 0.2q0.6 0.2 1.2 0.1c0.4 0 0.9-0.2 1.3-0.2q0.3 0 0.5 0.1q0.3 0.1 0.5 0.3q0.1 0.1 0.2 0.3q0.1 0.3 0.1 0.6c0 0.2 0 0.4 0 0.6q0.1 0.3 0.2 0.5q0.2 0.2 0.3 0.4c0.2 0.3 0.5 0.5 0.7 0.7c0.3 0.3 0.7 0.4 1 0.6q0.2 0.1 0.3 0.2q0 0.1 0 0.1q0.1 0.1 0.1 0.2q0 0.1 0 0.1q0 0.1 0 0.2z" />
				</g>
			</g>
			<g id="Clip-Path" clip-path="url(#cp6)">
				<path id="Layer" class="s34" d="m40.8 42.1q-0.1 0.3-0.3 0.6c-0.3 0.4-0.7 0.6-1.2 0.8c-0.7 0.3-1.5 0.3-2.2 0.6c-0.4 0.2-0.8 0.5-1.2 0.7q-0.5 0.4-1 0.6q-0.6 0.3-1.2 0.4q-0.4 0-0.9 0q-0.4 0-0.7-0.2q-0.3-0.2-0.5-0.4c-0.1-0.3-0.1-0.5-0.1-0.8c0-0.6 0.1-1.3 0.1-1.9c0-0.6-0.1-1.2-0.1-1.7c-0.1-1.1 0.2-2.2 0-3.3q-0.1-0.3-0.1-0.5q0-0.2 0-0.3q0.1-0.1 0.2-0.2q0.1-0.1 0.2-0.1q0.1 0 0.2 0q0.2 0.1 0.4 0.1c0.3 0.2 0.7 0.2 1.1 0.2q0.4 0.1 0.7 0.2q0.7 0.2 1.3 0.1c0.4 0 0.8-0.2 1.3-0.2q0.3 0.1 0.5 0.1q0.3 0.1 0.5 0.3q0.2 0.2 0.2 0.3q0.2 0.3 0.2 0.6q0 0.2-0.1 0.4q0 0.1 0.1 0.3q0 0.1 0.1 0.3q0.1 0.1 0.2 0.2c0.2 0.3 0.3 0.5 0.4 0.8c0.2 0.3 0.3 0.5 0.6 0.7c0.2 0.3 0.6 0.4 1 0.6q0.1 0.1 0.2 0.2q0.1 0.1 0.1 0.1q0 0.1 0 0.2q0 0 0 0.1q0 0.1 0 0.1z" />
			</g>
			<path id="Layer" class="s35" d="m31.3 37.6c0.1-0.1 0.2-0.3 0.5-0.3q0.9 0.1 1.9 0.1c0.9-0.1 1.9 0.1 2.8 0.1c0.3 0 0.6-0.1 0.9 0c0.4 0.1 0.7 0.5 0.8 0.9c-0.2 0.1-0.4-0.3-0.5-0.3c-0.3-0.3-0.7-0.2-1.1-0.2c-0.8 0-1.5 0.2-2.3 0.3c-0.4 0-0.8-0.1-1.2 0c-0.2 0-0.5 0-0.7-0.2c-0.3-0.2-0.6-0.5-1-0.4" />
		</g>
		<g id="Layer">
			<path id="Layer" class="s36" d="m33.2 30c0.2 0 1.1 0.8 1 1.1c-0.2 0.3-0.4 0.1-0.6 0.1c-0.1 0-0.6 0.2-0.7 0.1c0-0.2 0.2-0.5 0.4-0.7c0.1-0.2-0.2-0.6-0.1-0.6z" />
			<path id="Layer" class="s37" d="m19.8 25.4c-0.1-0.1 0-0.3 0.1-0.4c0.1-0.1 0.4-0.1 0.4 0.1c0 0.3-0.4 0.5-0.5 0.3z" />
		</g>
		<g id="Layer">
			<path id="Aa" class="s38" d="m37 38.5q0 0.2-0.1 0.4q-0.1 0.4-0.3 0.7c-0.3 0.7-0.9 1.3-1.6 1.6q-0.2 0-0.3 0.1q-0.2 0-0.4 0q-0.1 0-0.3 0q-0.2 0-0.3-0.1q-0.4-0.1-0.6-0.5q-0.2-0.2-0.3-0.5q0-0.2 0-0.5q-0.1-0.4-0.1-0.8q0.1-0.4 0.2-0.7c0.2-0.2 0.4-0.4 0.7-0.5c0.3-0.1 0.6 0 0.8 0c0.3 0.1 0.5 0.2 0.8 0.2c0.3 0 0.6-0.1 0.9-0.1q0.3 0 0.5 0.1q0.2 0.1 0.3 0.3q0.1 0.2 0.1 0.3z" />
			<path id="Aa" class="s39" d="m37 38.3q0 0.1-0.1 0.2q-0.1 0.3-0.3 0.6c-0.3 0.5-0.9 0.9-1.6 1.1q-0.2 0.1-0.3 0.1q-0.2 0-0.4 0q-0.1 0-0.3 0q-0.2 0-0.3-0.1q-0.4-0.1-0.6-0.3q-0.2-0.2-0.3-0.4q0-0.2 0-0.4q-0.1-0.2-0.1-0.5q0.1-0.3 0.2-0.5c0.2-0.2 0.4-0.3 0.7-0.4q0.4-0.1 0.8 0c0.3 0.1 0.5 0.1 0.8 0.1c0.3 0.1 0.6 0 0.9 0q0.3 0 0.5 0.1q0.2 0 0.3 0.2q0.1 0.1 0.1 0.2z" />
			<path id="Layer" class="s1" d="m37.5 36.9q0.1 0.3 0 0.6q-0.1 0.4-0.3 0.7q-0.2 0.2-0.4 0.4q-0.2 0.2-0.4 0.4q-0.2 0.2-0.5 0.3q-0.2 0.1-0.5 0.2c-0.4 0.2-0.9 0.2-1.3 0c-0.3 0-0.6-0.2-0.7-0.4c-0.2-0.2-0.3-0.6-0.4-0.9c0-0.4 0.1-0.9 0.3-1.3q0.1-0.3 0.4-0.6q0.3-0.3 0.7-0.4c0.2 0 0.5 0 0.8 0.1l0.8 0.1c0.3 0.1 0.6 0.1 0.9 0.2q0.2 0.1 0.4 0.3q0.1 0.1 0.2 0.3z" />
			<g id="Layer">
				<g id="Clip-Path" clip-path="url(#cp7)">
					<path id="Ab" class="s40" d="m35.1 35.9q0.4 0 0.8 0.1q0.6 0 1.1 0.4q0.2 0.1 0.3 0.2q0.1 0.1 0.1 0.2q0 0.2-0.1 0.4q-0.1 0.2-0.3 0.3c-0.2 0.2-0.5 0.3-0.9 0.4q0.1-0.1 0.2-0.2q0.2-0.2 0.3-0.3q0.1-0.2 0-0.3q0-0.2-0.1-0.2q-0.1-0.1-0.2-0.2c-0.2-0.2-0.6-0.3-0.9-0.4q-0.3 0-0.6-0.1q-0.4 0-0.7 0c-0.4 0.1-0.7 0.3-0.9 0.6q-0.1 0.3-0.2 0.7q0-0.1 0-0.3q0-0.1 0.1-0.2q0-0.1 0-0.2q0.1-0.1 0.1-0.2c0.3-0.4 0.7-0.7 1.1-0.8q0 0 0.1 0q0 0 0 0q0 0 0.1 0q0 0 0 0q0.3 0 0.6 0.1z" />
				</g>
				<g id="Clip-Path" clip-path="url(#cp8)">
					<path id="Ab" class="s41" d="m35.1 35.9q0.4 0 0.8 0.1q0.6 0 1.1 0.4q0.2 0.1 0.3 0.2q0.1 0.1 0.1 0.2q0 0.2-0.1 0.4q-0.1 0.2-0.3 0.3c-0.2 0.2-0.5 0.3-0.9 0.4q0.1-0.1 0.2-0.2q0.2-0.2 0.3-0.3q0.1-0.2 0-0.3q0-0.2-0.1-0.2q-0.1-0.1-0.2-0.2c-0.2-0.2-0.6-0.3-0.9-0.4q-0.3 0-0.6-0.1q-0.4 0-0.7 0c-0.4 0.1-0.7 0.3-0.9 0.6q-0.1 0.3-0.2 0.7q0-0.1 0-0.3q0-0.1 0.1-0.2q0-0.1 0-0.2q0.1-0.1 0.1-0.2c0.3-0.4 0.7-0.7 1.1-0.8q0 0 0.1 0q0 0 0 0q0 0 0.1 0q0 0 0 0q0.3 0 0.6 0.1z" />
				</g>
			</g>
		</g>
		<path id="Layer" class="s1" d="m20 25.8c-0.1 0.7-0.3 1.4-0.6 2c-0.3 0.7-0.9 1.2-1.4 1.9c-0.3 0.5-0.6 1.1-0.8 1.7q-0.3 0.5-0.5 1c-0.3 0.8-0.3 1.8-0.2 2.7q0.1 0.6 0.4 1c0.2 0.3 0.4 0.5 0.7 0.8l2.8 2.4c0.5 0.3 0.9 0.7 1.2 1.2q0.1 0.1 0.1 0.1q0.1 0.1 0.1 0.2q0 0.1 0 0.2q0.1 0.1 0.1 0.1q0 0.4-0.2 0.7q-0.1 0.3-0.4 0.4q-0.3 0.1-0.6 0.1c-0.4 0-0.7-0.2-1.1-0.3q-0.9-0.5-1.8-1.1c-1.3-0.9-2.3-2.1-3-3.5q-0.3-0.5-0.4-1q-0.2-0.5-0.1-1.1c0.1-0.4 0.3-0.9 0.5-1.3l0.9-1.7q0.4-0.9 0.7-1.9c0.2-0.6 0.3-1.2 0.6-1.7c0.2-0.7 0.7-1.2 1.1-1.8l2.2-2.6c0 0-0.3 1.5-0.3 1.5z" />
		<g id="Clip-Path" clip-path="url(#cp9)">
			<path id="Layer" class="s42" d="m18.4 29.1q0.1-0.1 0.2-0.1q0.1 0 0.2 0q0.1 0.1 0.2 0.2q0.1 0.2 0.1 0.4q0 0.2-0.1 0.4c-0.7 2.2-0.9 4.5-0.7 6.8q0 0-0.1 0.1q-0.1 0-0.2 0q-0.1 0.1-0.2 0.1q-0.1 0-0.2 0q-0.3-0.1-0.5-0.2q-0.2-0.2-0.4-0.5c-0.1-0.2-0.2-0.4-0.3-0.6q-0.1-0.1-0.1-0.1q-0.1-0.1-0.2-0.2q-0.1 0-0.2-0.1q-0.1 0-0.2-0.1q0.3-0.1 0.5-0.4c0.1-0.2 0.1-0.4 0.1-0.7c0-0.2 0-0.5 0-0.7c0-0.5 0.2-1 0.4-1.4c0.3-0.6 0.5-1.2 0.8-1.8q0.1-0.1 0.1-0.3q0.1-0.1 0.2-0.2q0.1-0.1 0.2-0.2q0.1-0.1 0.2-0.2q0.1-0.1 0.2-0.2z" />
		</g>
		<g id="Clip-Path" clip-path="url(#cp10)">
			<g id="Layer">
				<path id="Layer" class="s43" d="m15.1 36.4q0.3-0.1 0.7-0.1q0.3 0.1 0.6 0.3c0.3 0.2 0.6 0.6 0.8 0.9q0.9 1.2 1.7 2.5c0.4 0.7 0.8 1.4 1.3 2.1c0.3 0.4 0.6 0.8 1 1.2c0.3 0.4 0.5 0.9 0.7 1.4c0.2 0.7 0.1 1.4-0.2 2c-0.2 0.4-0.6 0.8-1 1.1c-0.4 0.2-0.9 0.3-1.4 0.3c-0.7 0-1.4-0.4-2.1-0.7c-1.5-0.6-3.1-0.7-4.6-1.2c-0.4-0.1-0.9-0.3-1.3-0.4q-0.4-0.1-0.7-0.2q-0.3-0.1-0.4-0.4q-0.2-0.2-0.2-0.5q0.1-0.2 0.1-0.5c0.2-0.3 0.3-0.6 0.5-0.9c0.2-0.5 0.2-1 0.2-1.6c-0.1-0.5-0.1-1-0.2-1.6q0-0.3 0-0.7q0.1-0.4 0.4-0.6q0.2-0.2 0.6-0.3q0.3-0.1 0.6 0q0.3 0 0.7-0.1q0.3 0 0.6-0.1q0.3-0.2 0.5-0.5q0.1-0.2 0.3-0.5q0.1-0.3 0.3-0.5q0.2-0.3 0.5-0.4z" />
				<path id="Layer" class="s44" d="m15.4 36.7q0.3-0.1 0.6 0q0.3 0.1 0.6 0.3c0.3 0.2 0.5 0.5 0.7 0.9q0.7 1.2 1.4 2.4c0.4 0.6 0.7 1.3 1.1 1.9c0.3 0.3 0.6 0.7 0.9 1.1c0.3 0.3 0.6 0.7 0.7 1.2c0.2 0.6 0.1 1.2-0.2 1.8q-0.1 0.1-0.2 0.3q0 0.1-0.2 0.2q-0.1 0.1-0.2 0.2q-0.1 0.1-0.3 0.2q-0.1 0.1-0.3 0.2q-0.1 0-0.3 0.1q-0.1 0-0.3 0q-0.2 0-0.3 0c-0.7 0-1.4-0.3-2-0.6c-1.3-0.4-2.7-0.5-4-0.9c-0.4-0.1-0.9-0.3-1.4-0.4q-0.3 0-0.6-0.2c-0.2 0-0.4-0.2-0.5-0.3q-0.1-0.3-0.1-0.5q0-0.2 0.1-0.5c0.1-0.3 0.3-0.5 0.4-0.8c0.2-0.5 0.2-1 0.2-1.4c0-0.5-0.1-1-0.2-1.5q0-0.3 0.1-0.6q0-0.3 0.3-0.6c0.1-0.2 0.4-0.2 0.6-0.3q0.3 0 0.7 0q0.3 0.1 0.7 0.1q0.3-0.1 0.6-0.2q0.3-0.2 0.4-0.5q0.2-0.3 0.3-0.6q0.1-0.3 0.3-0.6q0.2-0.2 0.4-0.4" />
				<path id="Layer" class="s45" d="m15.3 36.3q0.3-0.2 0.6-0.1q0.3 0.1 0.5 0.3c0.3 0.2 0.5 0.6 0.7 0.9c0.4 0.8 0.8 1.6 1.3 2.4c0.3 0.5 0.7 1 1.1 1.6c0.5 0.7 0.9 1.5 1.1 2.4c0.1 0.5 0.1 1.2-0.2 1.7c-0.2 0.3-0.5 0.6-0.9 0.8q-0.5 0.3-1.1 0.2c-0.6-0.1-1.2-0.4-1.8-0.6c-1-0.4-2.1-0.4-3.2-0.7c-0.4-0.1-0.9-0.3-1.3-0.4q-0.3 0-0.6-0.1c-0.2-0.1-0.4-0.2-0.5-0.4q-0.1-0.2-0.1-0.4q0-0.2 0.1-0.4c0.1-0.3 0.3-0.5 0.4-0.8c0.1-0.4 0.1-0.8 0-1.2c-0.1-0.5-0.3-0.9-0.3-1.3q-0.1-0.3 0-0.5q0.1-0.3 0.3-0.5c0.1-0.2 0.4-0.3 0.6-0.3q0.4 0 0.8 0.1q0.3 0 0.7 0c0.2 0 0.5-0.1 0.7-0.2c0.2-0.2 0.3-0.4 0.3-0.6q0.1-0.3 0.2-0.7q0-0.4 0.1-0.7c0.1-0.2 0.3-0.4 0.5-0.5z" />
				<path id="Layer" class="s46" d="m18.7 40.3c0.3 0.5 0.7 0.9 1 1.4c0.1 0.3 0.4 0.6 0.6 1c0.2 0.6 0.4 1.3 0.5 1.5c-0.2-0.2-0.5-0.9-0.8-1.4c-0.3-0.5-0.6-0.8-0.7-1.1c-0.3-0.5-0.7-1-1-1.6c-0.3-0.6-0.5-1.2-0.8-1.8c0.5 0.6 0.8 1.3 1.2 2z" />
			</g>
		</g>
		<path id="Layer" class="s47" d="m50.1 23.5h3.9v9.4h5.6v3.3h-9.5zm12.1 0h3.9v12.6h-3.9zm6.8 0h4l3.6 6.8h0.1v-6.8h3.7v12.7h-3.8l-3.9-6.9v6.9h-3.7zm25.8 7.7c0 3.5-1.9 5.2-5.8 5.2c-3.9 0-5.8-1.6-5.8-5.2v-7.7h3.9v6.9c0 1.2 0 2.9 1.9 2.9c1.9 0 1.9-1.7 1.9-2.9v-6.9h3.9c0 0 0 7.7 0 7.7zm6.2-1.8l-4.2-5.9h4.6l1.9 3.4l1.9-3.4h4.3l-4.1 5.9l4.5 6.7h-4.6l-2.2-3.8l-2.2 3.8h-4.5z" />
	</g>
</svg>