<svg version="1.2" xmlns="http://www.w3.org/2000/svg" viewBox="0 0 120 60" width="120" height="60">
	<title>pytorch_light-svg</title>
	<style>
		.s0 { fill: #ee4c2c } 
		.s1 { fill: #ffffff } 
	</style>
	<g id="Layer">
		<path id="Layer" class="s0" d="m32.2 43.3c-1.3 1.4-2.9 2.4-4.7 3.2c-1.7 0.7-3.6 1.1-5.5 1.1c-2 0-3.8-0.4-5.6-1.1c-1.8-0.8-3.4-1.8-4.7-3.2c-1.4-1.3-2.5-2.9-3.2-4.7c-0.7-1.8-1.1-3.7-1.1-5.6c0-1.9 0.4-3.8 1.1-5.5c0.7-1.8 1.8-3.4 3.2-4.8l10.3-10.3v5.1l-0.8 1l-6.8 6.8c-4.3 4.3-4.3 11.2 0 15.5c4.2 4.2 11.1 4.2 15.4 0c4.3-4.3 4.3-11.2 0-15.5l2.6-2.6c5.7 5.6 5.7 14.9-0.2 20.6z" />
		<path id="Layer" class="s0" d="m27.3 22c-1.1 0-2-0.9-2-1.9c0-1.1 0.9-2 2-2c1 0 1.9 0.9 1.9 2c0 1-0.9 1.9-1.9 1.9z" />
	</g>
	<path id="Layer" fill-rule="evenodd" class="s1" d="m48 32h-2v5.2h-1.5v-14.6h3.7c3.8 0 5.7 1.8 5.7 4.6c0 3.2-2.3 4.8-5.9 4.8zm0.1-8h-2.1v6.7l2.1-0.1c2.7-0.1 4.2-1.2 4.2-3.4c0-2.1-1.4-3.2-4.2-3.2zm12.5 13.1l-0.9 2.3c-1 2.6-2 3.4-3.5 3.4c-0.8 0-1.4-0.2-2.1-0.5l0.5-1.3q0.7 0.4 1.6 0.4c0.9 0 1.5-0.4 2.3-2.5l0.7-1.8l-4.2-10.6h1.6l3.3 8.8l3.4-8.8h1.5zm9.1-13.1v13.2h-1.5v-13.2h-5.1v-1.5h11.7v1.4h-5.1zm9.3 13.5q0 0 0 0q0 0 0 0zm-5.2-5.6c0-3.4 2.3-5.7 5.3-5.7c3 0 5.2 2.2 5.2 5.6c0 3.5-2.3 5.7-5.3 5.7c-3 0-5.2-2.2-5.2-5.6zm5.3-4.4c-2.3 0-3.8 1.9-3.8 4.3c0 2.6 1.6 4.4 3.8 4.4c2.3 0 3.8-1.8 3.8-4.3c0-2.6-1.5-4.4-3.8-4.4zm7.5 9.8v-10.8l1.4-0.3v2.3c0.7-1.4 1.8-2.3 3.1-2.3q0.3 0 0.5 0.1q0.3 0 0.5 0.1q0.3 0 0.5 0.1q0.2 0.1 0.4 0.2l-0.4 1.4c-0.4-0.3-1-0.4-1.6-0.4c-1.1 0-2.2 0.8-3.1 2.7v6.9zm12.2 0.2c-3.2 0-5.2-2.3-5.2-5.6c0-3.4 2.2-5.7 5.2-5.7c1.3 0 2.4 0.3 3.4 0.9l-0.4 1.4c-0.8-0.6-1.8-0.9-3-0.9c-2.3 0-3.8 1.7-3.8 4.2c0 2.6 1.6 4.3 3.9 4.3q0.4 0 0.7 0q0.4-0.1 0.8-0.2q0.4-0.1 0.8-0.3q0.3-0.1 0.7-0.3l0.2 1.3c-0.9 0.6-2.1 0.9-3.3 0.9zm12.3-0.2v-7c0-1.8-0.7-2.7-2.2-2.7c-1.2 0-2.5 0.6-3.3 1.6v8.1h-1.5v-15.8l1.5-0.3v6.8c1.1-1.1 2.5-1.7 3.7-1.7c2.1 0 3.3 1.3 3.3 3.6v7.4z" />
</svg>