<svg version="1.2" xmlns="http://www.w3.org/2000/svg" viewBox="0 0 278 150" width="278" height="150">
	<title>sklearn_light-svg</title>
	<style>
		tspan { white-space:pre } 
		.s0 { fill: #f89939 } 
		.s1 { fill: #3499cd } 
		.s2 { fill: #ffffff } 
		.t3 { font-size: 23px;fill: #ffffff;font-family: "Helvetica" } 
	</style>
	<g id="g3">
		<path id="path5" class="s0" d="m102.6 139.7c-11.5-11.5-21.2-76.2 12.6-110.1c33.9-33.9 83.2-39.5 110.1-12.6c26.9 26.9 21.3 76.2-12.6 110.1c-33.9 33.9-100.8 21.9-110.1 12.6z" />
		<path id="path7" class="s1" d="m81 142c-6.6 6.7-44.2 12.4-63.8-7.3c-19.7-19.6-22.9-48.2-7.3-63.8c15.6-15.7 44.2-12.4 63.8 7.3c19.7 19.6 12.7 58.4 7.3 63.8z" />
	</g>
	<g id="g9">
		<g id="g11">
			<path id="path13" fill-rule="evenodd" class="s2" d="m141.5 118.8q-5.2 4.8-9.1 7.1q-3.9 2.2-7.5 2.2q-4.1 0-6.6-3.1q-2.5-3.2-2.5-8.6q0-8 3.5-19.3q3.5-11.3 8.4-20.7l9.8-3.7q0.4-0.1 0.7-0.1q1.1 0 1.8 1.6q0.7 1.7 0.7 4.4q0 7.8-3.6 15.1q-3.6 7.4-11.3 15.7q-0.3 3.9-0.3 5.4q0 3.4 1.3 5.3q1.2 2 3.2 2q2.1 0 4.4-1.5q2.3-1.5 7.1-6.2c0 0 0 4.4 0 4.4zm-14.6-15q4.8-5.4 7.9-12.1q3-6.7 3-11.6q0-1.4-0.4-2.2q-0.5-0.9-1.1-0.9q-1.4 0-4.1 7.1q-2.7 7-5.3 19.7z" />
			<path id="path15" fill-rule="evenodd" class="s2" d="m170.2 118.8q-4.9 4.8-8.7 7.1q-3.9 2.2-8.6 2.2q-5.2 0-8.4-3.3q-3.2-3.3-3.2-8.8q0-8.1 5.6-14.7q5.7-6.5 12.5-6.5q3.6 0 5.7 1.8q2.2 1.9 2.2 4.8q0 8-16.9 12.9q1.6 7.5 8 7.5q2.6 0 4.9-1.4q2.3-1.3 6.9-6c0 0 0 4.4 0 4.4zm-20.1-7.1q9.8-2.8 9.8-10.2q0-3.7-2.7-3.7q-2.5 0-4.8 3.9q-2.3 3.8-2.3 10z" />
			<path id="path17" fill-rule="evenodd" class="s2" d="m211.1 118.8q-6.1 5.8-8.8 7.6q-2.6 1.7-5 1.7q-6.1 0-5.7-10.7q-3.9 5.5-7.1 8.1q-3.2 2.6-6.7 2.6q-3.4 0-5.7-3.1q-2.4-3.2-2.4-7.8q0-5.7 3.2-10.9q3.1-5.2 8.1-8.5q4.9-3.2 8.7-3.2q4.8 0 6.7 4.4l7.9-4.3h2.1l-3.4 11.2q-2.6 8.5-2.6 11.6q0 3.3 2.3 3.3q1.5 0 3.3-1.6q1.8-1.6 5.1-4.8c0 0 0 4.4 0 4.4zm-28 2.1q3.8 0 7.2-6.5q3.4-6.6 3.4-12.1q0-2.1-1-3.3q-1-1.2-2.6-1.2q-3.8 0-7.2 6.5q-3.4 6.5-3.4 12q0 2 1 3.3q1 1.3 2.6 1.3z" />
			<path id="path19" class="s2" d="m239.7 118.8q-9.6 9.4-14.8 9.4q-2.4 0-4-2q-1.6-1.9-1.6-4.8q0-5.4 5.8-14.5q-2.8 1.4-6.2 2q-2.5 4.6-7.8 9.9h-0.9v-3.5q3-3.1 5.4-6.6q-3.3-1.5-3.3-4.3q0-3 2-6.4q2-3.3 5.6-3.3q3 0 3 3.1q0 2.4-1.8 6.9q6.4-0.7 11.1-9.8l3.5-0.1l-3.5 9.8q-2.3 6.2-2.9 8.4q-0.7 2.3-0.7 4q0 1.6 0.8 2.6q0.7 0.9 2 0.9q1.4 0 2.6-0.9q1.3-1 5.7-5.2c0 0 0 4.4 0 4.4z" />
			<path id="path21" class="s2" d="m277.3 118.8q-8.8 9.3-15.1 9.3q-2.6 0-4.2-1.8q-1.6-1.8-1.6-4.8q0-4.1 3.4-12.5q1.8-4.5 1.8-5.8q0-1.2-0.9-1.2q-0.6 0-1.5 0.5q-0.8 0.6-1.8 1.5q-1 0.9-2.2 2.2q-1 1.1-2.2 2.4l-2.1 2.5q-1.5 1.8-1.8 3.7q-0.6 3.2-0.8 5.9q-0.1 2.1-0.1 5.5l-8.5 2q-0.4-5.2-0.4-7.7q0-6.2 1.5-11.7q1.4-5.5 4.6-12.4l9.3-1.8q-2.9 8-3.8 12.5q6.2-7 9.9-9.7q3.7-2.7 6.6-2.7q1.9 0 3.2 1.5q1.3 1.4 1.3 3.7q0 3.6-3.3 12.1q-2.2 5.7-2.2 7.5q0 2.3 1.9 2.3q2.8 0 9-7.4z" />
		</g>
	</g>
	<text id="text25" style="transform: matrix(1,0,0,1,153.333,81.946)" >
		<tspan x="0" y="0" class="t3">scikit
</tspan>
	</text>
</svg>